<svg  viewBox="0 0 505 48" fill="none" xmlns="http://www.w3.org/2000/svg">
<path d="M8.55158 38.885V37.18L9.26658 36.74C9.15658 36.1167 9.08325 35.5117 9.04658 34.925C9.00992 34.3017 8.99158 33.6783 8.99158 33.055C8.99158 32.3583 8.99158 31.68 8.99158 31.02C9.02825 30.3233 9.04658 29.6083 9.04658 28.875C9.04658 28.105 9.00992 27.335 8.93658 26.565C8.86325 25.795 8.73492 25.025 8.55158 24.255H8.22158C8.25825 26.1983 8.31325 28.105 8.38658 29.975C8.49658 31.845 8.55158 33.7517 8.55158 35.695C8.36825 32.9083 8.14825 30.1217 7.89158 27.335C7.67158 24.5483 7.56158 21.725 7.56158 18.865C7.56158 18.0217 7.59825 17.1783 7.67158 16.335C7.78158 15.455 7.89158 14.5933 8.00158 13.75L4.37158 14.685L4.42658 14.52C4.35325 14.41 4.24325 14.2083 4.09658 13.915C3.98658 13.6217 3.93158 13.4383 3.93158 13.365C3.93158 13.1817 4.11492 12.9983 4.48158 12.815C4.88492 12.595 5.32492 12.4117 5.80158 12.265C6.31492 12.1183 6.79158 11.99 7.23158 11.88C7.70825 11.77 8.03825 11.6967 8.22158 11.66L8.05658 11C7.76325 11.0733 7.15825 11.165 6.24158 11.275C5.36158 11.3483 4.46325 11.385 3.54658 11.385C2.81325 11.385 2.17158 11.33 1.62158 11.22C1.07158 11.11 0.796582 10.8717 0.796582 10.505C0.796582 10.1017 1.16325 9.69833 1.89658 9.295C2.62992 8.89167 3.56492 8.525 4.70158 8.195C5.87492 7.82833 7.15825 7.49833 8.55158 7.205C9.94492 6.91166 11.2832 6.655 12.5666 6.435C13.8499 6.215 15.0049 6.05 16.0316 5.94C17.0582 5.83 17.7732 5.775 18.1766 5.775C20.0466 5.775 21.8249 6.01333 23.5116 6.49C25.2349 6.93 26.7382 7.645 28.0216 8.635C29.3049 9.58833 30.3132 10.8167 31.0466 12.32C31.8166 13.8233 32.2016 15.6017 32.2016 17.655C32.2016 18.4983 32.0732 19.3783 31.8166 20.295C31.5599 21.175 31.1566 22.0367 30.6066 22.88C30.0933 23.6867 29.4149 24.42 28.5716 25.08C27.7649 25.74 26.7933 26.2167 25.6566 26.51C27.5632 26.7667 29.1949 27.2067 30.5516 27.83C31.9449 28.4533 33.0633 29.205 33.9066 30.085C34.7866 30.965 35.4283 31.955 35.8316 33.055C36.2349 34.155 36.4366 35.3283 36.4366 36.575C36.4366 38.1883 36.1066 39.5633 35.4466 40.7C34.8233 41.8367 33.9799 42.79 32.9166 43.56C31.8532 44.33 30.6432 44.9167 29.2866 45.32C27.9299 45.76 26.5183 46.09 25.0516 46.31C23.5849 46.53 22.1366 46.6583 20.7066 46.695C19.2766 46.7683 17.9749 46.805 16.8016 46.805C16.5082 46.805 15.9399 46.7867 15.0966 46.75C14.2899 46.7133 13.4466 46.64 12.5666 46.53C11.6866 46.42 10.8982 46.255 10.2016 46.035C9.54158 45.8517 9.21158 45.595 9.21158 45.265L9.26658 44.99C10.8066 45.2467 12.3466 45.4483 13.8866 45.595C15.4266 45.7783 16.9666 45.87 18.5066 45.87C19.6799 45.87 20.8349 45.7967 21.9716 45.65C23.1082 45.5033 24.2449 45.32 25.3816 45.1C23.3282 45.4667 21.1832 45.65 18.9466 45.65C17.3699 45.65 15.7932 45.5767 14.2166 45.43C12.6766 45.2833 11.1366 45.0817 9.59658 44.825L9.87158 44.165L9.76158 43.78C9.65158 43.8167 9.48658 43.835 9.26658 43.835C8.89992 43.835 8.47825 43.7617 8.00158 43.615C7.52492 43.4683 7.06658 43.285 6.62658 43.065C6.22325 42.845 5.87492 42.5883 5.58158 42.295C5.28825 42.0017 5.14158 41.7083 5.14158 41.415C5.14158 41.2317 5.28825 41.085 5.58158 40.975C5.87492 40.865 6.20492 40.7917 6.57158 40.755C6.97492 40.6817 7.35992 40.6267 7.72658 40.59C8.09325 40.5533 8.34992 40.5167 8.49658 40.48L8.55158 38.885ZM14.0516 12.815C14.1249 13.035 14.1982 13.5117 14.2716 14.245C14.3816 14.9417 14.4732 15.7667 14.5466 16.72C14.6566 17.6733 14.7482 18.7 14.8216 19.8C14.8949 20.9 14.9499 21.9633 14.9866 22.99C15.0599 23.98 15.1149 24.8783 15.1516 25.685C15.1882 26.455 15.2066 27.005 15.2066 27.335C15.2066 29.2783 15.1332 31.2217 14.9866 33.165C14.8399 35.0717 14.7666 36.9967 14.7666 38.94C14.7666 39.6733 15.0049 40.1317 15.4816 40.315C15.9949 40.4983 16.5449 40.59 17.1316 40.59C18.8916 40.59 20.6332 40.535 22.3566 40.425C24.0799 40.2783 25.7666 39.8933 27.4166 39.27L27.5816 39.93C28.3149 39.5633 28.9566 39.1233 29.5066 38.61C30.0933 38.06 30.3866 37.345 30.3866 36.465C30.3866 35.475 30.0749 34.6317 29.4516 33.935C28.8282 33.2017 28.0582 32.615 27.1416 32.175C26.2616 31.735 25.3083 31.405 24.2816 31.185C23.2916 30.965 22.4116 30.855 21.6416 30.855C21.5683 30.855 21.4216 30.91 21.2016 31.02C20.9816 31.0933 20.8166 31.1483 20.7066 31.185C21.2199 31.2217 21.8616 31.3133 22.6316 31.46C23.4016 31.6067 24.1899 31.8083 24.9966 32.065C25.8033 32.285 26.5733 32.5783 27.3066 32.945C28.0399 33.3117 28.6449 33.715 29.1216 34.155C28.4249 33.605 27.4716 33.1467 26.2616 32.78C25.0149 32.4133 23.7316 32.12 22.4116 31.9C21.1283 31.68 19.9366 31.515 18.8366 31.405C17.7366 31.2583 16.9849 31.1483 16.5816 31.075L16.3066 24.97H16.4166C17.3699 24.97 18.3599 24.805 19.3866 24.475C20.4499 24.1083 21.4216 23.6133 22.3016 22.99C23.1816 22.33 23.9149 21.56 24.5016 20.68C25.0882 19.7633 25.3816 18.7733 25.3816 17.71C25.3816 16.6833 25.1616 15.84 24.7216 15.18C24.2816 14.52 23.6949 14.0067 22.9616 13.64C22.2649 13.2367 21.4766 12.98 20.5966 12.87C19.7166 12.7233 18.8549 12.65 18.0116 12.65C17.3516 12.65 16.6916 12.6867 16.0316 12.76C15.3716 12.7967 14.7116 12.815 14.0516 12.815ZM14.8216 41.745C15.4449 41.8183 16.0316 41.8733 16.5816 41.91C17.1682 41.9467 17.7732 41.965 18.3966 41.965C18.9832 41.965 19.6982 41.9467 20.5416 41.91C21.4216 41.8367 22.3382 41.7267 23.2916 41.58C24.2816 41.4333 25.2532 41.2317 26.2066 40.975C27.1966 40.7183 28.0766 40.3883 28.8466 39.985C29.6166 39.5817 30.2399 39.0867 30.7166 38.5C31.2299 37.9133 31.4866 37.2167 31.4866 36.41C31.4866 35.97 31.4132 35.5483 31.2666 35.145C31.1199 34.7417 30.9182 34.3567 30.6616 33.99C30.8449 34.2833 30.9916 34.6133 31.1016 34.98C31.2482 35.31 31.3216 35.6583 31.3216 36.025C31.3216 37.2717 30.8999 38.2617 30.0566 38.995C29.2133 39.7283 28.1866 40.2967 26.9766 40.7C25.8033 41.0667 24.5749 41.305 23.2916 41.415C22.0082 41.525 20.9082 41.58 19.9916 41.58C19.1483 41.58 18.2866 41.5617 17.4066 41.525C16.5632 41.4517 15.7199 41.3783 14.8766 41.305L14.8216 41.745ZM9.87158 40.865C9.94492 39.5817 9.98158 38.28 9.98158 36.96V33.055C9.98158 32.3217 9.96325 31.6067 9.92658 30.91C9.88992 30.25 9.83492 29.59 9.76158 28.93C9.76158 29.8833 9.76158 30.8367 9.76158 31.79C9.79825 32.78 9.81658 33.77 9.81658 34.76C9.81658 35.7867 9.79825 36.795 9.76158 37.785C9.72492 38.775 9.63325 39.765 9.48658 40.755L9.87158 40.865ZM20.2666 25.135C20.9266 24.7317 21.5499 24.31 22.1366 23.87C22.7599 23.43 23.3282 22.9167 23.8416 22.33C23.6582 22.33 23.5666 22.2567 23.5666 22.11C22.4299 23.3567 21.0182 24.3283 19.3316 25.025L20.2666 25.135ZM23.1266 30.25C24.2266 30.4333 25.3999 30.7817 26.6466 31.295C27.7099 31.735 28.6632 32.2483 29.5066 32.835C28.6999 32.175 27.7466 31.6067 26.6466 31.13C25.4366 30.5433 24.2816 30.25 23.1816 30.25H23.1266ZM10.5866 14.025L10.9716 13.145L10.0916 13.255C10.0916 13.3283 10.0916 13.4017 10.0916 13.475C10.1282 13.5117 10.1466 13.5667 10.1466 13.64C10.1466 13.7133 10.1282 13.7867 10.0916 13.86C10.0916 13.8967 10.0916 13.9517 10.0916 14.025H10.5866ZM34.7316 39.16C35.0983 38.2067 35.2816 37.3083 35.2816 36.465V35.86C35.2816 35.64 35.2633 35.4383 35.2266 35.255C35.2266 36.4283 35.0983 37.5283 34.8416 38.555C34.6216 39.545 34.1266 40.48 33.3566 41.36C33.9433 40.7733 34.4016 40.04 34.7316 39.16ZM14.1066 30.14C13.9599 30.8367 13.8682 31.5333 13.8316 32.23C13.7949 32.8167 13.7766 33.4217 13.7766 34.045C13.8132 33.4583 13.8682 32.8717 13.9416 32.285C14.0149 31.5883 14.0699 30.8733 14.1066 30.14ZM33.2466 41.47C32.5499 42.2033 31.7799 42.79 30.9366 43.23C30.0933 43.67 29.2133 44.0733 28.2966 44.44C29.2499 44.11 30.1482 43.725 30.9916 43.285C31.8349 42.845 32.5866 42.24 33.2466 41.47ZM31.5416 29.15C31.8716 29.4433 32.1832 29.7367 32.4766 30.03L33.2466 30.8C33.0266 30.47 32.7883 30.1767 32.5316 29.92C32.2749 29.6267 31.9449 29.37 31.5416 29.15ZM13.7766 40.26V38.61C13.7399 38.9033 13.7032 39.1783 13.6666 39.435C13.6666 39.6917 13.6666 39.9667 13.6666 40.26H13.7766ZM29.2316 34.265C29.8183 34.7417 30.1116 35.31 30.1116 35.97V36.08C30.0016 35.42 29.7082 34.815 29.2316 34.265ZM29.0666 38.335C28.7366 38.665 28.3333 38.9217 27.8566 39.105L29.0666 38.335ZM13.5566 41.58H13.7766V41.195H13.5566V41.58ZM29.7266 37.4C29.6899 37.4 29.6716 37.3633 29.6716 37.29C29.6716 37.2167 29.6899 37.125 29.7266 37.015C29.7999 36.8683 29.8733 36.7583 29.9466 36.685L29.7266 37.4ZM30.1116 36.41C30.1116 36.4467 30.0749 36.5017 30.0016 36.575L30.1116 36.355V36.41ZM60.8828 44.99C59.4895 45.4667 58.4261 45.7233 57.6928 45.76C56.9595 45.8333 56.3178 45.8883 55.7678 45.925C53.7145 45.925 51.8628 45.54 50.2128 44.77C48.5628 44 47.1511 42.955 45.9778 41.635C44.8045 40.315 43.8878 38.775 43.2278 37.015C42.6045 35.2183 42.2928 33.3117 42.2928 31.295C42.2928 30.1217 42.4028 28.9117 42.6228 27.665C42.8428 26.3817 43.1728 25.135 43.6128 23.925C44.0528 22.6783 44.6211 21.5233 45.3178 20.46C45.9778 19.3967 46.7661 18.4433 47.6828 17.6C46.7295 18.37 45.9228 19.2867 45.2628 20.35C44.5661 21.4133 43.9795 22.5683 43.5028 23.815C43.0261 25.025 42.6778 26.29 42.4578 27.61C42.2378 28.8933 42.1278 30.14 42.1278 31.35C42.1278 32.89 42.3661 34.54 42.8428 36.3C43.3561 38.0233 44.1628 39.6367 45.2628 41.14C46.3628 42.6067 47.7745 43.835 49.4978 44.825C51.2578 45.815 53.3845 46.31 55.8778 46.31C57.0511 46.31 58.2795 46.145 59.5628 45.815C58.1695 46.7317 56.6111 47.19 54.8878 47.19C53.4945 47.19 52.1745 46.97 50.9278 46.53C49.7178 46.1267 48.5811 45.54 47.5178 44.77C46.4911 44.0367 45.5561 43.1567 44.7128 42.13C43.8695 41.1033 43.1545 40.0033 42.5678 38.83L43.0628 38.39C42.4395 37.1433 41.9811 35.8967 41.6878 34.65C41.4311 33.4033 41.3028 32.1383 41.3028 30.855C41.3028 28.985 41.5595 27.1883 42.0728 25.465C42.6228 23.7417 43.3378 22.11 44.2178 20.57L45.5378 18.755C45.7578 18.3517 46.0695 17.9483 46.4728 17.545C46.9128 17.1417 47.3895 16.7567 47.9028 16.39C48.4161 15.9867 48.9478 15.6383 49.4978 15.345C50.0845 15.015 50.6345 14.7217 51.1478 14.465C52.4678 13.805 53.7878 13.2183 55.1078 12.705C56.4278 12.155 57.9678 11.7517 59.7278 11.495L59.5078 11.33C56.1345 11.66 53.2745 12.485 50.9278 13.805C48.5811 15.0883 46.6745 16.665 45.2078 18.535C43.7411 20.405 42.6778 22.4583 42.0178 24.695C41.3578 26.895 41.0278 29.0583 41.0278 31.185C41.0278 32.3217 41.1195 33.4767 41.3028 34.65C41.5228 35.7867 41.8345 36.9233 42.2378 38.06C41.3211 35.86 40.8628 33.5317 40.8628 31.075C40.8628 28.655 41.2661 26.2533 42.0728 23.87C42.8795 21.4867 44.1445 19.2867 45.8678 17.27C48.0678 15.2533 50.4695 13.7133 53.0728 12.65C55.6761 11.55 58.1878 11 60.6078 11C61.3778 11 62.1661 11.1283 62.9728 11.385C63.7795 11.6417 64.5128 12.045 65.1728 12.595C65.8328 13.1083 66.3645 13.7867 66.7678 14.63C67.2078 15.4733 67.4278 16.5 67.4278 17.71C67.4278 18.7 67.1895 19.91 66.7128 21.34C66.2361 22.77 65.5211 24.1633 64.5678 25.52C63.6511 26.84 62.4961 27.9767 61.1028 28.93C59.7095 29.8467 58.0961 30.305 56.2628 30.305H54.4478C53.0911 30.0117 51.8445 29.6817 50.7078 29.315C49.6078 28.9117 48.5628 28.6 47.5728 28.38C47.4261 28.9667 47.3345 29.535 47.2978 30.085C47.2978 30.5983 47.2978 31.1117 47.2978 31.625C47.2978 32.6883 47.4078 33.7333 47.6278 34.76C47.8845 35.75 48.2695 36.6667 48.7828 37.51C49.2961 38.3533 49.9378 39.0683 50.7078 39.655C51.5145 40.205 52.4861 40.5533 53.6228 40.7C54.3195 40.8467 54.9245 40.9383 55.4378 40.975C55.9511 40.975 56.3728 40.9933 56.7028 41.03C57.0695 41.03 57.3261 41.085 57.4728 41.195C57.6561 41.2683 57.7478 41.4333 57.7478 41.69C57.3811 41.8 56.9961 41.8733 56.5928 41.91C56.2261 41.9467 55.8411 41.965 55.4378 41.965C54.1545 41.965 52.9995 41.7633 51.9728 41.36C50.9461 40.92 50.0661 40.425 49.3328 39.875C50.1761 40.7183 51.1845 41.3233 52.3578 41.69C53.5311 42.02 54.6861 42.185 55.8228 42.185C56.4461 42.185 57.0878 42.13 57.7478 42.02C57.6745 42.24 57.6378 42.3683 57.6378 42.405C57.6378 42.625 57.7295 42.7717 57.9128 42.845C58.0595 42.8083 58.3161 42.7167 58.6828 42.57C59.0495 42.3867 59.4161 42.2217 59.7828 42.075C60.1861 41.8917 60.5711 41.745 60.9378 41.635C61.3045 41.4883 61.5611 41.415 61.7078 41.415C61.8911 41.415 62.0561 41.4517 62.2028 41.525C62.3495 41.5617 62.4228 41.7633 62.4228 42.13C62.4228 42.4967 62.2945 42.9367 62.0378 43.45C61.7811 43.9633 61.3961 44.4767 60.8828 44.99ZM53.2928 23.21L54.5028 23.43C54.9061 23.5033 55.2728 23.54 55.6028 23.54C55.9695 23.54 56.3911 23.43 56.8678 23.21C57.3811 22.9533 57.8761 22.605 58.3528 22.165C58.8661 21.725 59.3061 21.175 59.6728 20.515C60.0761 19.855 60.3695 19.1033 60.5528 18.26L60.6628 17.93C60.1495 17.93 59.3795 18.0583 58.3528 18.315C57.3261 18.5717 56.2628 18.92 55.1628 19.36C54.0628 19.7633 53.0361 20.2583 52.0828 20.845C51.1295 21.395 50.4695 22 50.1028 22.66C50.6528 22.77 51.1845 22.88 51.6978 22.99C52.2478 23.0633 52.7795 23.1367 53.2928 23.21ZM50.7628 27.28C50.8361 27.2067 50.8728 27.0967 50.8728 26.95C50.9095 26.8033 50.9278 26.6933 50.9278 26.62L48.3428 25.685L48.0678 26.455L50.7628 27.28ZM49.2228 39.765C48.9661 39.4717 48.7095 39.1783 48.4528 38.885C48.2328 38.6283 48.0495 38.3717 47.9028 38.115C48.2328 38.7383 48.6728 39.2883 49.2228 39.765ZM98.5161 41.085C96.9028 41.745 95.2344 42.2583 93.5111 42.625C91.8244 42.9917 90.1011 43.175 88.3411 43.175C86.7278 43.175 85.1511 42.9917 83.6111 42.625C82.0711 42.2583 80.6594 41.6717 79.3761 40.865C78.0928 40.0583 76.9561 39.0133 75.9661 37.73C75.0128 36.41 74.2794 34.8333 73.7661 33C73.8761 34.6133 74.3161 36.0067 75.0861 37.18C75.8561 38.3167 76.8094 39.3067 77.9461 40.15C79.1194 40.9567 80.4028 41.6167 81.7961 42.13C83.1894 42.6433 84.5278 43.065 85.8111 43.395C85.9944 43.4317 86.2511 43.45 86.5811 43.45C88.7444 43.45 90.7061 43.2667 92.4661 42.9C94.2261 42.5333 96.0228 42.1483 97.8561 41.745C97.2694 42.2217 96.5544 42.6433 95.7111 43.01C94.9044 43.34 94.0061 43.6333 93.0161 43.89C92.0628 44.11 91.0544 44.275 89.9911 44.385C88.9278 44.5317 87.8644 44.605 86.8011 44.605H86.1961C86.0128 44.605 85.8294 44.5867 85.6461 44.55L85.2611 43.835C83.9411 43.6883 82.5661 43.3583 81.1361 42.845C79.7061 42.3317 78.3861 41.6167 77.1761 40.7C76.0028 39.7467 75.0128 38.5917 74.2061 37.235C73.4361 35.8783 73.0511 34.3017 73.0511 32.505C73.0511 31.0017 73.2528 29.535 73.6561 28.105C74.0594 26.675 74.5911 25.2817 75.2511 23.925C75.2144 23.9617 75.1594 23.98 75.0861 23.98C74.9761 23.98 74.9211 23.9067 74.9211 23.76C74.2611 25.08 73.6928 26.455 73.2161 27.885C72.7761 29.2783 72.5561 30.8 72.5561 32.45C72.5561 34.21 72.9594 35.7683 73.7661 37.125C74.5728 38.4817 75.5261 39.6367 76.6261 40.59C77.7628 41.5067 78.9178 42.2583 80.0911 42.845C81.1544 43.3583 82.0344 43.725 82.7311 43.945C81.5944 43.615 80.4394 43.1383 79.2661 42.515C78.0194 41.855 76.8828 41.03 75.8561 40.04C74.8661 39.0133 74.0411 37.84 73.3811 36.52C72.7211 35.1633 72.3911 33.6783 72.3911 32.065C72.3911 29.755 72.8128 27.5917 73.6561 25.575C74.4994 23.5583 75.6178 21.8167 77.0111 20.35C78.4044 18.8467 79.9994 17.6733 81.7961 16.83C83.6294 15.95 85.5178 15.51 87.4611 15.51C87.7911 15.4367 88.1944 15.4 88.6711 15.4C89.1844 15.3633 89.6061 15.345 89.9361 15.345C91.1094 15.6017 92.2828 15.9133 93.4561 16.28C94.6661 16.6467 95.8578 17.16 97.0311 17.82C96.8844 17.8933 96.7744 18.0033 96.7011 18.15C96.6644 18.26 96.6278 18.4067 96.5911 18.59C96.5544 18.7367 96.4811 18.865 96.3711 18.975C96.2978 19.085 96.1511 19.14 95.9311 19.14C95.7478 19.14 95.4728 19.085 95.1061 18.975C94.7394 18.865 94.2261 18.7 93.5661 18.48C93.4561 18.59 93.4011 18.755 93.4011 18.975C94.2811 19.415 94.8861 19.9283 95.2161 20.515C95.5461 21.065 95.7111 21.5967 95.7111 22.11C95.7111 22.3667 95.4361 22.5867 94.8861 22.77C94.4094 22.77 93.6578 22.6783 92.6311 22.495C91.6411 22.3117 90.5228 22.22 89.2761 22.22C88.7261 22.22 88.1211 22.2567 87.4611 22.33C86.8011 22.3667 86.1411 22.4767 85.4811 22.66C84.8211 22.8067 84.1978 23.045 83.6111 23.375C83.0244 23.6683 82.5478 24.0717 82.1811 24.585C81.7411 25.1717 81.3378 25.8317 80.9711 26.565C80.6044 27.2983 80.2744 28.05 79.9811 28.82C79.6878 29.5533 79.4494 30.2683 79.2661 30.965C79.1194 31.6617 79.0461 32.285 79.0461 32.835C79.0461 33.3483 79.2844 33.935 79.7611 34.595C80.2378 35.2183 80.8428 35.8233 81.5761 36.41C82.3461 36.96 83.2078 37.4367 84.1611 37.84C85.1511 38.2433 86.1411 38.445 87.1311 38.445C87.6078 38.445 88.1761 38.3717 88.8361 38.225C89.5328 38.0783 90.2294 37.9133 90.9261 37.73C91.6594 37.51 92.3744 37.3267 93.0711 37.18C93.7678 37.0333 94.3544 36.96 94.8311 36.96C95.2711 36.96 95.5461 37.015 95.6561 37.125C95.8028 37.1983 95.8761 37.3633 95.8761 37.62C95.0328 37.9133 94.1528 38.2067 93.2361 38.5C92.6494 38.6833 92.0811 38.8667 91.5311 39.05L93.2361 38.61C94.1161 38.3533 94.9961 38.0783 95.8761 37.785C95.8761 37.9683 95.8761 38.1333 95.8761 38.28C95.9128 38.4267 96.0228 38.5917 96.2061 38.775L96.7561 38.555C97.0494 38.445 97.3611 38.2983 97.6911 38.115C98.4244 38.115 98.9194 38.1883 99.1761 38.335C99.4694 38.4817 99.6161 38.7017 99.6161 38.995C99.6161 39.1783 99.5794 39.3433 99.5061 39.49C99.4694 39.6 99.3961 39.7283 99.2861 39.875C99.2128 39.985 99.1028 40.1317 98.9561 40.315C98.8094 40.4983 98.6628 40.755 98.5161 41.085ZM78.5511 34.485C78.8444 35.145 79.2844 35.7867 79.8711 36.41C80.4578 36.9967 81.1178 37.5283 81.8511 38.005C82.6211 38.445 83.4278 38.8117 84.2711 39.105C85.0778 39.3983 85.8844 39.5633 86.6911 39.6C85.9578 39.5267 85.1878 39.3433 84.3811 39.05C83.5378 38.7567 82.7311 38.39 81.9611 37.95C81.2278 37.4733 80.5494 36.9417 79.9261 36.355C79.3394 35.7683 78.8811 35.145 78.5511 34.485ZM91.2011 39.105C91.3111 39.0683 91.4211 39.05 91.5311 39.05C91.4211 39.05 91.3111 39.0683 91.2011 39.105ZM82.9511 44C82.8778 44 82.8044 43.9817 82.7311 43.945C82.8044 43.9817 82.8778 44 82.9511 44ZM115.687 10.89C115.724 11.0733 115.925 11.165 116.292 11.165H116.402C116.622 11.165 116.769 11.1833 116.842 11.22C118.749 11.8067 120.637 12.6683 122.507 13.805C124.414 14.905 126.119 16.2433 127.622 17.82C129.162 19.36 130.39 21.12 131.307 23.1C132.26 25.08 132.737 27.2067 132.737 29.48C132.737 31.46 132.352 33.3667 131.582 35.2C130.812 37.0333 129.749 38.6283 128.392 39.985C129.785 38.775 130.885 37.2717 131.692 35.475C132.535 33.6417 132.957 31.68 132.957 29.59C132.957 27.2433 132.462 25.0617 131.472 23.045C130.482 20.9917 129.217 19.1583 127.677 17.545C126.137 15.9317 124.414 14.5567 122.507 13.42C120.637 12.2467 118.804 11.3483 117.007 10.725C118.4 10.725 119.812 11.0367 121.242 11.66C122.709 12.2833 124.102 13.1083 125.422 14.135C126.742 15.125 127.952 16.28 129.052 17.6C130.189 18.8833 131.142 20.2033 131.912 21.56L131.527 22.11C132.26 23.21 132.81 24.4017 133.177 25.685C133.58 26.9683 133.782 28.2883 133.782 29.645C133.782 32.2483 133.214 34.54 132.077 36.52C130.977 38.4633 129.565 40.095 127.842 41.415C126.155 42.6983 124.285 43.67 122.232 44.33C120.215 44.99 118.309 45.32 116.512 45.32C115.485 45.32 114.44 45.21 113.377 44.99C112.35 44.77 111.305 44.4033 110.242 43.89V44.22C111.269 44.8067 112.314 45.21 113.377 45.43C114.477 45.65 115.559 45.76 116.622 45.76C119.262 45.76 121.847 45.1733 124.377 44C126.944 42.8633 129.107 41.25 130.867 39.16C129.18 41.3233 127.072 43.01 124.542 44.22C122.049 45.43 119.445 46.035 116.732 46.035C113.945 46.035 111.69 45.485 109.967 44.385C108.244 43.3217 106.887 42.0017 105.897 40.425C104.944 38.8483 104.302 37.18 103.972 35.42C103.642 33.66 103.477 32.0833 103.477 30.69C103.477 28.82 103.715 26.9867 104.192 25.19C104.705 23.3933 105.475 21.7433 106.502 20.24C107.529 18.7367 108.849 17.4533 110.462 16.39C112.075 15.29 114.019 14.52 116.292 14.08L114.697 13.695C113.927 13.5117 113.377 13.2917 113.047 13.035C112.717 12.7783 112.552 12.5583 112.552 12.375C112.552 12.0817 112.864 11.77 113.487 11.44C114.147 11.0733 114.88 10.89 115.687 10.89ZM113.212 17.82C114.202 17.4533 115.155 17.27 116.072 17.27C116.989 17.27 117.685 17.4167 118.162 17.71C118.675 17.9667 118.932 18.2417 118.932 18.535C118.932 18.7183 118.712 18.92 118.272 19.14C117.869 19.36 117.337 19.6717 116.677 20.075C116.054 20.4417 115.357 20.9183 114.587 21.505C113.854 22.0917 113.157 22.8433 112.497 23.76C111.874 24.64 111.342 25.7217 110.902 27.005C110.499 28.2883 110.297 29.7917 110.297 31.515C110.297 34.045 110.865 35.9517 112.002 37.235C113.139 38.5183 114.715 39.16 116.732 39.16C118.015 39.16 119.317 38.94 120.637 38.5C121.994 38.06 123.204 37.4367 124.267 36.63C125.367 35.8233 126.247 34.8333 126.907 33.66C127.604 32.4867 127.952 31.1667 127.952 29.7C127.952 28.6 127.75 27.5 127.347 26.4C126.98 25.3 126.449 24.255 125.752 23.265C125.092 22.2383 124.285 21.285 123.332 20.405C122.415 19.525 121.407 18.7733 120.307 18.15C119.244 17.5633 118.364 17.1233 117.667 16.83C117.007 16.5 116.53 16.1883 116.237 15.895C115.944 16.0417 115.522 16.225 114.972 16.445C114.459 16.6283 113.762 16.9217 112.882 17.325L113.212 17.82ZM116.897 15.235C118.584 15.785 120.197 16.61 121.737 17.71C123.057 18.7 124.267 19.7817 125.367 20.955C124.304 19.7083 123.149 18.59 121.902 17.6C120.472 16.4267 118.877 15.51 117.117 14.85L116.897 15.235ZM127.567 33.99C127.017 35.1633 126.247 36.2083 125.257 37.125C125.917 36.685 126.467 36.1533 126.907 35.53C127.384 34.9067 127.769 34.2833 128.062 33.66C128.355 33.0367 128.575 32.4683 128.722 31.955C128.832 31.4783 128.924 31.0933 128.997 30.8C128.594 31.7533 128.117 32.8167 127.567 33.99ZM131.252 38.72C131.215 38.7933 131.16 38.8667 131.087 38.94C131.05 38.9767 131.014 38.995 130.977 38.995C130.94 38.995 131.032 38.8117 131.252 38.445C131.472 38.0417 131.729 37.5833 132.022 37.07C132.352 36.52 132.664 35.9517 132.957 35.365C133.214 34.925 133.397 34.54 133.507 34.21C132.994 35.7867 132.242 37.29 131.252 38.72ZM134.332 29.81C134.332 30.3967 134.295 30.9833 134.222 31.57C134.149 32.12 134.02 32.6333 133.837 33.11C134.094 32.1933 134.222 31.1667 134.222 30.03C134.222 29.1867 134.149 28.3617 134.002 27.555C133.892 26.8583 133.745 26.18 133.562 25.52C133.745 26.18 133.91 26.84 134.057 27.5C134.24 28.2333 134.332 29.0033 134.332 29.81ZM116.897 14.355L116.402 14.135C116.365 14.2083 116.31 14.2817 116.237 14.355C116.164 14.4283 116.127 14.5017 116.127 14.575C116.127 14.6483 116.164 14.7583 116.237 14.905C116.347 15.015 116.439 15.1067 116.512 15.18L116.897 14.355ZM125.697 21.34C125.587 21.1933 125.477 21.065 125.367 20.955C125.477 21.1017 125.587 21.23 125.697 21.34ZM133.507 34.21C133.544 34.1367 133.562 34.0633 133.562 33.99C133.562 34.0633 133.544 34.1367 133.507 34.21ZM133.617 33.88C133.58 33.9167 133.562 33.9533 133.562 33.99C133.562 33.9533 133.58 33.9167 133.617 33.88ZM163.296 41.36C163.296 40.15 163.205 38.9217 163.021 37.675C162.875 36.4283 162.801 35.2183 162.801 34.045V32.56C162.618 31.13 162.398 29.4617 162.141 27.555C161.885 25.6117 161.555 23.7783 161.151 22.055C160.748 20.3317 160.253 18.865 159.666 17.655C159.08 16.445 158.346 15.84 157.466 15.84C156.183 15.84 154.863 16.445 153.506 17.655C152.15 18.8283 151.013 20.5517 150.096 22.825C149.656 24.1083 149.345 25.465 149.161 26.895C149.015 28.325 148.886 29.8283 148.776 31.405C148.666 32.9817 148.556 34.6133 148.446 36.3C148.373 37.95 148.208 39.6733 147.951 41.47C147.878 41.6533 147.805 41.8733 147.731 42.13C147.695 42.3867 147.658 42.6067 147.621 42.79H140.856V38.335C140.82 37.9683 140.783 37.5283 140.746 37.015C140.71 36.5017 140.655 35.9883 140.581 35.475C140.545 34.925 140.508 34.3933 140.471 33.88C140.435 33.3667 140.398 32.9267 140.361 32.56C140.361 29.59 140.233 26.62 139.976 23.65C139.756 20.68 139.61 17.655 139.536 14.575L140.801 14.3C140.911 14.3 141.021 14.41 141.131 14.63C141.278 14.8133 141.388 15.18 141.461 15.73C141.571 16.28 141.663 17.0683 141.736 18.095C141.846 19.085 141.938 20.3867 142.011 22C142.048 22 142.103 21.9817 142.176 21.945C142.323 21.8717 142.433 21.835 142.506 21.835C142.506 21.5783 142.488 21.3217 142.451 21.065C142.451 20.8083 142.451 20.5517 142.451 20.295C142.451 17.1417 142.653 14.7217 143.056 13.035C143.496 11.3117 143.863 10.45 144.156 10.45C144.376 10.45 144.596 10.9267 144.816 11.88C145.036 12.8333 145.275 14.3367 145.531 16.39C146.155 15.4 146.87 14.4467 147.676 13.53C148.483 12.6133 149.381 11.825 150.371 11.165C151.398 10.4683 152.498 9.91833 153.671 9.515C154.845 9.11167 156.128 8.91 157.521 8.91C158.731 8.91 159.795 9.16667 160.711 9.68C161.628 10.1933 162.435 10.8717 163.131 11.715C163.865 12.5217 164.47 13.4567 164.946 14.52C165.46 15.5467 165.9 16.5917 166.266 17.655C166.633 18.6817 166.926 19.69 167.146 20.68C167.403 21.6333 167.623 22.44 167.806 23.1C167.806 23.1733 167.825 23.265 167.861 23.375C167.898 23.4483 167.935 23.5217 167.971 23.595C168.411 22.4217 168.961 21.0833 169.621 19.58C170.281 18.04 171.106 16.5917 172.096 15.235C173.086 13.8783 174.241 12.7417 175.561 11.825C176.918 10.8717 178.476 10.395 180.236 10.395C181.96 10.395 183.426 10.8533 184.636 11.77C185.846 12.6867 186.855 13.86 187.661 15.29C188.505 16.72 189.165 18.315 189.641 20.075C190.155 21.7983 190.54 23.5033 190.796 25.19C191.053 26.84 191.218 28.3617 191.291 29.755C191.365 31.1483 191.401 32.2117 191.401 32.945C191.401 34.1183 191.346 34.98 191.236 35.53C191.163 36.08 190.925 36.355 190.521 36.355C190.448 34.8883 190.375 33.4033 190.301 31.9C190.265 30.3967 190.155 28.8933 189.971 27.39C189.825 25.85 189.605 24.3467 189.311 22.88C189.018 21.45 188.633 20.0383 188.156 18.645C189.073 21.5417 189.605 24.4383 189.751 27.335C189.935 30.2683 190.081 33.165 190.191 36.025C189.935 35.7683 189.733 35.64 189.586 35.64C189.476 35.64 189.403 35.7133 189.366 35.86V37.51C189.366 37.9867 189.366 38.4817 189.366 38.995C189.403 39.5083 189.458 39.9483 189.531 40.315C189.458 41.8183 189.385 42.9 189.311 43.56C189.275 44.1833 189.146 44.5867 188.926 44.77C188.633 44.77 188.376 44.605 188.156 44.275C187.936 43.945 187.716 43.5233 187.496 43.01C187.313 42.4967 187.13 41.9283 186.946 41.305C186.763 40.6817 186.58 40.0767 186.396 39.49V38.005C186.396 36.3917 186.378 34.705 186.341 32.945C186.341 31.185 186.268 29.48 186.121 27.83C186.011 26.1433 185.81 24.5483 185.516 23.045C185.26 21.5417 184.893 20.2217 184.416 19.085C183.976 17.9117 183.39 16.995 182.656 16.335C181.96 15.675 181.098 15.345 180.071 15.345C179.228 15.345 178.458 15.565 177.761 16.005C177.358 16.2617 176.955 16.5917 176.551 16.995C176.955 16.6283 177.376 16.3167 177.816 16.06C178.513 15.62 179.265 15.4 180.071 15.4H180.291C181.208 15.4 181.978 15.7667 182.601 16.5C183.261 17.1967 183.793 18.1317 184.196 19.305C184.636 20.4783 184.966 21.8167 185.186 23.32C185.406 24.8233 185.571 26.3817 185.681 27.995C185.828 29.6083 185.92 31.2217 185.956 32.835C185.993 34.4117 186.03 35.86 186.066 37.18C185.846 36.1533 185.645 34.9433 185.461 33.55C185.315 32.12 185.15 30.635 184.966 29.095C184.82 27.555 184.618 26.0333 184.361 24.53C184.141 23.0267 183.848 21.6883 183.481 20.515C183.115 19.305 182.656 18.3333 182.106 17.6C181.556 16.8667 180.878 16.5 180.071 16.5C179.741 16.5 179.448 16.5367 179.191 16.61C178.935 16.6467 178.605 16.83 178.201 17.16L177.651 16.885C176.405 17.985 175.36 19.4517 174.516 21.285C173.673 23.1183 172.958 25.0983 172.371 27.225C171.785 29.315 171.29 31.46 170.886 33.66C170.483 35.86 170.098 37.895 169.731 39.765V41.855C170.318 38.9583 170.85 36.1167 171.326 33.33C171.84 30.5067 172.573 27.775 173.526 25.135C172.793 27.4083 172.225 29.755 171.821 32.175C171.418 34.595 170.96 37.07 170.446 39.6C170.446 39.8567 170.391 40.205 170.281 40.645C170.171 41.085 169.988 41.745 169.731 42.625L163.681 42.02L163.296 41.36ZM163.901 38.61C163.791 37.62 163.681 36.355 163.571 34.815C163.498 33.275 163.388 31.6433 163.241 29.92C163.095 28.1967 162.893 26.455 162.636 24.695C162.38 22.935 162.013 21.3583 161.536 19.965C161.096 18.535 160.528 17.38 159.831 16.5C159.171 15.62 158.328 15.18 157.301 15.18C156.971 15.18 156.623 15.2533 156.256 15.4C155.89 15.5467 155.541 15.7117 155.211 15.895C155.321 15.8583 155.413 15.84 155.486 15.84H155.541C155.541 15.8767 155.486 15.95 155.376 16.06C156.366 15.73 157.136 15.565 157.686 15.565C158.383 15.8217 159.006 16.39 159.556 17.27C160.106 18.15 160.565 19.2133 160.931 20.46C161.335 21.67 161.665 22.99 161.921 24.42C162.215 25.85 162.435 27.225 162.581 28.545C162.728 29.8283 162.838 30.9833 162.911 32.01C162.985 33.0367 163.021 33.77 163.021 34.21C163.131 35.31 163.223 36.3917 163.296 37.455C163.406 38.5183 163.461 39.5817 163.461 40.645L163.901 38.61ZM168.521 23.815C168.521 23.8517 168.558 24.0167 168.631 24.31C168.705 24.5667 168.76 24.7317 168.796 24.805C168.906 24.4383 169.145 23.8517 169.511 23.045C169.878 22.2017 170.281 21.3217 170.721 20.405C171.161 19.4517 171.583 18.5717 171.986 17.765C172.133 17.435 172.261 17.1417 172.371 16.885C172.261 17.105 172.115 17.3433 171.931 17.6C171.528 18.3333 171.088 19.1033 170.611 19.91C170.135 20.68 169.695 21.4317 169.291 22.165C168.888 22.8983 168.631 23.4483 168.521 23.815ZM172.866 23.155C172.133 25.025 171.491 27.005 170.941 29.095C170.391 31.1483 169.896 33.275 169.456 35.475L169.566 36.355C170.043 33.715 170.593 31.0567 171.216 28.38C171.803 26.0333 172.555 23.815 173.471 21.725C173.435 21.835 173.398 21.9267 173.361 22C173.178 22.3667 173.013 22.7517 172.866 23.155ZM163.901 30.635C163.975 31.2217 164.011 31.79 164.011 32.34C164.048 32.89 164.085 33.4033 164.121 33.88L164.286 36.52L164.341 36.245C164.305 35.7317 164.286 35.2367 164.286 34.76V33.385L163.901 30.635ZM181.941 11.77C181.281 11.5867 180.658 11.495 180.071 11.495H179.466C179.21 11.495 179.081 11.5133 179.081 11.55H179.136C179.723 11.6967 180.273 11.77 180.786 11.77H181.941ZM173.801 24.365C173.985 23.8517 174.15 23.3567 174.296 22.88C174.48 22.4033 174.626 22.0733 174.736 21.89C174.736 21.9633 174.7 22.11 174.626 22.33C174.553 22.5867 174.406 22.9717 174.186 23.485L173.801 24.365ZM185.736 14.08C185.553 13.86 185.315 13.64 185.021 13.42C184.801 13.2733 184.6 13.145 184.416 13.035C184.856 13.3283 185.296 13.6767 185.736 14.08ZM172.646 16.39C172.573 16.4633 172.518 16.5733 172.481 16.72C172.555 16.61 172.61 16.5 172.646 16.39ZM216.913 44.99C215.52 45.4667 214.456 45.7233 213.723 45.76C212.99 45.8333 212.348 45.8883 211.798 45.925C209.745 45.925 207.893 45.54 206.243 44.77C204.593 44 203.181 42.955 202.008 41.635C200.835 40.315 199.918 38.775 199.258 37.015C198.635 35.2183 198.323 33.3117 198.323 31.295C198.323 30.1217 198.433 28.9117 198.653 27.665C198.873 26.3817 199.203 25.135 199.643 23.925C200.083 22.6783 200.651 21.5233 201.348 20.46C202.008 19.3967 202.796 18.4433 203.713 17.6C202.76 18.37 201.953 19.2867 201.293 20.35C200.596 21.4133 200.01 22.5683 199.533 23.815C199.056 25.025 198.708 26.29 198.488 27.61C198.268 28.8933 198.158 30.14 198.158 31.35C198.158 32.89 198.396 34.54 198.873 36.3C199.386 38.0233 200.193 39.6367 201.293 41.14C202.393 42.6067 203.805 43.835 205.528 44.825C207.288 45.815 209.415 46.31 211.908 46.31C213.081 46.31 214.31 46.145 215.593 45.815C214.2 46.7317 212.641 47.19 210.918 47.19C209.525 47.19 208.205 46.97 206.958 46.53C205.748 46.1267 204.611 45.54 203.548 44.77C202.521 44.0367 201.586 43.1567 200.743 42.13C199.9 41.1033 199.185 40.0033 198.598 38.83L199.093 38.39C198.47 37.1433 198.011 35.8967 197.718 34.65C197.461 33.4033 197.333 32.1383 197.333 30.855C197.333 28.985 197.59 27.1883 198.103 25.465C198.653 23.7417 199.368 22.11 200.248 20.57L201.568 18.755C201.788 18.3517 202.1 17.9483 202.503 17.545C202.943 17.1417 203.42 16.7567 203.933 16.39C204.446 15.9867 204.978 15.6383 205.528 15.345C206.115 15.015 206.665 14.7217 207.178 14.465C208.498 13.805 209.818 13.2183 211.138 12.705C212.458 12.155 213.998 11.7517 215.758 11.495L215.538 11.33C212.165 11.66 209.305 12.485 206.958 13.805C204.611 15.0883 202.705 16.665 201.238 18.535C199.771 20.405 198.708 22.4583 198.048 24.695C197.388 26.895 197.058 29.0583 197.058 31.185C197.058 32.3217 197.15 33.4767 197.333 34.65C197.553 35.7867 197.865 36.9233 198.268 38.06C197.351 35.86 196.893 33.5317 196.893 31.075C196.893 28.655 197.296 26.2533 198.103 23.87C198.91 21.4867 200.175 19.2867 201.898 17.27C204.098 15.2533 206.5 13.7133 209.103 12.65C211.706 11.55 214.218 11 216.638 11C217.408 11 218.196 11.1283 219.003 11.385C219.81 11.6417 220.543 12.045 221.203 12.595C221.863 13.1083 222.395 13.7867 222.798 14.63C223.238 15.4733 223.458 16.5 223.458 17.71C223.458 18.7 223.22 19.91 222.743 21.34C222.266 22.77 221.551 24.1633 220.598 25.52C219.681 26.84 218.526 27.9767 217.133 28.93C215.74 29.8467 214.126 30.305 212.293 30.305H210.478C209.121 30.0117 207.875 29.6817 206.738 29.315C205.638 28.9117 204.593 28.6 203.603 28.38C203.456 28.9667 203.365 29.535 203.328 30.085C203.328 30.5983 203.328 31.1117 203.328 31.625C203.328 32.6883 203.438 33.7333 203.658 34.76C203.915 35.75 204.3 36.6667 204.813 37.51C205.326 38.3533 205.968 39.0683 206.738 39.655C207.545 40.205 208.516 40.5533 209.653 40.7C210.35 40.8467 210.955 40.9383 211.468 40.975C211.981 40.975 212.403 40.9933 212.733 41.03C213.1 41.03 213.356 41.085 213.503 41.195C213.686 41.2683 213.778 41.4333 213.778 41.69C213.411 41.8 213.026 41.8733 212.623 41.91C212.256 41.9467 211.871 41.965 211.468 41.965C210.185 41.965 209.03 41.7633 208.003 41.36C206.976 40.92 206.096 40.425 205.363 39.875C206.206 40.7183 207.215 41.3233 208.388 41.69C209.561 42.02 210.716 42.185 211.853 42.185C212.476 42.185 213.118 42.13 213.778 42.02C213.705 42.24 213.668 42.3683 213.668 42.405C213.668 42.625 213.76 42.7717 213.943 42.845C214.09 42.8083 214.346 42.7167 214.713 42.57C215.08 42.3867 215.446 42.2217 215.813 42.075C216.216 41.8917 216.601 41.745 216.968 41.635C217.335 41.4883 217.591 41.415 217.738 41.415C217.921 41.415 218.086 41.4517 218.233 41.525C218.38 41.5617 218.453 41.7633 218.453 42.13C218.453 42.4967 218.325 42.9367 218.068 43.45C217.811 43.9633 217.426 44.4767 216.913 44.99ZM209.323 23.21L210.533 23.43C210.936 23.5033 211.303 23.54 211.633 23.54C212 23.54 212.421 23.43 212.898 23.21C213.411 22.9533 213.906 22.605 214.383 22.165C214.896 21.725 215.336 21.175 215.703 20.515C216.106 19.855 216.4 19.1033 216.583 18.26L216.693 17.93C216.18 17.93 215.41 18.0583 214.383 18.315C213.356 18.5717 212.293 18.92 211.193 19.36C210.093 19.7633 209.066 20.2583 208.113 20.845C207.16 21.395 206.5 22 206.133 22.66C206.683 22.77 207.215 22.88 207.728 22.99C208.278 23.0633 208.81 23.1367 209.323 23.21ZM206.793 27.28C206.866 27.2067 206.903 27.0967 206.903 26.95C206.94 26.8033 206.958 26.6933 206.958 26.62L204.373 25.685L204.098 26.455L206.793 27.28ZM205.253 39.765C204.996 39.4717 204.74 39.1783 204.483 38.885C204.263 38.6283 204.08 38.3717 203.933 38.115C204.263 38.7383 204.703 39.2883 205.253 39.765ZM266.955 29.59C265.965 29.59 265.213 29.5717 264.7 29.535C264.223 29.4983 263.783 29.48 263.38 29.48C262.28 29.48 261.308 29.535 260.465 29.645C259.622 29.755 258.907 29.975 258.32 30.305C257.733 30.635 257.293 31.1117 257 31.735C256.707 32.3583 256.56 33.1833 256.56 34.21C256.56 35.7133 256.725 36.8317 257.055 37.565C257.422 38.2617 257.917 38.775 258.54 39.105C259.2 39.3983 259.988 39.5817 260.905 39.655C261.822 39.7283 262.848 39.8933 263.985 40.15C264.645 40.2233 265.305 40.2783 265.965 40.315C266.625 40.315 267.285 40.315 267.945 40.315H271.905C270.072 40.205 268.238 40.15 266.405 40.15C264.608 40.1133 262.977 39.9483 261.51 39.655C260.08 39.3617 258.907 38.8483 257.99 38.115C257.11 37.3817 256.67 36.2633 256.67 34.76C256.67 33.55 256.817 32.6333 257.11 32.01C257.44 31.35 257.862 30.8733 258.375 30.58C258.925 30.25 259.567 30.0667 260.3 30.03C261.033 29.9567 261.822 29.92 262.665 29.92C263.692 29.92 264.737 29.975 265.8 30.085C264.957 30.3417 264.095 30.5433 263.215 30.69C262.372 30.8 261.583 30.9283 260.85 31.075C260.117 31.185 259.475 31.35 258.925 31.57C258.412 31.7533 258.063 32.0283 257.88 32.395V34.87L257.44 35.09C257.587 36.0067 257.715 36.7033 257.825 37.18C257.972 37.62 258.338 37.9683 258.925 38.225C259.512 38.445 260.447 38.6283 261.73 38.775C263.05 38.9217 264.957 39.16 267.45 39.49H271.41C272.107 39.49 272.51 39.4717 272.62 39.435C272.767 39.3617 272.858 39.325 272.895 39.325L272.4 36.355C272.327 35.6217 272.235 34.9617 272.125 34.375C272.015 33.7883 271.868 33.165 271.685 32.505C271.648 32.615 271.538 32.67 271.355 32.67C271.538 33.2933 271.685 33.9533 271.795 34.65C271.942 35.3467 272.052 36.0067 272.125 36.63C272.235 37.2533 272.308 37.785 272.345 38.225C272.418 38.665 272.492 38.9217 272.565 38.995L272.235 39.105C272.162 39.1417 272.052 39.16 271.905 39.16H271.575C271.318 39.16 271.025 39.1417 270.695 39.105C270.365 39.0317 269.943 38.995 269.43 38.995H267.615C266.185 38.995 264.865 38.9217 263.655 38.775C262.518 38.6283 261.528 38.445 260.685 38.225C261.528 38.4083 262.555 38.555 263.765 38.665C265.048 38.8117 266.24 38.885 267.34 38.885C267.817 38.885 268.312 38.885 268.825 38.885C269.375 38.8483 269.962 38.83 270.585 38.83H272.4C272.29 38.72 272.162 38.665 272.015 38.665H271.905C271.758 36.135 271.428 33.715 270.915 31.405C270.402 29.095 269.577 27.0783 268.44 25.355C267.303 23.595 265.818 22.2017 263.985 21.175C262.152 20.1117 259.86 19.58 257.11 19.58C256.34 19.58 255.57 19.635 254.8 19.745C254.03 19.855 253.242 20.0017 252.435 20.185C252.508 20.1117 252.545 20.0383 252.545 19.965C252.545 19.7817 252.472 19.6167 252.325 19.47C252.178 19.2867 252.105 19.1033 252.105 18.92C252.105 18.7 252.325 18.4983 252.765 18.315C253.242 18.095 254.232 17.8933 255.735 17.71C255.662 17.6367 255.607 17.5267 255.57 17.38C255.57 17.2333 255.57 17.1233 255.57 17.05C253.59 17.05 252.05 17.0133 250.95 16.94C249.85 16.83 249.3 16.555 249.3 16.115C249.3 15.9317 249.52 15.675 249.96 15.345C250.437 15.015 251.097 14.7033 251.94 14.41C252.783 14.08 253.792 13.805 254.965 13.585C256.175 13.3283 257.513 13.2 258.98 13.2C261.803 13.2 264.223 13.64 266.24 14.52C268.257 15.3633 269.943 16.5 271.3 17.93C272.693 19.3233 273.812 20.9183 274.655 22.715C275.535 24.5117 276.232 26.3267 276.745 28.16C277.295 29.9567 277.698 31.7167 277.955 33.44C278.212 35.1267 278.45 36.5933 278.67 37.84C278.67 38.06 278.67 38.28 278.67 38.5C278.707 38.72 278.725 38.9767 278.725 39.27C278.725 40.3333 278.523 41.2683 278.12 42.075C277.753 42.845 277.222 43.4867 276.525 44C275.865 44.55 275.077 44.9533 274.16 45.21C273.28 45.5033 272.327 45.65 271.3 45.65C270.493 45.65 269.448 45.6317 268.165 45.595C266.882 45.5583 265.653 45.4483 264.48 45.265C263.71 45.0817 262.867 44.935 261.95 44.825C261.033 44.7517 260.098 44.605 259.145 44.385C258.192 44.165 257.257 43.8533 256.34 43.45C255.46 43.0467 254.653 42.4417 253.92 41.635C253.223 40.7917 252.655 39.71 252.215 38.39C251.812 37.07 251.61 35.4017 251.61 33.385C251.61 31.4783 252.05 29.9567 252.93 28.82C253.81 27.6467 254.855 26.7483 256.065 26.125C257.312 25.465 258.577 25.0433 259.86 24.86C261.143 24.64 262.188 24.53 262.995 24.53C264.022 24.53 264.7 24.6033 265.03 24.75C265.36 24.8967 265.525 25.0433 265.525 25.19C265.525 25.3 265.507 25.3917 265.47 25.465C264.553 25.465 263.38 25.5017 261.95 25.575C260.52 25.6483 259.127 25.8867 257.77 26.29C256.45 26.6933 255.313 27.3167 254.36 28.16C253.407 28.9667 252.93 30.1217 252.93 31.625C253.26 30.2683 253.81 29.205 254.58 28.435C255.387 27.6283 256.303 27.0417 257.33 26.675C258.357 26.2717 259.402 26.0333 260.465 25.96C261.565 25.85 262.555 25.795 263.435 25.795H265.305C265.158 25.9417 265.085 26.0883 265.085 26.235C265.085 26.3817 265.158 26.51 265.305 26.62H267.45C268.037 26.73 268.458 26.9317 268.715 27.225C268.972 27.4817 269.1 27.72 269.1 27.94C269.1 28.27 268.935 28.5633 268.605 28.82C268.275 29.0767 267.725 29.3333 266.955 29.59ZM257.715 42.9C258.742 43.3033 259.787 43.615 260.85 43.835C261.95 44.055 263.032 44.2017 264.095 44.275C265.158 44.385 266.148 44.44 267.065 44.44C266.332 44.3667 265.598 44.2383 264.865 44.055C264.095 43.8717 263.417 43.7067 262.83 43.56C262.207 43.4133 261.583 43.3217 260.96 43.285C260.373 43.2117 259.75 43.12 259.09 43.01C258.467 42.9 257.825 42.735 257.165 42.515C256.505 42.2583 255.845 41.8917 255.185 41.415C255.882 42.0383 256.725 42.5333 257.715 42.9ZM258.265 37.125C258.228 37.0883 258.338 37.1983 258.595 37.455C258.815 37.675 259.108 37.84 259.475 37.95C259.292 37.8767 259.017 37.785 258.65 37.675C258.247 37.5283 258.045 37.3083 258.045 37.015L258.265 37.125ZM259.64 37.95C259.603 37.95 259.548 37.95 259.475 37.95C259.512 37.95 259.567 37.95 259.64 37.95ZM308.166 2.585C309.01 2.585 309.835 2.53 310.641 2.42C311.485 2.27333 312.328 2.2 313.171 2.2C314.088 2.2 314.986 2.255 315.866 2.365C316.783 2.43833 317.7 2.51166 318.616 2.585C317.553 2.40167 316.49 2.29166 315.426 2.255C314.363 2.18166 313.3 2.145 312.236 2.145C311.576 2.145 310.916 2.16333 310.256 2.2C309.633 2.2 308.991 2.21833 308.331 2.255C308.625 1.77833 309.046 1.44833 309.596 1.265C310.146 1.08166 310.678 0.989996 311.191 0.989996H311.466L312.841 1.045L313.061 1.595C313.355 1.52166 313.63 1.485 313.886 1.485H314.766C315.646 1.485 316.526 1.55833 317.406 1.705C318.286 1.815 319.203 1.87 320.156 1.87H320.816C321.036 1.87 321.275 1.83333 321.531 1.76L321.641 1.485C323.071 1.55833 324.52 1.595 325.986 1.595C326.536 1.595 327.013 1.705 327.416 1.925C327.856 2.145 328.333 2.255 328.846 2.255V3.52C328.846 3.74 328.81 3.94167 328.736 4.125C328.663 4.27167 328.535 4.345 328.351 4.345L328.021 4.29V4.785C328.388 5.04166 328.7 5.37166 328.956 5.775C329.213 6.17833 329.341 6.6 329.341 7.04C329.341 7.37 329.25 7.62666 329.066 7.81C328.92 7.99333 328.718 8.14 328.461 8.25C328.205 8.36 327.93 8.43333 327.636 8.47C327.343 8.47 327.068 8.47 326.811 8.47C324.501 8.47 322.118 8.36 319.661 8.14C317.205 7.88333 314.766 7.55333 312.346 7.15L311.301 7.425C311.338 7.57167 311.375 7.92 311.411 8.47C311.485 8.98333 311.558 9.625 311.631 10.395C311.705 11.1283 311.778 11.9167 311.851 12.76C311.961 13.6033 312.053 14.3917 312.126 15.125C312.2 15.8217 312.255 16.4267 312.291 16.94C312.328 17.4167 312.346 17.6733 312.346 17.71H314.546V18.26C315.206 18.0767 315.775 17.985 316.251 17.985C316.838 17.985 317.406 18.04 317.956 18.15C318.506 18.26 319.111 18.315 319.771 18.315C320.065 18.315 320.34 18.2967 320.596 18.26C320.89 18.2233 321.183 18.1683 321.476 18.095V17.71C320.926 17.7467 320.376 17.7833 319.826 17.82C319.276 17.82 318.726 17.82 318.176 17.82C317.81 17.82 317.443 17.82 317.076 17.82C316.746 17.7833 316.416 17.7467 316.086 17.71C317.626 17.71 319.13 17.655 320.596 17.545C322.1 17.435 323.621 17.38 325.161 17.38C325.785 17.38 326.353 17.545 326.866 17.875C327.38 18.205 327.636 18.7183 327.636 19.415C327.636 19.5983 327.6 19.7633 327.526 19.91C327.453 20.0567 327.325 20.13 327.141 20.13L326.811 20.075V20.57C327.178 20.8633 327.471 21.23 327.691 21.67C327.911 22.0733 328.021 22.495 328.021 22.935C328.021 23.3017 327.838 23.595 327.471 23.815C327.141 24.035 326.72 24.2183 326.206 24.365C325.693 24.475 325.106 24.5483 324.446 24.585C323.823 24.6217 323.236 24.64 322.686 24.64C321.073 24.64 319.57 24.5117 318.176 24.255C316.82 23.9617 315.445 23.815 314.051 23.815C313.831 23.815 313.538 23.8517 313.171 23.925C313.281 25.135 313.336 26.3633 313.336 27.61C313.336 29.2967 313.281 31.0017 313.171 32.725C313.061 34.4117 313.006 36.0983 313.006 37.785C313.006 38.0417 313.025 38.3717 313.061 38.775C313.098 39.1783 313.116 39.5817 313.116 39.985C313.116 40.4983 313.043 40.9567 312.896 41.36C312.786 41.7633 312.493 41.965 312.016 41.965V27.335C311.906 28.435 311.833 29.535 311.796 30.635C311.796 31.6983 311.796 32.7617 311.796 33.825V39.545C311.796 40.315 311.76 41.1217 311.686 41.965L310.861 41.8V42.79C310.715 43.0467 310.513 43.285 310.256 43.505C310.036 43.6883 309.78 43.78 309.486 43.78C309.12 43.78 308.826 43.7067 308.606 43.56C308.386 43.3767 308.203 43.1567 308.056 42.9C307.946 42.6433 307.873 42.3683 307.836 42.075C307.8 41.745 307.781 41.4517 307.781 41.195C307.781 39.6183 307.855 38.0233 308.001 36.41C308.148 34.7967 308.221 33.1833 308.221 31.57C308.221 30.58 308.166 29.59 308.056 28.6C307.946 27.61 307.818 26.62 307.671 25.63C307.708 27.17 307.745 28.6917 307.781 30.195C307.855 31.6617 307.891 33.1467 307.891 34.65C307.891 35.9333 307.855 37.1983 307.781 38.445C307.708 39.655 307.561 40.8833 307.341 42.13C306.865 41.5433 306.626 40.92 306.626 40.26C306.626 39.4167 306.645 38.555 306.681 37.675C306.755 36.795 306.791 35.9333 306.791 35.09H307.506C307.286 33.88 307.158 32.67 307.121 31.46L307.011 27.775C306.975 26.5283 306.92 25.3 306.846 24.09C306.773 22.8433 306.59 21.615 306.296 20.405L305.966 20.57C306.48 24.8967 306.755 29.26 306.791 33.66C306.681 30.14 306.425 26.6567 306.021 23.21C305.618 19.5433 305.27 15.8583 304.976 12.155C304.903 11.9717 304.848 11.77 304.811 11.55C304.811 11.2933 304.811 11.055 304.811 10.835C304.811 10.1383 304.83 9.47833 304.866 8.855C304.94 8.195 304.976 7.49833 304.976 6.765L306.351 6.655C306.755 6.655 306.975 6.875 307.011 7.315C307.085 7.71833 307.121 8.04833 307.121 8.305H307.836C307.91 7.82833 308.075 7.315 308.331 6.765C308.625 6.17833 309.028 5.79333 309.541 5.61L309.486 5.445L308.991 5.61C308.625 5.42667 308.35 5.17 308.166 4.84C308.02 4.47333 307.946 4.08833 307.946 3.685C307.946 3.50166 307.983 3.31833 308.056 3.135C308.13 2.95167 308.166 2.76833 308.166 2.585ZM312.566 18.975C313.19 18.975 313.795 19.0117 314.381 19.085C315.005 19.1217 315.628 19.14 316.251 19.14H316.746L318.946 19.085C317.883 18.9383 316.82 18.8833 315.756 18.92C314.693 18.9567 313.63 18.9017 312.566 18.755V18.975ZM317.846 1.21C316.636 1.06333 315.426 0.95333 314.216 0.879998C316.123 0.95333 318.048 1.1 319.991 1.32C320.468 1.35666 320.926 1.39333 321.366 1.43C320.156 1.43 318.983 1.35666 317.846 1.21ZM310.971 6.38C311.191 6.30666 311.576 6.25166 312.126 6.215C312.713 6.17833 313.135 6.14167 313.391 6.105H312.071C311.485 6.105 311.063 6.12333 310.806 6.16L310.971 6.38ZM314.711 22.77C315.115 22.8433 315.518 22.8983 315.921 22.935C316.215 22.9717 316.508 23.0267 316.801 23.1C316.508 23.0267 316.233 22.9533 315.976 22.88C315.646 22.8067 315.28 22.77 314.876 22.77H314.711ZM321.641 1.43H321.366C321.44 1.43 321.531 1.44833 321.641 1.485V1.43ZM317.076 23.1C317.003 23.1 316.911 23.1 316.801 23.1C316.911 23.1 317.003 23.1 317.076 23.1ZM350.851 29.59C349.861 29.59 349.11 29.5717 348.596 29.535C348.12 29.4983 347.68 29.48 347.276 29.48C346.176 29.48 345.205 29.535 344.361 29.645C343.518 29.755 342.803 29.975 342.216 30.305C341.63 30.635 341.19 31.1117 340.896 31.735C340.603 32.3583 340.456 33.1833 340.456 34.21C340.456 35.7133 340.621 36.8317 340.951 37.565C341.318 38.2617 341.813 38.775 342.436 39.105C343.096 39.3983 343.885 39.5817 344.801 39.655C345.718 39.7283 346.745 39.8933 347.881 40.15C348.541 40.2233 349.201 40.2783 349.861 40.315C350.521 40.315 351.181 40.315 351.841 40.315H355.801C353.968 40.205 352.135 40.15 350.301 40.15C348.505 40.1133 346.873 39.9483 345.406 39.655C343.976 39.3617 342.803 38.8483 341.886 38.115C341.006 37.3817 340.566 36.2633 340.566 34.76C340.566 33.55 340.713 32.6333 341.006 32.01C341.336 31.35 341.758 30.8733 342.271 30.58C342.821 30.25 343.463 30.0667 344.196 30.03C344.93 29.9567 345.718 29.92 346.561 29.92C347.588 29.92 348.633 29.975 349.696 30.085C348.853 30.3417 347.991 30.5433 347.111 30.69C346.268 30.8 345.48 30.9283 344.746 31.075C344.013 31.185 343.371 31.35 342.821 31.57C342.308 31.7533 341.96 32.0283 341.776 32.395V34.87L341.336 35.09C341.483 36.0067 341.611 36.7033 341.721 37.18C341.868 37.62 342.235 37.9683 342.821 38.225C343.408 38.445 344.343 38.6283 345.626 38.775C346.946 38.9217 348.853 39.16 351.346 39.49H355.306C356.003 39.49 356.406 39.4717 356.516 39.435C356.663 39.3617 356.755 39.325 356.791 39.325L356.296 36.355C356.223 35.6217 356.131 34.9617 356.021 34.375C355.911 33.7883 355.765 33.165 355.581 32.505C355.545 32.615 355.435 32.67 355.251 32.67C355.435 33.2933 355.581 33.9533 355.691 34.65C355.838 35.3467 355.948 36.0067 356.021 36.63C356.131 37.2533 356.205 37.785 356.241 38.225C356.315 38.665 356.388 38.9217 356.461 38.995L356.131 39.105C356.058 39.1417 355.948 39.16 355.801 39.16H355.471C355.215 39.16 354.921 39.1417 354.591 39.105C354.261 39.0317 353.84 38.995 353.326 38.995H351.511C350.081 38.995 348.761 38.9217 347.551 38.775C346.415 38.6283 345.425 38.445 344.581 38.225C345.425 38.4083 346.451 38.555 347.661 38.665C348.945 38.8117 350.136 38.885 351.236 38.885C351.713 38.885 352.208 38.885 352.721 38.885C353.271 38.8483 353.858 38.83 354.481 38.83H356.296C356.186 38.72 356.058 38.665 355.911 38.665H355.801C355.655 36.135 355.325 33.715 354.811 31.405C354.298 29.095 353.473 27.0783 352.336 25.355C351.2 23.595 349.715 22.2017 347.881 21.175C346.048 20.1117 343.756 19.58 341.006 19.58C340.236 19.58 339.466 19.635 338.696 19.745C337.926 19.855 337.138 20.0017 336.331 20.185C336.405 20.1117 336.441 20.0383 336.441 19.965C336.441 19.7817 336.368 19.6167 336.221 19.47C336.075 19.2867 336.001 19.1033 336.001 18.92C336.001 18.7 336.221 18.4983 336.661 18.315C337.138 18.095 338.128 17.8933 339.631 17.71C339.558 17.6367 339.503 17.5267 339.466 17.38C339.466 17.2333 339.466 17.1233 339.466 17.05C337.486 17.05 335.946 17.0133 334.846 16.94C333.746 16.83 333.196 16.555 333.196 16.115C333.196 15.9317 333.416 15.675 333.856 15.345C334.333 15.015 334.993 14.7033 335.836 14.41C336.68 14.08 337.688 13.805 338.861 13.585C340.071 13.3283 341.41 13.2 342.876 13.2C345.7 13.2 348.12 13.64 350.136 14.52C352.153 15.3633 353.84 16.5 355.196 17.93C356.59 19.3233 357.708 20.9183 358.551 22.715C359.431 24.5117 360.128 26.3267 360.641 28.16C361.191 29.9567 361.595 31.7167 361.851 33.44C362.108 35.1267 362.346 36.5933 362.566 37.84C362.566 38.06 362.566 38.28 362.566 38.5C362.603 38.72 362.621 38.9767 362.621 39.27C362.621 40.3333 362.42 41.2683 362.016 42.075C361.65 42.845 361.118 43.4867 360.421 44C359.761 44.55 358.973 44.9533 358.056 45.21C357.176 45.5033 356.223 45.65 355.196 45.65C354.39 45.65 353.345 45.6317 352.061 45.595C350.778 45.5583 349.55 45.4483 348.376 45.265C347.606 45.0817 346.763 44.935 345.846 44.825C344.93 44.7517 343.995 44.605 343.041 44.385C342.088 44.165 341.153 43.8533 340.236 43.45C339.356 43.0467 338.55 42.4417 337.816 41.635C337.12 40.7917 336.551 39.71 336.111 38.39C335.708 37.07 335.506 35.4017 335.506 33.385C335.506 31.4783 335.946 29.9567 336.826 28.82C337.706 27.6467 338.751 26.7483 339.961 26.125C341.208 25.465 342.473 25.0433 343.756 24.86C345.04 24.64 346.085 24.53 346.891 24.53C347.918 24.53 348.596 24.6033 348.926 24.75C349.256 24.8967 349.421 25.0433 349.421 25.19C349.421 25.3 349.403 25.3917 349.366 25.465C348.45 25.465 347.276 25.5017 345.846 25.575C344.416 25.6483 343.023 25.8867 341.666 26.29C340.346 26.6933 339.21 27.3167 338.256 28.16C337.303 28.9667 336.826 30.1217 336.826 31.625C337.156 30.2683 337.706 29.205 338.476 28.435C339.283 27.6283 340.2 27.0417 341.226 26.675C342.253 26.2717 343.298 26.0333 344.361 25.96C345.461 25.85 346.451 25.795 347.331 25.795H349.201C349.055 25.9417 348.981 26.0883 348.981 26.235C348.981 26.3817 349.055 26.51 349.201 26.62H351.346C351.933 26.73 352.355 26.9317 352.611 27.225C352.868 27.4817 352.996 27.72 352.996 27.94C352.996 28.27 352.831 28.5633 352.501 28.82C352.171 29.0767 351.621 29.3333 350.851 29.59ZM341.611 42.9C342.638 43.3033 343.683 43.615 344.746 43.835C345.846 44.055 346.928 44.2017 347.991 44.275C349.055 44.385 350.045 44.44 350.961 44.44C350.228 44.3667 349.495 44.2383 348.761 44.055C347.991 43.8717 347.313 43.7067 346.726 43.56C346.103 43.4133 345.48 43.3217 344.856 43.285C344.27 43.2117 343.646 43.12 342.986 43.01C342.363 42.9 341.721 42.735 341.061 42.515C340.401 42.2583 339.741 41.8917 339.081 41.415C339.778 42.0383 340.621 42.5333 341.611 42.9ZM342.161 37.125C342.125 37.0883 342.235 37.1983 342.491 37.455C342.711 37.675 343.005 37.84 343.371 37.95C343.188 37.8767 342.913 37.785 342.546 37.675C342.143 37.5283 341.941 37.3083 341.941 37.015L342.161 37.125ZM343.536 37.95C343.5 37.95 343.445 37.95 343.371 37.95C343.408 37.95 343.463 37.95 343.536 37.95ZM378.444 44.605C378.078 44.6783 377.674 44.715 377.234 44.715H375.639C374.686 44.715 374.008 44.825 373.604 45.045C373.238 45.265 373.018 45.375 372.944 45.375L372.724 44.385V43.395L372.449 38.225C372.376 37.235 372.174 36.1717 371.844 35.035C371.514 33.8983 371.258 32.7433 371.074 31.57C370.964 30.8 370.873 30.0667 370.799 29.37L370.579 27.225C370.506 26.4917 370.414 25.74 370.304 24.97C370.231 24.2 370.103 23.375 369.919 22.495C369.919 22.275 369.919 22.055 369.919 21.835C369.956 21.615 369.974 21.395 369.974 21.175C369.974 20.0383 369.883 18.92 369.699 17.82C369.516 16.72 369.259 15.6383 368.929 14.575C369.186 14.465 369.424 14.3733 369.644 14.3C369.864 14.19 370.066 14.135 370.249 14.135C370.433 14.135 370.634 14.355 370.854 14.795C371.074 15.1983 371.313 16.06 371.569 17.38C371.643 17.38 371.753 17.3617 371.899 17.325C372.046 17.2517 372.156 17.215 372.229 17.215C372.193 16.5917 372.101 15.9317 371.954 15.235C371.808 14.5017 371.661 13.805 371.514 13.145C371.368 12.485 371.221 11.8983 371.074 11.385C370.964 10.835 370.909 10.395 370.909 10.065C370.909 9.99167 370.909 9.9 370.909 9.79C370.946 9.68 371.038 9.625 371.184 9.625C371.368 9.625 371.606 9.82667 371.899 10.23C372.193 10.6333 372.504 11.1467 372.834 11.77C373.164 12.3933 373.476 13.0717 373.769 13.805C374.099 14.5017 374.393 15.1617 374.649 15.785C375.639 13.915 376.758 12.5033 378.004 11.55C379.288 10.56 380.956 10.065 383.009 10.065C384.513 10.065 385.741 10.2483 386.694 10.615C387.648 10.945 388.381 11.33 388.894 11.77C389.444 12.1733 389.811 12.5583 389.994 12.925L390.324 13.475C390.324 13.695 390.214 13.8417 389.994 13.915C389.041 12.9983 387.959 12.3017 386.749 11.825C385.539 11.3483 384.293 11.11 383.009 11.11C381.763 11.11 380.828 11.275 380.204 11.605C379.618 11.8983 378.994 12.265 378.334 12.705C379.031 12.265 379.673 11.9167 380.259 11.66C380.883 11.4033 381.781 11.275 382.954 11.275C384.238 11.275 385.466 11.5317 386.639 12.045C387.813 12.5217 388.821 13.145 389.664 13.915C389.481 13.9883 389.316 14.08 389.169 14.19C389.059 14.2633 389.004 14.3917 389.004 14.575C389.188 14.575 389.389 14.7033 389.609 14.96C389.829 15.18 390.031 15.455 390.214 15.785C390.398 16.115 390.544 16.4633 390.654 16.83C390.801 17.16 390.874 17.435 390.874 17.655C390.874 18.2783 390.636 18.59 390.159 18.59C389.793 18.59 389.353 18.4617 388.839 18.205C388.729 18.1683 388.491 17.9667 388.124 17.6C387.794 17.2333 387.373 16.8667 386.859 16.5C386.346 16.0967 385.759 15.73 385.099 15.4C384.439 15.07 383.706 14.905 382.899 14.905C382.239 14.905 381.653 15.0517 381.139 15.345C380.663 15.6017 380.223 15.9683 379.819 16.445C379.416 16.885 379.049 17.3983 378.719 17.985L378.004 19.305C378.554 18.315 379.159 17.4167 379.819 16.61C380.553 15.6567 381.469 15.18 382.569 15.18C383.523 15.18 384.403 15.4 385.209 15.84C386.016 16.2433 386.676 16.7567 387.189 17.38C386.566 17.1233 385.833 16.8667 384.989 16.61C384.146 16.3533 383.339 16.225 382.569 16.225C382.166 16.225 381.818 16.3167 381.524 16.5C381.231 16.6833 380.974 16.9217 380.754 17.215C380.571 17.4717 380.388 17.765 380.204 18.095C380.058 18.425 379.893 18.7367 379.709 19.03L378.994 19.14C378.371 20.2033 377.858 21.45 377.454 22.88C377.088 24.2733 376.904 25.74 376.904 27.28C376.904 28.1967 376.941 29.0217 377.014 29.755C377.124 30.4883 377.271 31.24 377.454 32.01L378.114 33.715L378.004 32.12C377.931 30.8733 377.858 29.7733 377.784 28.82C377.711 27.83 377.674 26.7483 377.674 25.575C377.748 24.5117 377.894 23.5033 378.114 22.55C378.298 21.7433 378.573 20.9917 378.939 20.295C378.499 21.175 378.206 22.1833 378.059 23.32C377.876 24.5667 377.784 25.8867 377.784 27.28C377.784 28.38 377.839 29.425 377.949 30.415C378.059 31.405 378.188 32.395 378.334 33.385C378.518 34.375 378.701 35.4017 378.884 36.465C379.068 37.4917 379.214 38.6283 379.324 39.875L379.489 40.92L379.819 44.055L378.444 44.605ZM379.104 20.02L378.939 20.295L379.104 20.02ZM417.671 41.36C417.671 40.15 417.58 38.9217 417.396 37.675C417.25 36.4283 417.176 35.2183 417.176 34.045V32.56C416.993 31.13 416.773 29.4617 416.516 27.555C416.26 25.6117 415.93 23.7783 415.526 22.055C415.123 20.3317 414.628 18.865 414.041 17.655C413.455 16.445 412.721 15.84 411.841 15.84C410.558 15.84 409.238 16.445 407.881 17.655C406.525 18.8283 405.388 20.5517 404.471 22.825C404.031 24.1083 403.72 25.465 403.536 26.895C403.39 28.325 403.261 29.8283 403.151 31.405C403.041 32.9817 402.931 34.6133 402.821 36.3C402.748 37.95 402.583 39.6733 402.326 41.47C402.253 41.6533 402.18 41.8733 402.106 42.13C402.07 42.3867 402.033 42.6067 401.996 42.79H395.231V38.335C395.195 37.9683 395.158 37.5283 395.121 37.015C395.085 36.5017 395.03 35.9883 394.956 35.475C394.92 34.925 394.883 34.3933 394.846 33.88C394.81 33.3667 394.773 32.9267 394.736 32.56C394.736 29.59 394.608 26.62 394.351 23.65C394.131 20.68 393.985 17.655 393.911 14.575L395.176 14.3C395.286 14.3 395.396 14.41 395.506 14.63C395.653 14.8133 395.763 15.18 395.836 15.73C395.946 16.28 396.038 17.0683 396.111 18.095C396.221 19.085 396.313 20.3867 396.386 22C396.423 22 396.478 21.9817 396.551 21.945C396.698 21.8717 396.808 21.835 396.881 21.835C396.881 21.5783 396.863 21.3217 396.826 21.065C396.826 20.8083 396.826 20.5517 396.826 20.295C396.826 17.1417 397.028 14.7217 397.431 13.035C397.871 11.3117 398.238 10.45 398.531 10.45C398.751 10.45 398.971 10.9267 399.191 11.88C399.411 12.8333 399.65 14.3367 399.906 16.39C400.53 15.4 401.245 14.4467 402.051 13.53C402.858 12.6133 403.756 11.825 404.746 11.165C405.773 10.4683 406.873 9.91833 408.046 9.515C409.22 9.11167 410.503 8.91 411.896 8.91C413.106 8.91 414.17 9.16667 415.086 9.68C416.003 10.1933 416.81 10.8717 417.506 11.715C418.24 12.5217 418.845 13.4567 419.321 14.52C419.835 15.5467 420.275 16.5917 420.641 17.655C421.008 18.6817 421.301 19.69 421.521 20.68C421.778 21.6333 421.998 22.44 422.181 23.1C422.181 23.1733 422.2 23.265 422.236 23.375C422.273 23.4483 422.31 23.5217 422.346 23.595C422.786 22.4217 423.336 21.0833 423.996 19.58C424.656 18.04 425.481 16.5917 426.471 15.235C427.461 13.8783 428.616 12.7417 429.936 11.825C431.293 10.8717 432.851 10.395 434.611 10.395C436.335 10.395 437.801 10.8533 439.011 11.77C440.221 12.6867 441.23 13.86 442.036 15.29C442.88 16.72 443.54 18.315 444.016 20.075C444.53 21.7983 444.915 23.5033 445.171 25.19C445.428 26.84 445.593 28.3617 445.666 29.755C445.74 31.1483 445.776 32.2117 445.776 32.945C445.776 34.1183 445.721 34.98 445.611 35.53C445.538 36.08 445.3 36.355 444.896 36.355C444.823 34.8883 444.75 33.4033 444.676 31.9C444.64 30.3967 444.53 28.8933 444.346 27.39C444.2 25.85 443.98 24.3467 443.686 22.88C443.393 21.45 443.008 20.0383 442.531 18.645C443.448 21.5417 443.98 24.4383 444.126 27.335C444.31 30.2683 444.456 33.165 444.566 36.025C444.31 35.7683 444.108 35.64 443.961 35.64C443.851 35.64 443.778 35.7133 443.741 35.86V37.51C443.741 37.9867 443.741 38.4817 443.741 38.995C443.778 39.5083 443.833 39.9483 443.906 40.315C443.833 41.8183 443.76 42.9 443.686 43.56C443.65 44.1833 443.521 44.5867 443.301 44.77C443.008 44.77 442.751 44.605 442.531 44.275C442.311 43.945 442.091 43.5233 441.871 43.01C441.688 42.4967 441.505 41.9283 441.321 41.305C441.138 40.6817 440.955 40.0767 440.771 39.49V38.005C440.771 36.3917 440.753 34.705 440.716 32.945C440.716 31.185 440.643 29.48 440.496 27.83C440.386 26.1433 440.185 24.5483 439.891 23.045C439.635 21.5417 439.268 20.2217 438.791 19.085C438.351 17.9117 437.765 16.995 437.031 16.335C436.335 15.675 435.473 15.345 434.446 15.345C433.603 15.345 432.833 15.565 432.136 16.005C431.733 16.2617 431.33 16.5917 430.926 16.995C431.33 16.6283 431.751 16.3167 432.191 16.06C432.888 15.62 433.64 15.4 434.446 15.4H434.666C435.583 15.4 436.353 15.7667 436.976 16.5C437.636 17.1967 438.168 18.1317 438.571 19.305C439.011 20.4783 439.341 21.8167 439.561 23.32C439.781 24.8233 439.946 26.3817 440.056 27.995C440.203 29.6083 440.295 31.2217 440.331 32.835C440.368 34.4117 440.405 35.86 440.441 37.18C440.221 36.1533 440.02 34.9433 439.836 33.55C439.69 32.12 439.525 30.635 439.341 29.095C439.195 27.555 438.993 26.0333 438.736 24.53C438.516 23.0267 438.223 21.6883 437.856 20.515C437.49 19.305 437.031 18.3333 436.481 17.6C435.931 16.8667 435.253 16.5 434.446 16.5C434.116 16.5 433.823 16.5367 433.566 16.61C433.31 16.6467 432.98 16.83 432.576 17.16L432.026 16.885C430.78 17.985 429.735 19.4517 428.891 21.285C428.048 23.1183 427.333 25.0983 426.746 27.225C426.16 29.315 425.665 31.46 425.261 33.66C424.858 35.86 424.473 37.895 424.106 39.765V41.855C424.693 38.9583 425.225 36.1167 425.701 33.33C426.215 30.5067 426.948 27.775 427.901 25.135C427.168 27.4083 426.6 29.755 426.196 32.175C425.793 34.595 425.335 37.07 424.821 39.6C424.821 39.8567 424.766 40.205 424.656 40.645C424.546 41.085 424.363 41.745 424.106 42.625L418.056 42.02L417.671 41.36ZM418.276 38.61C418.166 37.62 418.056 36.355 417.946 34.815C417.873 33.275 417.763 31.6433 417.616 29.92C417.47 28.1967 417.268 26.455 417.011 24.695C416.755 22.935 416.388 21.3583 415.911 19.965C415.471 18.535 414.903 17.38 414.206 16.5C413.546 15.62 412.703 15.18 411.676 15.18C411.346 15.18 410.998 15.2533 410.631 15.4C410.265 15.5467 409.916 15.7117 409.586 15.895C409.696 15.8583 409.788 15.84 409.861 15.84H409.916C409.916 15.8767 409.861 15.95 409.751 16.06C410.741 15.73 411.511 15.565 412.061 15.565C412.758 15.8217 413.381 16.39 413.931 17.27C414.481 18.15 414.94 19.2133 415.306 20.46C415.71 21.67 416.04 22.99 416.296 24.42C416.59 25.85 416.81 27.225 416.956 28.545C417.103 29.8283 417.213 30.9833 417.286 32.01C417.36 33.0367 417.396 33.77 417.396 34.21C417.506 35.31 417.598 36.3917 417.671 37.455C417.781 38.5183 417.836 39.5817 417.836 40.645L418.276 38.61ZM422.896 23.815C422.896 23.8517 422.933 24.0167 423.006 24.31C423.08 24.5667 423.135 24.7317 423.171 24.805C423.281 24.4383 423.52 23.8517 423.886 23.045C424.253 22.2017 424.656 21.3217 425.096 20.405C425.536 19.4517 425.958 18.5717 426.361 17.765C426.508 17.435 426.636 17.1417 426.746 16.885C426.636 17.105 426.49 17.3433 426.306 17.6C425.903 18.3333 425.463 19.1033 424.986 19.91C424.51 20.68 424.07 21.4317 423.666 22.165C423.263 22.8983 423.006 23.4483 422.896 23.815ZM427.241 23.155C426.508 25.025 425.866 27.005 425.316 29.095C424.766 31.1483 424.271 33.275 423.831 35.475L423.941 36.355C424.418 33.715 424.968 31.0567 425.591 28.38C426.178 26.0333 426.93 23.815 427.846 21.725C427.81 21.835 427.773 21.9267 427.736 22C427.553 22.3667 427.388 22.7517 427.241 23.155ZM418.276 30.635C418.35 31.2217 418.386 31.79 418.386 32.34C418.423 32.89 418.46 33.4033 418.496 33.88L418.661 36.52L418.716 36.245C418.68 35.7317 418.661 35.2367 418.661 34.76V33.385L418.276 30.635ZM436.316 11.77C435.656 11.5867 435.033 11.495 434.446 11.495H433.841C433.585 11.495 433.456 11.5133 433.456 11.55H433.511C434.098 11.6967 434.648 11.77 435.161 11.77H436.316ZM428.176 24.365C428.36 23.8517 428.525 23.3567 428.671 22.88C428.855 22.4033 429.001 22.0733 429.111 21.89C429.111 21.9633 429.075 22.11 429.001 22.33C428.928 22.5867 428.781 22.9717 428.561 23.485L428.176 24.365ZM440.111 14.08C439.928 13.86 439.69 13.64 439.396 13.42C439.176 13.2733 438.975 13.145 438.791 13.035C439.231 13.3283 439.671 13.6767 440.111 14.08ZM427.021 16.39C426.948 16.4633 426.893 16.5733 426.856 16.72C426.93 16.61 426.985 16.5 427.021 16.39ZM471.288 44.99C469.895 45.4667 468.831 45.7233 468.098 45.76C467.365 45.8333 466.723 45.8883 466.173 45.925C464.12 45.925 462.268 45.54 460.618 44.77C458.968 44 457.556 42.955 456.383 41.635C455.21 40.315 454.293 38.775 453.633 37.015C453.01 35.2183 452.698 33.3117 452.698 31.295C452.698 30.1217 452.808 28.9117 453.028 27.665C453.248 26.3817 453.578 25.135 454.018 23.925C454.458 22.6783 455.026 21.5233 455.723 20.46C456.383 19.3967 457.171 18.4433 458.088 17.6C457.135 18.37 456.328 19.2867 455.668 20.35C454.971 21.4133 454.385 22.5683 453.908 23.815C453.431 25.025 453.083 26.29 452.863 27.61C452.643 28.8933 452.533 30.14 452.533 31.35C452.533 32.89 452.771 34.54 453.248 36.3C453.761 38.0233 454.568 39.6367 455.668 41.14C456.768 42.6067 458.18 43.835 459.903 44.825C461.663 45.815 463.79 46.31 466.283 46.31C467.456 46.31 468.685 46.145 469.968 45.815C468.575 46.7317 467.016 47.19 465.293 47.19C463.9 47.19 462.58 46.97 461.333 46.53C460.123 46.1267 458.986 45.54 457.923 44.77C456.896 44.0367 455.961 43.1567 455.118 42.13C454.275 41.1033 453.56 40.0033 452.973 38.83L453.468 38.39C452.845 37.1433 452.386 35.8967 452.093 34.65C451.836 33.4033 451.708 32.1383 451.708 30.855C451.708 28.985 451.965 27.1883 452.478 25.465C453.028 23.7417 453.743 22.11 454.623 20.57L455.943 18.755C456.163 18.3517 456.475 17.9483 456.878 17.545C457.318 17.1417 457.795 16.7567 458.308 16.39C458.821 15.9867 459.353 15.6383 459.903 15.345C460.49 15.015 461.04 14.7217 461.553 14.465C462.873 13.805 464.193 13.2183 465.513 12.705C466.833 12.155 468.373 11.7517 470.133 11.495L469.913 11.33C466.54 11.66 463.68 12.485 461.333 13.805C458.986 15.0883 457.08 16.665 455.613 18.535C454.146 20.405 453.083 22.4583 452.423 24.695C451.763 26.895 451.433 29.0583 451.433 31.185C451.433 32.3217 451.525 33.4767 451.708 34.65C451.928 35.7867 452.24 36.9233 452.643 38.06C451.726 35.86 451.268 33.5317 451.268 31.075C451.268 28.655 451.671 26.2533 452.478 23.87C453.285 21.4867 454.55 19.2867 456.273 17.27C458.473 15.2533 460.875 13.7133 463.478 12.65C466.081 11.55 468.593 11 471.013 11C471.783 11 472.571 11.1283 473.378 11.385C474.185 11.6417 474.918 12.045 475.578 12.595C476.238 13.1083 476.77 13.7867 477.173 14.63C477.613 15.4733 477.833 16.5 477.833 17.71C477.833 18.7 477.595 19.91 477.118 21.34C476.641 22.77 475.926 24.1633 474.973 25.52C474.056 26.84 472.901 27.9767 471.508 28.93C470.115 29.8467 468.501 30.305 466.668 30.305H464.853C463.496 30.0117 462.25 29.6817 461.113 29.315C460.013 28.9117 458.968 28.6 457.978 28.38C457.831 28.9667 457.74 29.535 457.703 30.085C457.703 30.5983 457.703 31.1117 457.703 31.625C457.703 32.6883 457.813 33.7333 458.033 34.76C458.29 35.75 458.675 36.6667 459.188 37.51C459.701 38.3533 460.343 39.0683 461.113 39.655C461.92 40.205 462.891 40.5533 464.028 40.7C464.725 40.8467 465.33 40.9383 465.843 40.975C466.356 40.975 466.778 40.9933 467.108 41.03C467.475 41.03 467.731 41.085 467.878 41.195C468.061 41.2683 468.153 41.4333 468.153 41.69C467.786 41.8 467.401 41.8733 466.998 41.91C466.631 41.9467 466.246 41.965 465.843 41.965C464.56 41.965 463.405 41.7633 462.378 41.36C461.351 40.92 460.471 40.425 459.738 39.875C460.581 40.7183 461.59 41.3233 462.763 41.69C463.936 42.02 465.091 42.185 466.228 42.185C466.851 42.185 467.493 42.13 468.153 42.02C468.08 42.24 468.043 42.3683 468.043 42.405C468.043 42.625 468.135 42.7717 468.318 42.845C468.465 42.8083 468.721 42.7167 469.088 42.57C469.455 42.3867 469.821 42.2217 470.188 42.075C470.591 41.8917 470.976 41.745 471.343 41.635C471.71 41.4883 471.966 41.415 472.113 41.415C472.296 41.415 472.461 41.4517 472.608 41.525C472.755 41.5617 472.828 41.7633 472.828 42.13C472.828 42.4967 472.7 42.9367 472.443 43.45C472.186 43.9633 471.801 44.4767 471.288 44.99ZM463.698 23.21L464.908 23.43C465.311 23.5033 465.678 23.54 466.008 23.54C466.375 23.54 466.796 23.43 467.273 23.21C467.786 22.9533 468.281 22.605 468.758 22.165C469.271 21.725 469.711 21.175 470.078 20.515C470.481 19.855 470.775 19.1033 470.958 18.26L471.068 17.93C470.555 17.93 469.785 18.0583 468.758 18.315C467.731 18.5717 466.668 18.92 465.568 19.36C464.468 19.7633 463.441 20.2583 462.488 20.845C461.535 21.395 460.875 22 460.508 22.66C461.058 22.77 461.59 22.88 462.103 22.99C462.653 23.0633 463.185 23.1367 463.698 23.21ZM461.168 27.28C461.241 27.2067 461.278 27.0967 461.278 26.95C461.315 26.8033 461.333 26.6933 461.333 26.62L458.748 25.685L458.473 26.455L461.168 27.28ZM459.628 39.765C459.371 39.4717 459.115 39.1783 458.858 38.885C458.638 38.6283 458.455 38.3717 458.308 38.115C458.638 38.7383 459.078 39.2883 459.628 39.765ZM492.311 44.605C491.945 44.6783 491.541 44.715 491.101 44.715H489.506C488.553 44.715 487.875 44.825 487.471 45.045C487.105 45.265 486.885 45.375 486.811 45.375L486.591 44.385V43.395L486.316 38.225C486.243 37.235 486.041 36.1717 485.711 35.035C485.381 33.8983 485.125 32.7433 484.941 31.57C484.831 30.8 484.74 30.0667 484.666 29.37L484.446 27.225C484.373 26.4917 484.281 25.74 484.171 24.97C484.098 24.2 483.97 23.375 483.786 22.495C483.786 22.275 483.786 22.055 483.786 21.835C483.823 21.615 483.841 21.395 483.841 21.175C483.841 20.0383 483.75 18.92 483.566 17.82C483.383 16.72 483.126 15.6383 482.796 14.575C483.053 14.465 483.291 14.3733 483.511 14.3C483.731 14.19 483.933 14.135 484.116 14.135C484.3 14.135 484.501 14.355 484.721 14.795C484.941 15.1983 485.18 16.06 485.436 17.38C485.51 17.38 485.62 17.3617 485.766 17.325C485.913 17.2517 486.023 17.215 486.096 17.215C486.06 16.5917 485.968 15.9317 485.821 15.235C485.675 14.5017 485.528 13.805 485.381 13.145C485.235 12.485 485.088 11.8983 484.941 11.385C484.831 10.835 484.776 10.395 484.776 10.065C484.776 9.99167 484.776 9.9 484.776 9.79C484.813 9.68 484.905 9.625 485.051 9.625C485.235 9.625 485.473 9.82667 485.766 10.23C486.06 10.6333 486.371 11.1467 486.701 11.77C487.031 12.3933 487.343 13.0717 487.636 13.805C487.966 14.5017 488.26 15.1617 488.516 15.785C489.506 13.915 490.625 12.5033 491.871 11.55C493.155 10.56 494.823 10.065 496.876 10.065C498.38 10.065 499.608 10.2483 500.561 10.615C501.515 10.945 502.248 11.33 502.761 11.77C503.311 12.1733 503.678 12.5583 503.861 12.925L504.191 13.475C504.191 13.695 504.081 13.8417 503.861 13.915C502.908 12.9983 501.826 12.3017 500.616 11.825C499.406 11.3483 498.16 11.11 496.876 11.11C495.63 11.11 494.695 11.275 494.071 11.605C493.485 11.8983 492.861 12.265 492.201 12.705C492.898 12.265 493.54 11.9167 494.126 11.66C494.75 11.4033 495.648 11.275 496.821 11.275C498.105 11.275 499.333 11.5317 500.506 12.045C501.68 12.5217 502.688 13.145 503.531 13.915C503.348 13.9883 503.183 14.08 503.036 14.19C502.926 14.2633 502.871 14.3917 502.871 14.575C503.055 14.575 503.256 14.7033 503.476 14.96C503.696 15.18 503.898 15.455 504.081 15.785C504.265 16.115 504.411 16.4633 504.521 16.83C504.668 17.16 504.741 17.435 504.741 17.655C504.741 18.2783 504.503 18.59 504.026 18.59C503.66 18.59 503.22 18.4617 502.706 18.205C502.596 18.1683 502.358 17.9667 501.991 17.6C501.661 17.2333 501.24 16.8667 500.726 16.5C500.213 16.0967 499.626 15.73 498.966 15.4C498.306 15.07 497.573 14.905 496.766 14.905C496.106 14.905 495.52 15.0517 495.006 15.345C494.53 15.6017 494.09 15.9683 493.686 16.445C493.283 16.885 492.916 17.3983 492.586 17.985L491.871 19.305C492.421 18.315 493.026 17.4167 493.686 16.61C494.42 15.6567 495.336 15.18 496.436 15.18C497.39 15.18 498.27 15.4 499.076 15.84C499.883 16.2433 500.543 16.7567 501.056 17.38C500.433 17.1233 499.7 16.8667 498.856 16.61C498.013 16.3533 497.206 16.225 496.436 16.225C496.033 16.225 495.685 16.3167 495.391 16.5C495.098 16.6833 494.841 16.9217 494.621 17.215C494.438 17.4717 494.255 17.765 494.071 18.095C493.925 18.425 493.76 18.7367 493.576 19.03L492.861 19.14C492.238 20.2033 491.725 21.45 491.321 22.88C490.955 24.2733 490.771 25.74 490.771 27.28C490.771 28.1967 490.808 29.0217 490.881 29.755C490.991 30.4883 491.138 31.24 491.321 32.01L491.981 33.715L491.871 32.12C491.798 30.8733 491.725 29.7733 491.651 28.82C491.578 27.83 491.541 26.7483 491.541 25.575C491.615 24.5117 491.761 23.5033 491.981 22.55C492.165 21.7433 492.44 20.9917 492.806 20.295C492.366 21.175 492.073 22.1833 491.926 23.32C491.743 24.5667 491.651 25.8867 491.651 27.28C491.651 28.38 491.706 29.425 491.816 30.415C491.926 31.405 492.055 32.395 492.201 33.385C492.385 34.375 492.568 35.4017 492.751 36.465C492.935 37.4917 493.081 38.6283 493.191 39.875L493.356 40.92L493.686 44.055L492.311 44.605ZM492.971 20.02L492.806 20.295L492.971 20.02Z" fill="#1F1E17"/>
</svg>
