<svg viewBox="0 0 507 507" fill="none" xmlns="http://www.w3.org/2000/svg">
<circle cx="253.394" cy="253.394" r="253.394" fill="#FFEB3B" fill-opacity="0.48"/>
<path d="M267.933 150.43C271.176 149.989 274.536 148.784 276.642 148C279.336 147.001 282.716 145.757 285.243 143.808C286.801 152.066 290.082 160.246 296.891 162.724C290.758 171.609 284.019 175.9 276.662 175.596C269.305 175.293 263.202 171.306 258.333 163.645C262.839 162.078 266.043 157.669 267.933 150.43Z" fill="#F5915C"/>
<path d="M291.033 90.5262C285.831 90.1442 281.06 88.469 276.152 86.8037C270.618 84.9228 264.769 84.3742 259.234 82.5717C258.049 82.1897 256.903 81.7194 255.767 81.2198C259.264 74.0098 264.877 62.8814 266.954 61.3826C270.059 59.1392 283.5 54.8289 285.909 55.0052C288.319 55.1816 299.703 63.2732 301.593 65.5166C302.935 67.1035 303.415 82.0623 303.582 90.6732C299.389 90.7711 295.196 90.8299 291.033 90.5262Z" fill="#F9BE86"/>
<path d="M266.954 61.3826C267.101 61.2749 267.297 61.1573 267.483 61.0496C272.214 63.8807 277.191 65.1542 282.549 66.1632C288.868 67.3485 294.315 69.0628 300.653 66.6824C301.084 66.5256 301.495 66.3395 301.897 66.1436C303.014 69.4253 303.435 82.7481 303.582 90.683C299.389 90.781 295.196 90.8398 291.033 90.5361C285.831 90.154 281.06 88.4789 276.152 86.8135C270.618 84.9327 264.769 84.3841 259.234 82.5816C258.049 82.1995 256.903 81.7293 255.767 81.2297C259.264 74.0197 264.877 62.8912 266.954 61.3924V61.3826Z" fill="#F6A556"/>
<path d="M269.452 68.5338C274.448 66.555 269.893 78.5651 269.618 85.0698C266.768 84.4526 263.907 83.904 261.105 83.1301C262.477 77.8304 266.444 69.7289 269.462 68.5338H269.452Z" fill="#E0812E"/>
<path d="M290.935 90.5164C290.171 90.4576 289.417 90.3695 288.662 90.2519C288.496 90.2225 288.319 90.1931 288.153 90.1736C287.555 90.0756 286.968 89.9678 286.38 89.8405C286.203 89.8013 286.027 89.7719 285.851 89.7327C285.194 89.5858 284.548 89.429 283.901 89.2527C283.833 89.2331 283.754 89.2135 283.686 89.1939C282.922 88.9882 282.167 88.7727 281.403 88.5376C283.098 83.5219 284.078 78.5455 284.499 73.2164C284.607 71.9233 286.252 71.3257 287.056 72.3543C289.867 75.9397 290.553 87.6461 290.935 90.5164Z" fill="#E0812E"/>
<path d="M255.767 116.76C188.957 97.0603 212.546 80.2206 241.729 78.379C270.912 76.5373 350.976 94.9345 331.932 118.083C321.244 131.063 300.369 132.924 269.305 123.657C266.954 121.032 262.438 118.729 255.757 116.76H255.767Z" fill="#D27C3B"/>
<path d="M263.124 111.284C223.645 99.6465 237.585 89.6935 254.836 88.6062C272.077 87.5188 319.383 98.3925 308.127 112.058C301.809 119.729 289.476 120.826 271.127 115.35C269.736 113.792 267.072 112.44 263.124 111.275V111.284Z" fill="#A94F25"/>
<path d="M290.935 95.6203C292.14 119.67 289.759 134.991 283.784 141.584C274.82 151.468 248.39 153.075 244.256 149.852C240.122 146.639 234.832 134.913 235.753 133.992C236.674 133.071 249.027 107.395 249.889 101.88C250.751 96.3648 253.837 89.1254 257.295 88.6062C260.743 88.087 289.426 87.6266 290.945 95.6203H290.935Z" fill="#F9A577"/>
<path d="M238.673 128.467C244.188 127.027 249.282 126.184 253.955 125.949C254.131 126.312 254.366 126.635 254.689 126.89C256.374 128.575 260.567 128.32 262.458 128.31C263.153 128.3 263.565 127.879 263.721 127.37C269.07 129.123 273.684 131.592 276.31 132.62C278.171 133.355 281.629 131.749 282.393 128.467C282.736 126.988 283.059 125.822 283.363 124.881C289.172 108.003 289.358 96.6292 283.941 90.7515C285.048 90.8103 286.086 90.9572 287.076 91.1532C292.13 91.9075 296.568 93.9647 300.389 97.3346C306.403 102.634 307.638 111.578 303.719 118.573C302.945 119.964 302.073 121.639 301.241 123.539C299.556 127.37 300.33 131.817 303.572 136.872C299.066 138.87 294.276 138.91 289.211 136.97C288.516 141.525 287.213 146.169 284.695 147.902C279.18 151.694 254.934 159.619 244.364 158.933C231.404 147.883 229.503 137.724 238.663 128.467H238.673Z" fill="#823900"/>
<path d="M273.429 95.3166C281.766 97.9126 285.841 100.273 285.665 102.38C285.4 105.544 284.333 107.346 282.07 106.357C279.807 105.367 269.971 102.536 269.589 101.459C269.207 100.381 271.362 94.6113 273.429 95.3166Z" fill="#823900"/>
<path d="M250.79 100.851C249.663 100.695 248.772 99.8325 248.606 98.706C248.282 96.6292 248.047 93.3083 249.389 93.0242C251.28 92.6324 261.703 92.8479 261.732 94.9247C261.762 97.0015 260.508 100.538 259.254 100.626C258.274 100.695 253.641 101.233 250.8 100.851H250.79Z" fill="#823900"/>
<path d="M281.413 112.401C279.757 119.239 276.858 122.08 272.724 120.934C268.59 119.787 267.924 116.427 270.745 110.853C270.833 115.33 271.832 117.485 273.742 117.319C276.603 117.064 279.512 114.821 281.413 112.411V112.401Z" fill="#3C3A32"/>
<path d="M257.285 108.551C255.689 115.144 252.789 117.985 248.596 117.084C245.207 116.349 245.02 113.195 248.038 107.611C247.93 111.725 248.459 113.675 249.615 113.459C252.446 112.94 255.385 110.961 257.295 108.541L257.285 108.551Z" fill="#3C3A32"/>
<path d="M224.037 225.116C215.416 237.371 207.834 243.464 201.29 243.386C194.736 243.308 184.107 238.948 169.403 230.288L177.848 214.262C181.12 216.672 199.389 218.053 202.495 214.262C205.6 210.471 224.037 180.308 230.247 173.588C234.381 169.111 241.552 166.172 251.74 164.801L224.037 225.126V225.116Z" fill="#CC3932"/>
<g style="mix-blend-mode:multiply">
<g style="mix-blend-mode:multiply">
<path d="M195.138 234.54C205.933 234.089 209.979 226.047 213.457 216.975C216.974 207.787 222.381 193.915 230.473 187.548C234.372 184.481 236.948 182.258 241.337 180.063C242.796 179.338 244.236 178.565 245.706 177.928L224.037 225.126C215.416 237.381 207.834 243.474 201.29 243.396C194.736 243.317 184.107 238.958 169.403 230.298L171.882 225.606C179.131 229.975 187.125 234.883 195.148 234.54H195.138Z" fill="#CC3932"/>
</g>
</g>
<path d="M265.828 131.22C264.045 134.217 261.194 135.452 257.285 134.923C253.925 134.462 252.485 132.846 252.985 130.064C255.688 132.581 259.96 132.963 265.828 131.22Z" fill="white"/>
<g style="mix-blend-mode:multiply" opacity="0.5">
<path d="M235.537 134.237C235.42 133.963 235.273 133.698 235.126 133.443C235.91 131.768 237.056 130.103 238.662 128.467C244.178 127.027 249.281 126.184 253.954 125.959C254.131 126.322 254.366 126.645 254.689 126.899C255.375 127.585 256.482 127.938 257.677 128.134C256.129 129.701 254.689 131.367 253.327 133.287C251.789 135.461 250.908 136.176 248.223 136.686C245.53 137.205 242.63 137.43 239.887 137.146C240.563 139.448 241.738 141.545 243.521 143.122C243.903 141.388 244.746 139.468 246.597 138.537C246.313 140.996 246.156 143.181 246.137 145.081C248.782 146.756 251.574 147.618 254.483 147.775C255.463 146.198 256.58 144.229 256.932 142.897C257.197 144.582 257.383 146.178 257.471 147.697C259.342 147.511 261.262 147.07 263.221 146.394C264.515 145.953 265.788 145.453 267.042 144.924C267.15 143.181 267.179 141.339 267.022 139.909C268.404 140.957 269.276 142.24 269.618 143.759C271.245 142.965 272.832 142.084 274.33 141.094C269.667 141.261 262.506 138.645 261.203 134.158C260.655 132.278 260.557 130.309 260.586 128.32C261.311 128.32 261.968 128.3 262.457 128.3C263.153 128.291 263.564 127.879 263.721 127.37C269.06 129.123 273.684 131.582 276.309 132.611C277.661 133.14 278.895 131.847 280.453 130.279C280.473 130.348 280.473 130.416 280.492 130.485C280.864 131.886 281.433 133.12 282.197 134.217C283.695 132.993 285.429 132.111 286.928 130.779C287.418 130.348 287.849 129.887 288.26 129.427C288.035 134.501 287.114 144.062 283.353 146.649C278.151 150.224 255.316 157.689 245.363 157.042C236.948 149.852 233.794 142.544 235.9 135.109C235.792 134.854 235.675 134.56 235.528 134.227L235.537 134.237Z" fill="#A46F46"/>
</g>
<path d="M236.791 121.12C237.712 125.136 242.081 125.832 247.822 123.196C250.31 122.05 252.495 122.481 254.18 123.343C253.925 123.559 253.729 123.872 253.69 124.294C253.572 125.401 253.964 126.302 254.709 126.899C254.807 126.997 254.944 127.076 255.061 127.164C250.408 129.515 251.633 134.932 243.58 134.932C237.379 134.932 235.116 130.338 236.801 121.139L236.791 121.12Z" fill="#823900"/>
<path d="M262.937 127.105C269.236 123.148 273.527 122.873 275.839 126.302C278.141 129.731 281.06 130.299 284.587 128.026C282.824 136.049 278.552 139.38 271.773 137.999C265.122 136.647 262.183 133.012 262.937 127.115V127.105Z" fill="#823900"/>
<path d="M254.856 128.731C253.67 128.418 252.985 127.899 252.71 127.389C251.476 125.028 260.704 108.248 260.743 108.15C260.949 107.621 261.546 107.346 262.085 107.562C262.614 107.768 262.879 108.365 262.673 108.904C262.526 109.286 254.552 125.508 254.914 126.439C254.934 126.488 254.983 126.635 255.394 126.743C258.343 127.526 262.526 127.419 263.692 126.527C263.858 126.4 263.858 126.331 263.858 126.302C263.858 124.715 262.693 124.225 262.575 124.176C262.036 123.99 261.752 123.402 261.938 122.863C262.124 122.325 262.722 122.041 263.251 122.227C263.359 122.266 265.925 123.197 265.925 126.302C265.925 126.811 265.759 127.546 264.946 128.173C263.839 129.015 261.86 129.349 259.813 129.349C258.039 129.349 256.217 129.104 254.865 128.741L254.856 128.731Z" fill="#D87452"/>
<path d="M291.679 118.416C294.52 113.841 297.332 112.538 300.124 114.497C304.307 117.436 299.604 128.467 294.697 128.467C292.052 128.467 290.465 128.761 289.916 129.339C291.376 125.44 291.963 121.796 291.679 118.416Z" fill="#FDA170"/>
<path d="M295.833 121.12C295.843 121.864 298.096 124.206 295.833 125.538C292.502 127.497 292.003 124.294 293.031 121.12C294.03 118.034 295.764 116.594 298.253 116.819C297.048 116.535 295.784 118.984 295.823 121.12H295.833Z" fill="#D87452"/>
<path d="M273.742 168.239L298.262 159.707C305.316 163.557 311.193 166.398 315.905 168.239C329.12 184.325 327.994 199.803 312.516 214.663C302.867 223.931 273.791 219.542 225.281 201.507C237.83 179.789 246.646 167.554 251.74 164.791C257.148 163.008 261.223 161.069 263.966 158.972L273.752 168.239H273.742Z" fill="#CC3932"/>
<path d="M228.259 285.607C215.308 276.115 205.199 260.392 213.917 229.828C219.394 210.627 224.605 199.44 229.542 196.276C233.98 197.207 239.054 198.157 244.775 199.137C246.96 190.261 249.918 175.106 247.646 164.958C249.027 164.458 251.153 164.115 254.023 163.929C252.426 179.897 252.025 192.064 252.828 200.439C259.95 201.517 267.365 202.408 272.988 202.536C278.758 202.663 283.705 203.251 288.76 203.819C292.63 193.719 302.005 168.465 301.75 161.343C304.297 161.686 306.315 162.322 307.804 163.243C302.514 176.733 300.398 190.624 301.456 204.936C306.295 205.161 311.713 205.122 318.257 204.554C328.827 242.7 327.524 267.602 314.348 279.24C314.299 279.279 314.26 279.318 314.211 279.357C313.907 297.48 312.937 317.739 309.832 334.853C309.371 337.762 310.126 341.455 312.095 345.942C315.043 352.662 314.005 375.419 306.942 397.646C302.23 412.468 295.167 412.468 285.743 397.646C281.031 379.151 277.984 367.944 276.603 364.036C274.536 358.178 271.783 348.871 274.193 334.392C275.81 324.704 273.488 311.558 271.774 297.529C271.607 297.549 271.431 297.578 271.264 297.598C269.031 313.076 265.573 329.72 267.013 335.313C269.08 343.356 274.742 353.848 263.251 392.219C250.8 398.695 243.198 398.871 240.436 392.739C236.302 383.55 230.013 358.295 231.619 348.411C233.226 338.526 235.988 333.011 234.147 323.362C233.098 317.876 229.542 301.35 228.269 285.607H228.259Z" fill="#004F7A"/>
<g style="mix-blend-mode:multiply" opacity="0.5">
<path d="M259.382 249.646C271.539 250.135 283.755 250.273 295.892 249.43C300.927 249.077 306.07 248.793 311.076 247.912C300.075 254.965 284.626 254.965 271.901 253.554C263.966 252.682 256.08 251.017 248.341 248.95C252.005 249.254 255.688 249.489 259.382 249.636V249.646Z" fill="#004F7A"/>
</g>
<g style="mix-blend-mode:multiply" opacity="0.5">
<path d="M266.131 270.776C285.381 273.372 307.393 272.588 323.096 261.352C321.734 268.689 319.05 275.096 314.358 279.24C314.309 279.279 314.27 279.318 314.221 279.357C314.181 281.944 314.113 284.589 314.035 287.243C314.015 287.968 313.995 288.693 313.966 289.428C313.927 290.466 313.897 291.505 313.858 292.553C313.809 293.993 313.75 295.423 313.682 296.863C313.672 297.118 313.653 297.373 313.643 297.627C313.045 310.392 311.938 323.333 309.842 334.863C309.381 337.772 310.136 341.465 312.105 345.952C313.78 349.772 314.162 358.775 312.898 369.913H309.264C308.48 378.377 306.913 388.066 304.434 397.666C300.604 412.488 294.863 412.488 287.203 397.666C283.373 379.171 280.904 367.964 279.777 364.055C278.455 359.441 276.789 352.672 277.103 342.935C278.073 345.178 279.356 347.176 280.904 348.695C286.733 354.435 295.255 356.728 301.936 351.751C298.419 342.308 296.01 334.118 299.36 323.695C302.162 314.986 303.112 306.444 303.435 297.539C298.498 295.825 293.139 295.462 288.084 297.275C281.08 299.783 277.093 304.397 273.39 310C272.9 306.14 272.362 302.124 271.862 298.039V298.049C271.842 297.882 271.823 297.716 271.803 297.539C271.637 297.559 271.46 297.588 271.294 297.608C271.049 299.312 270.784 301.036 270.52 302.761C270.491 302.966 270.461 303.162 270.422 303.368C270.206 304.759 269.981 306.13 269.766 307.502C269.707 307.855 269.648 308.217 269.589 308.57C267.699 320.306 265.935 331.042 267.042 335.323C268.678 341.691 272.557 349.596 268.414 371.638H265.73C264.799 377.447 263.418 384.226 261.38 392.229C250.83 398.704 244.384 398.881 242.042 392.748C238.535 383.55 233.206 358.305 234.578 348.421C234.636 347.99 234.705 347.607 234.764 347.196C237.781 350.899 241.729 353.534 247.43 354.396C251.946 355.072 256.237 354.191 259.979 352.133C259.94 351.634 259.92 351.134 259.871 350.635C259.088 342.778 256.12 334.882 255.855 327.065C255.532 317.533 258.715 308.599 259.548 299.263C250.751 295.482 238.947 296.736 230.179 301.35C229.415 296.315 228.72 290.927 228.289 285.617C219.247 278.985 211.596 269.307 210.763 253.652C226.496 264.516 251.946 268.866 266.151 270.776H266.131Z" fill="#004F7A"/>
</g>
<path d="M259.46 250.537C271.95 252.271 287.947 253.574 299.967 249.038C308.147 245.952 316.258 242.445 323.939 238.194C324.252 242.543 324.379 246.981 324.183 251.321C313.486 252.085 303.033 256.366 292.326 257.6C280.179 259.001 267.669 257.355 255.522 256.258C245.647 255.367 236.175 252.516 226.751 249.548C221.5 247.892 215.671 246.06 211.214 242.651C211.537 240.163 212.017 237.547 212.654 234.804C215.985 241.672 247.254 248.842 259.45 250.537H259.46Z" fill="#E1C3A9"/>
<path d="M264.358 444.668C269.06 438.447 279.817 431.394 284.705 421.265C286.311 417.934 284.284 401.095 278.621 370.756C294.736 373.195 306.012 372.206 312.448 367.768L312.937 367.719C313.682 379.67 312.399 395.501 309.088 415.221C308.715 417.464 312.134 422.891 312.732 424.096C313.574 425.82 313.888 430.18 311.762 442.64H300.673V438.506C293.472 443.218 288.956 446.431 287.115 448.156C284.999 450.144 275.565 453.749 267.405 452.358C263.829 451.751 262.164 447.558 264.358 444.668Z" fill="#3C3A32"/>
<path d="M323.311 222.246C323.145 221.482 322.488 220.218 321.352 218.455C319.853 215.241 318.472 210.902 317.228 205.435C320.039 194.18 321.528 179.152 315.827 168.857C315.856 168.651 315.876 168.455 315.905 168.239C342.14 187.695 356.178 207.542 358.019 227.761C359.861 247.98 339.132 257.865 295.843 257.404V246.834C315.024 234.324 324.183 226.135 323.321 222.246H323.311Z" fill="#CC3932"/>
<g style="mix-blend-mode:multiply">
<g style="mix-blend-mode:multiply">
<path d="M323.312 222.246C323.145 221.482 322.489 220.218 321.352 218.455C319.854 215.241 318.472 210.902 317.228 205.435C317.845 202.957 318.394 200.292 318.825 197.54C320.667 201.527 322.498 205.533 324.428 209.462C326.241 213.155 328.68 217.103 328.944 221.325C329.581 231.356 321.489 234.785 313.613 238.919C309.225 241.221 304.513 242.641 299.83 244.14C307.677 238.743 324.311 226.703 323.312 222.236V222.246Z" fill="#CC3932"/>
</g>
</g>
<g style="mix-blend-mode:multiply">
<g style="mix-blend-mode:multiply">
<path d="M332.872 246.129C342.169 239.703 347.459 230.798 345.94 219.268C344.461 208.041 337.78 197.099 332.774 187.058C332.431 186.372 332.089 185.657 331.746 184.922C342.11 195.208 354.825 210.872 356.275 226.889C357.715 242.73 338.799 249.234 322.498 251.909C326.113 250.243 329.659 248.343 332.872 246.129Z" fill="#CC3932"/>
</g>
</g>
<g style="mix-blend-mode:screen" opacity="0.5">
<path d="M296.215 378.838C296.842 407.178 295.422 421.618 291.964 422.166C288.506 422.715 286.125 408.216 284.812 378.671C287.546 379.749 291.347 379.798 296.205 378.828L296.215 378.838Z" fill="#3C3A32"/>
</g>
<path d="M215.073 443.63C220.167 437.723 231.639 431.218 237.183 421.432C239.005 418.209 238.085 401.281 234.411 370.629C250.33 374.116 261.644 373.861 268.365 369.845L268.854 369.835C268.815 381.816 266.503 397.529 261.919 416.984C261.4 419.198 264.456 424.831 264.975 426.075C265.71 427.848 265.739 432.227 262.8 444.521L252.24 444.12L252.514 439.995C244.501 444.129 239.515 447 237.575 448.596C235.332 450.438 225.692 453.426 217.63 451.506C214.104 450.663 212.713 446.382 215.083 443.63H215.073Z" fill="#3C3A32"/>
<g style="mix-blend-mode:screen" opacity="0.5">
<path d="M250.065 379.504C249.311 407.844 247.215 422.274 243.796 422.803C240.377 423.332 238.721 408.814 238.809 379.259C241.503 380.356 245.255 380.444 250.055 379.504H250.065Z" fill="#3C3A32"/>
</g>
<path d="M281.942 177.722L274.526 167.965L288.27 153.819L299.869 158.972L281.942 177.722Z" fill="#FFC74F"/>
<path d="M257.285 162.646L264.73 159.707L274.526 167.965L262.898 175.606L257.285 162.646Z" fill="#FFC74F"/>
<path d="M179.219 152.448L184.049 448.126H173.704L173.008 152.448H179.209H179.219Z" fill="#BA7647"/>
<path d="M148.195 122.912C151.947 109.854 153.446 100.91 152.681 96.0807C151.917 91.2512 151.183 87.3131 150.497 84.2469C156.394 87.6951 158.961 93.6316 158.197 102.056C157.051 114.693 150.272 138.057 163.82 142.466C177.378 146.874 170.168 108.091 173.361 84.8249C175.164 85.9122 176.212 92.75 176.525 105.338C176.986 124.215 173.939 146.051 187.84 143.817C201.741 141.584 194.962 115.389 193.473 110.217C191.984 105.044 189.799 90.3695 198.185 85.0698C196.235 93.5239 196.235 100.45 198.185 105.857C201.035 113.733 219.697 149.989 179.934 157.356L180.943 169.63H171.294L172.225 157.513C163.81 156.151 145.942 150.058 148.195 122.922V122.912Z" fill="#3C3A32"/>
<path d="M188.869 214.086C190.818 225.341 183.353 232.532 166.455 235.627C159.794 219.542 156.806 208.394 157.492 202.193C158.53 192.887 157.492 185.588 159.901 181.219C162.311 176.85 167.395 172.599 173.185 171.678C178.975 170.757 190.661 171.903 185.176 177.712C188.487 179.956 188.594 182.248 185.489 184.609C187.154 187.714 186.665 189.752 184.029 190.731C184.95 194.405 183.716 196.247 180.326 196.247C175.242 196.247 171.618 196.678 174.635 204.093C177.652 211.509 181.042 213.459 188.859 214.086H188.869Z" fill="#FFC200"/>
<g style="mix-blend-mode:multiply" opacity="0.7">
<path d="M185.508 184.619C187.174 187.724 186.684 189.762 184.049 190.741C184.969 194.415 183.735 196.256 180.346 196.256C175.261 196.256 171.637 196.687 174.654 204.103C177.515 211.137 180.718 213.253 187.712 213.988C187.575 217.171 186.997 219.542 185.381 222.451C181.923 228.692 175.888 230.357 172.695 231.493C172.695 231.444 172.705 231.395 172.705 231.356C172.852 221.188 172.744 209.991 167.503 200.9C168.179 199.852 168.757 198.725 169.139 197.481C170.99 191.427 171.294 186.039 170.452 179.828C170.148 177.634 169.658 175.273 168.816 173.069C170.207 172.422 171.676 171.942 173.204 171.697C178.994 170.777 190.681 171.923 185.195 177.732C188.506 179.975 188.614 182.268 185.508 184.628V184.619Z" fill="#F1BB00"/>
</g>
<path d="M174.978 196.639C175.722 195.992 179.611 196.247 179.934 196.198L180.649 240.134H173.214L173.116 199.156C173.684 198.304 174.223 197.275 174.968 196.629L174.978 196.639Z" fill="#BA7647"/>
<g style="mix-blend-mode:multiply" opacity="0.5">
<g style="mix-blend-mode:multiply" opacity="0.5">
<path d="M176.261 229.27C175.085 230.759 174.047 232.385 173.204 234.109L173.116 199.166C173.684 198.314 174.223 197.285 174.968 196.639C175.712 195.992 179.601 196.247 179.925 196.198L180.414 225.939C178.857 226.693 177.446 227.761 176.261 229.26V229.27Z" fill="#BA7647"/>
</g>
</g>
<path d="M174.39 177.84L185.567 177.301V178.016C178.289 179.005 174.498 179.358 174.184 179.074C173.724 178.643 172.95 178.359 174.38 177.84H174.39Z" fill="#B56500"/>
<path d="M174.605 184.452H185.783V185.167C178.504 185.794 174.713 185.971 174.4 185.686C173.939 185.255 173.165 184.971 174.605 184.452Z" fill="#B56500"/>
<path d="M174.39 190.222H184.196C184.176 190.496 184.157 190.78 184.157 191.055C181.208 191.29 174.537 191.789 174.184 191.456C173.724 191.025 172.95 190.741 174.38 190.222H174.39Z" fill="#B56500"/>
<g style="mix-blend-mode:multiply">
<g style="mix-blend-mode:multiply">
<path d="M201.026 224.43C199.958 223.764 199.498 219.17 200.34 215.565C201.3 215.222 202.054 214.791 202.485 214.262C202.701 213.997 203.005 213.586 203.367 213.076C206.59 213.498 212.527 214.379 211.194 214.957C209.989 215.477 207.433 215.672 203.524 215.565C207.197 219.934 208.432 222.177 207.227 222.285C206.022 222.402 204.386 220.473 202.319 216.515C202.378 222.373 201.947 225.018 201.026 224.44V224.43Z" fill="#CC3932"/>
</g>
</g>
<g style="mix-blend-mode:multiply">
<g style="mix-blend-mode:multiply">
<path d="M333.313 220.639C331.638 221.971 329.522 222.824 326.975 223.225C332.471 229.24 333.519 231.16 330.13 228.995C327.945 227.604 326.25 225.978 325.046 224.136C325.575 228.731 325.32 231.866 324.281 233.56C322.949 235.735 323.174 226.272 323.282 223.186C323.351 222.843 323.38 222.52 323.321 222.246C331.668 219.836 335.008 219.297 333.323 220.639H333.313Z" fill="#CC3932"/>
</g>
</g>
<path d="M275.3 276.624C278.092 273.783 279.669 271.952 280.031 271.129C280.59 269.904 279.865 256.278 277.641 257.394C275.417 258.511 277.21 255.621 278.415 255.18C280.267 255.141 281.364 255.416 281.726 255.984C282.089 256.572 281.844 263.155 281.853 267.367C282.696 267.161 284.44 266.681 285.733 265.839C284.498 267.641 283.215 268.787 281.883 269.267C281.922 270.257 282 270.874 282.147 270.864C282.843 270.825 286.487 270.629 287.761 270.227C285.282 272.157 283.48 273.284 282.343 273.617C280.982 276.428 279.943 278.211 279.248 278.966C279.787 276.458 279.914 274.89 279.62 274.244C278.425 275.282 276.985 276.076 275.29 276.605L275.3 276.624Z" fill="#EA9F00"/>
<path d="M263.652 276.517C266.944 273.96 268.835 272.314 269.315 271.56C270.049 270.443 271.195 257.659 268.766 258.482C266.307 259.315 268.57 256.767 269.873 256.483C271.744 256.65 272.822 257.012 273.106 257.59C273.39 258.168 272.244 264.262 271.675 268.18C272.547 268.053 274.34 267.72 275.721 267.034C274.262 268.611 272.831 269.591 271.44 269.953C271.342 270.874 271.342 271.452 271.489 271.452C272.195 271.452 275.809 271.472 277.093 271.178C274.409 272.814 272.479 273.764 271.313 274.019C269.55 276.575 268.257 278.202 267.434 278.887C268.335 276.566 268.678 275.096 268.462 274.479C267.091 275.41 265.484 276.086 263.643 276.517H263.652Z" fill="#EA9F00"/>
<path d="M283.656 244.366C288.27 246.423 283.989 257.747 283.196 259.119C282.402 260.49 281.609 261.107 278.415 260.177C276.28 259.559 273.37 255.788 269.677 248.872C268.335 247.745 279.042 242.308 283.656 244.366Z" fill="#BE6C00"/>
<path d="M277.426 247.873C277.631 251.664 275.692 256.562 272.312 258.452C270.735 259.344 268.737 259.648 266.944 259.432C264.74 259.158 264.759 256.503 264.887 254.808C265.102 251.918 264.485 248.48 263.016 244.483C272.489 244.405 277.289 245.531 277.416 247.882L277.426 247.873Z" fill="#A45000"/>
<path d="M288.966 211.46C291.679 207.728 292.767 204.906 292.228 203.006C291.415 200.155 291.052 196.021 292.943 195.11C294.824 194.189 296.097 196.991 296.714 200.567C293.825 191.564 294.638 187.117 299.163 187.215C303.68 187.313 304.62 191.584 301.965 200.008C301.113 190.8 302.68 185.588 306.648 184.364C312.614 182.532 311.693 193.788 307.363 200.312C312.633 192.23 316.111 190.055 317.806 193.788C319.5 197.52 316.904 201.145 310.008 204.642C315.102 201.213 318.178 201.164 319.236 204.485C320.813 209.481 314.857 210.647 312.104 211.979C310.272 212.861 308.725 214.037 307.471 215.496C302.661 219.405 298.919 220.815 296.244 219.728C292.238 218.102 282.108 214.428 288.976 211.47L288.966 211.46Z" fill="#823900"/>
<path d="M261.752 207.081C265.151 215.506 271.362 218.464 280.404 215.947C282.529 215.153 282.941 213.645 281.628 211.431C279.659 208.1 280.129 204.162 285.635 206.542C287.281 206.973 287.898 209.618 287.486 214.477C286.095 208.874 287.212 206.219 290.846 206.533C292.375 207.179 292.815 209.775 292.169 214.33C291.522 206.582 293.648 203.222 298.536 204.24C303.425 205.259 302.847 209.148 296.802 215.908C300.133 210.373 303.15 208.874 305.874 211.421C308.587 213.968 307.118 216.26 301.446 218.298C306.706 214.223 310.546 214.037 312.947 217.749C316.552 223.323 306.011 226.644 302.21 226.85C308.235 223.451 310.86 223.813 310.096 227.937C309.322 232.062 306.981 234.275 303.072 234.599C308.117 233.825 308.783 235.823 305.07 240.574C299.496 247.706 282.853 252.536 274.085 252.193C265.327 251.85 245.245 242.955 245.549 233.168C245.852 223.382 249.8 221.756 251.799 216.456C253.797 211.156 257.471 200.155 261.752 207.081Z" fill="#BE6C00"/>
<path d="M250.711 194.954C250.418 194.905 252.377 193.288 250.917 191.593C249.458 189.899 249.83 186.225 252.543 187.107C253.161 187.264 253.454 188.331 253.425 190.3C252.749 187.126 253.425 185.5 255.463 185.412C257.5 185.324 257.872 186.793 256.589 189.83C256.903 185.843 258.353 184.168 260.939 184.805C263.515 185.441 262.976 187.185 259.313 190.036C261.291 186.842 263.26 185.569 265.2 186.206C266.65 186.686 267.042 188.606 265.974 189.703C265.406 190.281 264.514 190.937 263.133 191.633C265.141 190.026 266.493 190.124 267.198 191.917C268.256 194.601 264.72 195.042 262.379 194.16C260.811 193.572 259.783 193.935 259.283 195.247C254.365 195.198 251.515 195.11 250.721 194.973L250.711 194.954Z" fill="#FF8637"/>
<path d="M252.103 193.229C252.249 192.495 252.749 191.887 253.464 191.633C253.474 191.633 253.474 191.633 253.484 191.623C253.64 191.564 254.16 191.378 254.718 191.162C255.943 190.702 257.285 190.722 258.499 191.202C260.645 192.044 263.006 192.798 265.161 192.025C265.562 191.878 265.935 191.721 266.287 191.554C266.346 191.662 266.405 191.77 266.454 191.897C267.414 194.336 264.201 194.738 262.065 193.935C260.645 193.396 259.704 193.729 259.254 194.924C254.787 194.885 252.191 194.797 251.466 194.679C251.289 194.65 251.936 194.052 252.103 193.229Z" fill="#E0591B"/>
<g style="mix-blend-mode:multiply" opacity="0.5">
<path d="M291.199 246.717C291.219 246.815 291.238 246.913 291.258 247.01C288.427 247.442 286.036 248.588 283.176 249.234C281.853 249.528 280.58 249.92 279.336 250.351C279.228 250.194 279.12 250.038 279.032 249.9C277.102 250.165 275.319 250.273 273.801 250.214C267.884 249.989 256.423 245.551 250.721 239.654C253.787 240.261 257.069 240.222 260.38 239.565C267.296 238.194 272.498 233.962 275.231 227.859C279.493 228.045 283.754 228.476 287.917 229.407C292.002 230.318 295.735 234.344 299.702 235.618C300.368 235.833 307.226 233.443 302.543 239.438C300.261 242.357 295.97 244.865 291.199 246.726V246.717Z" fill="#BA8B9A"/>
</g>
<path d="M250.075 195.218C251.339 193.337 253.494 192.387 256.56 192.367C261.144 192.328 263.388 197.393 260.498 202.085C260.008 203.075 260.615 204.652 262.31 206.827C264.857 210.089 268.678 212.077 272.146 211.46C275.613 210.853 277.034 216.25 272.146 218.288C268.884 219.65 266.513 219.65 265.043 218.288C268.247 221.393 268.354 223.872 265.367 225.723C261.83 227.918 259.822 226.35 259.332 221.031C259.92 226.292 258.686 228.995 255.629 229.132C252.573 229.27 251.436 227.33 252.22 223.323C251.809 227.673 249.585 229.27 245.539 228.133C239.475 226.429 246.098 219.601 247.479 217.465C248.85 215.32 252.788 208.472 249.281 202.693C247.528 199.812 247.714 195.238 250.075 195.218Z" fill="#823900"/>
<g style="mix-blend-mode:screen" opacity="0.5">
<path d="M253.239 205.553C252.259 205.7 252.465 205.004 251.486 204.946C251.299 204.936 251.123 204.916 250.947 204.897C250.829 203.888 250.526 202.869 249.928 201.889C248.586 199.685 248.723 196.168 250.535 196.158C251.505 194.718 253.161 193.984 255.502 193.974C257.784 193.954 259.44 195.747 259.509 197.981C259.577 200.087 258.353 202.085 256.922 203.535C256.638 203.819 253.895 205.455 253.239 205.553Z" fill="#823900"/>
</g>
<path d="M269.667 228.819C275.016 223.607 281.687 221.276 289.71 221.825C301.74 222.638 299.359 224.881 303.366 224.469C303.141 227.986 301.113 230.024 297.273 230.563C298.595 230.974 299.496 231.307 299.976 231.582C300.692 231.993 299.056 235.559 293.354 235.196C295.833 235.911 295.695 236.881 292.953 238.096C287.241 240.643 277.024 238.978 269.677 228.809L269.667 228.819Z" fill="#823900"/>
<g style="mix-blend-mode:screen" opacity="0.3">
<path d="M287.702 230.651C286.183 231.454 284.606 232.11 282.97 232.59C279.13 233.727 274.927 232.395 272.567 229.152C272.557 229.132 272.537 229.113 272.527 229.093C276.965 224.773 282.51 222.833 289.161 223.284C292.512 223.509 294.51 223.872 295.813 224.234C293.472 226.762 290.827 228.986 287.692 230.641L287.702 230.651Z" fill="#823900"/>
</g>
<path d="M291.121 228.907C293.501 228.907 296.391 230.22 299.8 232.855C300.182 232.395 300.28 232.022 300.094 231.748C296.607 228.035 291.718 226.889 285.439 228.31C285.449 228.466 287.565 228.907 291.131 228.907H291.121Z" fill="#592A00"/>
<path d="M285.057 232.385C291.366 232.806 294.648 234.197 294.883 236.538C294.834 236.862 294.628 237.146 294.246 237.391C293.139 235.529 291.425 234.354 289.093 233.884C286.762 233.404 285.42 232.914 285.057 232.385Z" fill="#592A00"/>
<path d="M257.951 195.208C257.833 197.412 257.02 198.608 255.502 198.774C253.239 199.029 252.857 195.414 253.543 195.003C254.228 194.591 254.199 197.148 255.022 197.501C255.835 197.853 257.775 193.856 257.951 195.208Z" fill="#3C3A32"/>
<path d="M249.32 200.91C251.289 204.72 250.956 206.866 248.341 207.365C244.197 208.149 246.911 201.115 249.32 200.91Z" fill="#E95B1B"/>
<path d="M250.477 200.724C254.375 203.711 254.973 205.896 252.279 207.277C249.585 208.658 248.792 206.542 249.899 200.919L250.477 200.714V200.724Z" fill="#FF8637"/>
<path d="M252.122 197.089C253.366 199.861 252.563 201.497 249.732 201.997C245.48 202.742 243.11 199.754 242.091 199.577C248.253 197.54 251.603 196.717 252.132 197.089H252.122Z" fill="#FFBF00"/>
<path d="M241.092 200.4C242.992 196.58 246.137 194.679 250.506 194.709C251.407 195.306 251.995 196.247 252.279 197.53C251.799 198.941 250.535 199.617 248.478 199.577C245.392 199.509 243.658 198.921 241.092 200.4Z" fill="#FFBF00"/>
<path d="M248.41 199.048C251.035 199.303 251.956 197.579 252.161 197.128C252.201 197.265 252.357 197.785 252.387 197.932C251.838 199.078 250.535 199.636 248.478 199.587C245.392 199.519 243.658 198.931 241.092 200.41C241.758 199.097 244.197 198.647 248.41 199.048Z" fill="#BE6C00"/>
<path d="M302.396 239.947C309.136 248.147 309.44 256.189 303.317 264.075C283.402 260.627 272.91 259.177 271.832 259.706C270.226 260.51 256.09 262.469 256.315 257.404C256.345 256.689 256.874 256.229 257.922 256.033C254.415 255.533 253.631 254.034 255.59 251.526C252.691 250.762 252.25 249.332 254.268 247.226C251.672 245.923 251.29 244.463 253.112 242.847C254.033 242.034 257.422 242.827 258.519 243.386C260.635 244.463 264.691 244.973 267.463 244.248C271.656 243.161 267.003 238.909 266.66 236.431C266.317 233.962 270.51 228.966 273.037 237.058C275.565 245.159 274.468 247.569 278.327 245.962C282.177 244.356 298.84 241.025 302.396 239.928V239.947Z" fill="#FFC200"/>
<g style="mix-blend-mode:multiply" opacity="0.7">
<path d="M268.169 250.047C272.45 245.884 273.253 238.772 270.598 233.482C271.039 233.609 271.499 233.933 271.95 234.491C272.332 235.147 272.704 235.98 273.047 237.067C274.967 243.219 274.801 246.08 276.29 246.403C276.642 246.579 284.274 252.261 304.787 246.648C306.354 251.076 306.981 257.247 302.269 263.311C283.304 260.03 273.322 258.648 272.303 259.158C271.411 259.599 266.523 260.402 262.604 260.069C266.004 257.825 267.836 254.015 268.169 250.047Z" fill="#F1BB00"/>
</g>
</svg>
