<svg viewBox="0 0 1920 126" fill="none" xmlns="http://www.w3.org/2000/svg">
<path d="M1920 74.5867C1920 74.5867 1870.56 51.9533 1825.19 50.3742C1779.13 48.7951 1739.85 50.3742 1683.64 58.2696C1607.11 68.7968 1459.47 111.432 1380.91 88.2721C1302.35 65.1123 1298.96 64.0595 1259.01 49.3215C1214.31 32.478 1123.56 -1.20898 1011.13 0.370094C891.259 1.94917 673.862 87.7457 584.466 83.5348C574.984 83.0085 539.767 79.324 513.354 73.0076C487.619 66.6913 449.693 53.006 398.222 48.2688C376.55 46.1633 342.011 42.4788 302.053 43.5315C291.894 44.0579 259.386 45.637 220.783 51.9533C182.18 58.2696 146.286 68.2704 113.778 71.4286C44.0212 77.2185 0 68.7968 0 68.7968V125.644H1920V74.5867ZM1766.26 66.165C1761.52 71.4286 1752.72 68.2704 1737.14 68.2704C1721.57 68.2704 1695.83 74.5867 1697.86 74.0604C1699.89 73.534 1718.86 66.165 1738.5 64.0595C1758.81 61.4277 1770.33 60.9014 1766.26 66.165ZM1641.65 80.3767C1641.65 80.3767 1625.4 81.4294 1603.72 85.1139C1582.05 89.3248 1533.97 99.852 1501.46 103.536C1445.93 109.326 1394.46 103.536 1399.2 103.01C1404.61 102.484 1464.21 106.168 1518.39 97.2202C1540.74 93.5357 1581.38 85.6403 1602.37 83.0085C1624.72 79.8503 1641.65 80.3767 1641.65 80.3767ZM1254.26 80.903C1265.78 84.5875 1164.19 56.1642 1128.97 48.7951C1114.75 45.637 1086.98 40.3734 1061.25 38.2679C1034.84 36.1625 1000.97 36.1625 1001.65 35.6361C1001.65 34.5834 1040.93 31.4253 1077.5 35.6361C1114.07 39.847 1112.72 41.4261 1128.97 44.0579C1154.71 48.2688 1242.75 77.2185 1254.26 80.903ZM1348.4 89.3248C1349.76 89.3248 1342.98 91.4302 1315.89 83.5348C1288.8 75.6394 1270.52 65.1123 1269.16 64.0595C1267.81 63.5332 1292.87 73.534 1313.86 79.8503C1334.18 86.1666 1347.72 89.3248 1348.4 89.3248ZM1916.61 94.062C1915.94 93.5357 1903.75 88.2721 1884.11 80.903C1864.47 73.534 1837.38 66.165 1838.73 66.6913C1840.08 66.6913 1862.43 69.8495 1888.85 79.8503C1915.26 89.8511 1917.29 94.5884 1916.61 94.062ZM211.979 64.5859C212.656 65.6386 199.111 65.6386 181.503 70.9022C163.894 76.1658 144.931 79.324 128.677 81.4294C101.587 85.6403 49.4392 80.903 52.1481 80.3767C54.1799 79.8503 107.683 81.9557 136.804 76.6922C151.704 74.0604 153.058 74.0604 175.407 68.2704C197.757 62.4805 211.302 63.0068 211.979 64.5859ZM494.392 77.2185C497.101 77.7449 518.095 85.6403 551.28 90.9039C584.466 96.6938 611.556 93.5356 611.556 95.1147C611.556 96.6938 604.783 99.852 569.566 96.6938C534.349 93.5357 491.683 76.6922 494.392 77.2185ZM484.91 90.3775C486.265 89.8511 507.937 97.2202 523.513 99.3256C539.09 100.905 536.381 101.957 536.381 102.484C536.381 103.01 528.931 103.536 518.095 101.431C506.582 98.7992 483.556 90.9039 484.91 90.3775ZM633.905 102.484C634.582 101.431 657.608 98.2729 671.831 93.0093C686.053 87.7457 684.021 89.8511 684.698 90.3775C685.376 90.9039 679.28 94.5884 668.444 97.2202C657.608 100.378 633.227 103.536 633.905 102.484ZM442.921 67.2177C442.243 65.6386 444.952 64.5859 455.788 68.2704C466.624 71.9549 473.397 75.1131 470.688 74.5867C467.979 74.0604 464.593 72.4813 453.757 70.3759C442.243 68.2704 443.598 68.7968 442.921 67.2177ZM233.651 60.375C232.296 60.375 247.873 56.1642 256 55.6378C264.127 55.1114 269.545 55.1114 269.545 56.6905C269.545 58.2696 268.868 59.3223 258.709 58.796C247.873 58.2696 235.005 60.375 233.651 60.375ZM1030.77 14.5818C1030.1 14.0554 1014.52 16.1609 979.979 16.1609C946.116 16.1609 887.873 28.7935 863.492 34.5834C839.111 40.3734 931.217 14.0554 975.238 13.0027C1019.26 11.95 1031.45 15.1081 1030.77 14.5818Z" fill="#4CA146"/>
</svg>
