<svg width="58" height="63" viewBox="0 0 58 63" fill="none" xmlns="http://www.w3.org/2000/svg">
<path d="M30.8162 1.34384C30.2871 0.884682 29.6098 0.631836 28.9088 0.631836C28.2079 0.631836 27.5306 0.884682 27.0015 1.34384C24.6248 3.39922 22.7052 5.92861 21.3659 8.76934C20.0266 11.6101 19.2975 14.6993 19.2253 17.8383C19.2236 18.13 19.3042 18.4163 19.458 18.6642C19.6117 18.9122 19.8323 19.1119 20.0945 19.2405C21.9962 20.2287 23.7794 21.4293 25.41 22.8192C26.2167 23.5031 26.9484 24.2182 27.6112 24.9458C28.2991 25.7015 29.5186 25.7015 30.2065 24.9458C30.8725 24.2182 31.6041 23.5031 32.4077 22.8223C34.0379 21.4319 35.8212 20.2312 37.7232 19.2436C37.986 19.1155 38.2072 18.916 38.3615 18.668C38.5158 18.4199 38.597 18.1335 38.5956 17.8415C38.5238 14.7019 37.7948 11.6121 36.4556 8.77077C35.1163 5.92946 33.1964 3.39957 30.8193 1.34384H30.8162ZM28.9088 50.5463C31.4189 46.1329 35.1912 42.5684 39.7424 40.3096C44.2936 38.0508 49.4164 37.2006 54.4545 37.8678C55.9804 38.0677 57.1217 39.4292 57.0028 41.0031C56.5435 46.9622 53.8488 52.5284 49.4574 56.5888C45.0661 60.6491 39.3019 62.9042 33.3176 62.9031H24.5001C18.5163 62.9034 12.7529 60.648 8.36224 56.5877C3.97157 52.5275 1.27725 46.9616 0.81799 41.0031C0.761163 40.2543 0.993566 39.5121 1.46748 38.929C1.94139 38.346 2.62084 37.9662 3.3663 37.8678C8.40443 37.2002 13.5274 38.0502 18.0787 40.309C22.63 42.5679 26.4022 46.1326 28.912 50.5463H28.9088ZM52.8161 34.5795C47.041 34.261 41.3909 35.7662 36.7883 38.2176C34.0305 39.6853 31.5041 41.5746 29.528 43.748C29.4494 43.834 29.3538 43.9027 29.2472 43.9497C29.1406 43.9966 29.0254 44.0209 28.9088 44.0209C28.7923 44.0209 28.6771 43.9966 28.5705 43.9497C28.4639 43.9027 28.3683 43.834 28.2898 43.748C26.3199 41.5714 23.7903 39.6853 21.0325 38.2176C16.4393 35.7724 10.808 34.2704 5.0485 34.5795C2.76596 30.9884 1.20258 26.8663 0.82737 22.713C0.792198 22.3203 0.83508 21.9246 0.953552 21.5485C1.07202 21.1725 1.26375 20.8235 1.51771 20.5217C1.77166 20.2199 2.08284 19.9712 2.43336 19.7899C2.78388 19.6086 3.16682 19.4983 3.56016 19.4653C11.2364 18.8251 17.6431 20.3397 23.3901 25.2018C25.9853 27.3972 27.7238 30.0328 28.912 32.2812C30.097 30.0328 31.8386 27.3972 34.4307 25.2018C40.184 20.3366 46.6345 18.8251 54.3044 19.4653C54.6981 19.4979 55.0813 19.608 55.4322 19.7891C55.7831 19.9702 56.0946 20.2188 56.3489 20.5207C56.6032 20.8225 56.7952 21.1716 56.9139 21.5479C57.0325 21.9241 57.0755 22.3201 57.0404 22.713C56.662 26.8663 55.0986 30.9915 52.8192 34.5795H52.8161Z" fill="white"/>
</svg>
