<svg viewBox="0 0 423 138" fill="none" xmlns="http://www.w3.org/2000/svg">
<g id="tractor">
<g id="&#60;Group&#62;">
<g id="&#60;Group&#62;_2">
<path id="&#60;Path&#62;" d="M15.6479 96.76C15.6479 95.16 16.9758 93.832 18.5758 93.832C20.1919 93.832 21.4879 95.16 21.4879 96.76V114.168H15.6318V96.76H15.6479Z" fill="#566375"/>
<path id="&#60;Path&#62;_2" d="M21.5042 114.168C19.5522 119.592 19.2962 126.424 20.7042 134.664C16.5122 130.216 14.8322 123.384 15.6642 114.168H21.5203H21.5042Z" fill="#EEFCFF"/>
</g>
<g id="&#60;Group&#62;_3">
<path id="&#60;Path&#62;_3" d="M33.8882 96.76C33.8882 95.16 35.2002 93.832 36.8162 93.832C38.4322 93.832 39.7443 95.16 39.7443 96.76V114.168H33.8882V96.76V96.76Z" fill="#566375"/>
<path id="&#60;Path&#62;_4" d="M39.7283 114.168C37.7763 119.592 37.5043 126.424 38.8962 134.664C34.7203 130.216 33.0403 123.384 33.8723 114.168H39.7283Z" fill="#EEFCFF"/>
</g>
<g id="&#60;Group&#62;_4">
<path id="&#60;Path&#62;_5" d="M54.7041 96.76C54.7041 95.16 56.0161 93.832 57.6321 93.832C59.2481 93.832 60.5601 95.16 60.5601 96.76V114.168H54.7041V96.76V96.76Z" fill="#566375"/>
<path id="&#60;Path&#62;_6" d="M60.5603 114.168C58.6083 119.592 58.3364 126.424 59.7284 134.664C55.5523 130.216 53.8723 123.384 54.7043 114.168H60.5603Z" fill="#EEFCFF"/>
</g>
<g id="&#60;Group&#62;_5">
<path id="&#60;Path&#62;_7" d="M75.5361 96.76C75.5361 95.16 76.8321 93.832 78.4641 93.832C80.0801 93.832 81.3921 95.16 81.3921 96.76V114.168H75.5361V96.76V96.76Z" fill="#566375"/>
<path id="&#60;Path&#62;_8" d="M81.3923 114.168C79.4403 119.592 79.1683 126.424 80.5603 134.664C76.3843 130.216 74.7043 123.384 75.5363 114.168H81.3923Z" fill="#EEFCFF"/>
</g>
<g id="&#60;Group&#62;_6">
<path id="&#60;Path&#62;_9" d="M98.976 96.76C98.976 95.16 100.288 93.832 101.888 93.832C103.504 93.832 104.816 95.16 104.816 96.76V114.168H98.96V96.76H98.976Z" fill="#566375"/>
<path id="&#60;Path&#62;_10" d="M104.816 114.168C102.864 119.592 102.592 126.424 103.984 134.664C99.8082 130.216 98.1282 123.384 98.9602 114.168H104.816Z" fill="#EEFCFF"/>
</g>
<path id="&#60;Path&#62;_11" d="M110.048 103.8C110.048 105.352 108.784 106.6 107.232 106.6H3.56807C2.03207 106.6 0.768066 105.336 0.768066 103.8C0.768066 102.248 2.03207 100.984 3.56807 100.984H107.232C108.784 100.984 110.048 102.248 110.048 103.8Z" fill="#627184"/>
<path id="&#60;Path&#62;_12" d="M112.656 103.8C112.656 105.352 111.488 106.6 110.032 106.6H12.7682C11.3282 106.6 10.1602 105.336 10.1602 103.8C10.1602 102.248 11.3282 100.984 12.7682 100.984H110.032C111.488 100.984 112.656 102.248 112.656 103.8Z" fill="#566375"/>
</g>
<g id="&#60;Group&#62;_7">
<path id="&#60;Path&#62;_13" d="M288.784 107.64H8.59229V91.944H288.784V107.64Z" fill="#E29805"/>
<path id="&#60;Path&#62;_14" d="M174.048 95.256H33.4082V46.68H174.048V95.256V95.256Z" fill="#E29805"/>
<path id="&#60;Path&#62;_15" d="M53.3922 107.64H5.13623V91.944H53.3922V107.64Z" fill="#FFBE17"/>
<path id="&#60;Path&#62;_16" d="M37.3284 95.256H17.0244V46.68H37.3284V95.256V95.256Z" fill="#FFBE17"/>
<path id="&#60;Path&#62;_17" d="M138.272 84.936H65.0884V63.592H138.272V84.936Z" fill="#FFBE17"/>
</g>
<g id="&#60;Group&#62;_8">
<g className="wheel">
<g id="&#60;Group&#62;_9">
<g id="&#60;Group&#62;_10">
<g id="&#60;Group&#62;_11">
<g id="&#60;Group&#62;_12">
<g id="&#60;Group&#62;_13">
<g id="&#60;Group&#62;_14">
<path id="&#60;Path&#62;_18" d="M355.104 46.776L363.536 43.656L365.472 48.8879L357.04 51.96L355.104 46.76V46.776Z" fill="#212121"/>
</g>
</g>
<g id="&#60;Group&#62;_15">
<g id="&#60;Group&#62;_16">
<path id="&#60;Path&#62;_19" d="M384.08 130.664L394.24 126.616L396.176 131.832L387.744 134.936L384.08 130.664V130.664Z" fill="#212121"/>
</g>
</g>
</g>
<g id="&#60;Group&#62;_17">
<g id="&#60;Group&#62;_18">
<g id="&#60;Group&#62;_19">
<path id="&#60;Path&#62;_20" d="M418.288 68.808L421.408 77.224L416.16 79.16L413.072 70.744L418.288 68.824V68.808Z" fill="#212121"/>
</g>
</g>
<g id="&#60;Group&#62;_20">
<g id="&#60;Group&#62;_21">
<path id="&#60;Path&#62;_21" d="M335.104 99.448L338.224 107.848L333.008 109.784L329.888 101.384L335.104 99.448Z" fill="#212121"/>
</g>
</g>
</g>
</g>
<g id="&#60;Group&#62;_22">
<g id="&#60;Group&#62;_23">
<g id="&#60;Group&#62;_24">
<g id="&#60;Group&#62;_25">
<path id="&#60;Path&#62;_22" d="M391.296 44.728L399.456 48.488L397.104 53.528L388.944 49.784L391.296 44.728Z" fill="#212121"/>
</g>
</g>
<g id="&#60;Group&#62;_26">
<g id="&#60;Group&#62;_27">
<path id="&#60;Path&#62;_23" d="M354.176 125.064L362.336 128.808L359.984 133.848L351.84 130.104L354.176 125.064Z" fill="#212121"/>
</g>
</g>
</g>
<g id="&#60;Group&#62;_28">
<g id="&#60;Group&#62;_29">
<g id="&#60;Group&#62;_30">
<path id="&#60;Path&#62;_24" d="M420.304 104.904L416.56 113.032L411.488 110.728L415.248 102.568L420.304 104.904Z" fill="#212121"/>
</g>
</g>
<g id="&#60;Group&#62;_31">
<g id="&#60;Group&#62;_32">
<path id="&#60;Path&#62;_25" d="M339.808 67.88L336.032 76.024L330.96 73.688L334.72 65.544L339.808 67.864V67.88Z" fill="#212121"/>
</g>
</g>
</g>
</g>
<g id="&#60;Group&#62;_33">
<g id="&#60;Group&#62;_34">
<g id="&#60;Group&#62;_35">
<g id="&#60;Group&#62;_36">
<path id="&#60;Path&#62;_26" d="M407.056 53.976L413.2 60.552L409.12 64.344L402.992 57.768L407.056 53.976Z" fill="#212121"/>
</g>
</g>
<g id="&#60;Group&#62;_37">
<g id="&#60;Group&#62;_38">
<path id="&#60;Path&#62;_27" d="M342.176 114.264L348.304 120.824L344.24 124.616L338.112 118.056L342.176 114.264Z" fill="#212121"/>
</g>
</g>
</g>
<g id="&#60;Group&#62;_39">
<g id="&#60;Group&#62;_40">
<g id="&#60;Group&#62;_41">
<path id="&#60;Path&#62;_28" d="M411.04 120.632L404.464 126.744L400.656 122.664L407.248 116.568L411.04 120.632Z" fill="#212121"/>
</g>
</g>
<g id="&#60;Group&#62;_42">
<g id="&#60;Group&#62;_43">
<path id="&#60;Path&#62;_29" d="M350.64 55.928L344.032 62.0399L340.24 57.976L346.816 51.864L350.624 55.928H350.64Z" fill="#212121"/>
</g>
</g>
</g>
</g>
<g id="&#60;Group&#62;_44">
<g id="&#60;Group&#62;_45">
<g id="&#60;Group&#62;_46">
<g id="&#60;Group&#62;_47">
<path id="&#60;Path&#62;_30" d="M422.928 87.144L422.464 96.104L416.896 95.816L417.344 86.856L422.928 87.144Z" fill="#212121"/>
</g>
</g>
<g id="&#60;Group&#62;_48">
<g id="&#60;Group&#62;_49">
<path id="&#60;Path&#62;_31" d="M334.384 82.776L333.92 91.736L328.368 91.4479L328.816 82.4879L334.4 82.776H334.384Z" fill="#212121"/>
</g>
</g>
</g>
<g id="&#60;Group&#62;_50">
<g id="&#60;Group&#62;_51">
<g id="&#60;Group&#62;_52">
<path id="&#60;Path&#62;_32" d="M377.792 136.456L366.864 136.088L366.08 130.344L378.096 130.904L377.808 136.456H377.792Z" fill="#212121"/>
</g>
</g>
<g id="&#60;Group&#62;_53">
<g id="&#60;Group&#62;_54">
<path id="&#60;Path&#62;_33" d="M382.208 48.136L373.232 47.688L373.488 42.136L382.496 42.584L382.208 48.136Z" fill="#212121"/>
</g>
</g>
</g>
</g>
</g>
<g id="&#60;Group&#62;_55">
<path id="&#60;Path&#62;_34" d="M419.424 87.256C420.576 111.672 401.936 132.408 377.792 133.528C353.68 134.664 333.2 115.784 332.032 91.384C330.896 66.952 349.52 46.232 373.648 45.096C397.792 43.976 418.256 62.84 419.424 87.272V87.256Z" fill="#212121"/>
</g>
<g id="&#60;Group&#62;_56">
<path id="&#60;Path&#62;_35" d="M417.264 87.464C418.384 110.872 400.672 130.712 377.712 131.8C354.768 132.856 335.28 114.76 334.176 91.368C333.056 67.96 350.784 48.152 373.728 47.048C396.672 45.976 416.176 64.056 417.264 87.448V87.464Z" fill="#212121"/>
</g>
<g id="&#60;Group&#62;_57">
<path id="&#60;Path&#62;_36" d="M410.192 88.456C411.136 108.12 396.256 124.776 376.96 125.688C357.664 126.6 341.296 111.4 340.352 91.736C339.44 72.072 354.304 55.416 373.584 54.488C392.864 53.592 409.248 68.808 410.176 88.456H410.192Z" fill="#212121"/>
</g>
<g id="&#60;Group&#62;_58">
<path id="&#60;Path&#62;_37" d="M402.176 88.184C402.896 103.368 391.392 116.264 376.496 116.968C361.584 117.656 348.928 105.912 348.224 90.712C347.504 75.512 358.976 62.648 373.888 61.928C388.8 61.24 401.456 72.984 402.176 88.184Z" fill="#212121"/>
</g>
<g id="&#60;Group&#62;_59">
<path id="&#60;Path&#62;_38" d="M390.224 88.488C390.624 97.096 384.128 104.376 375.712 104.76C367.248 105.176 360.112 98.52 359.696 89.944C359.296 81.336 365.792 74.056 374.224 73.656C382.656 73.256 389.808 79.912 390.224 88.488Z" fill="#212121"/>
</g>
<g id="&#60;Group&#62;_60">
<path id="&#60;Path&#62;_39" d="M381.392 88.68C381.584 92.44 378.736 95.624 375.056 95.784C371.376 95.96 368.256 93.064 368.096 89.32C367.92 85.576 370.752 82.392 374.432 82.2C378.096 82.024 381.232 84.92 381.392 88.68V88.68Z" fill="#212121"/>
</g>
</g>
<g id="&#60;Group&#62;_61">
<g id="&#60;Group&#62;_62">
<g id="&#60;Group&#62;_63">
<g id="&#60;Group&#62;_64">
<g id="&#60;Group&#62;_65">
<path id="&#60;Path&#62;_40" d="M348.864 45.848L357.456 43.144L359.12 48.456L350.544 51.144L348.864 45.848Z" fill="#373737"/>
</g>
</g>
<g id="&#60;Group&#62;_66">
<g id="&#60;Group&#62;_67">
<path id="&#60;Path&#62;_41" d="M375.632 130.168L384.208 127.432L385.888 132.76L377.312 135.448L375.632 130.168Z" fill="#373737"/>
</g>
</g>
</g>
<g id="&#60;Group&#62;_68">
<g id="&#60;Group&#62;_69">
<g id="&#60;Group&#62;_70">
<path id="&#60;Path&#62;_42" d="M410.944 70.8399L413.648 79.384L408.336 81.064L405.6 72.5199L410.928 70.8399H410.944Z" fill="#373737"/>
</g>
</g>
<g id="&#60;Group&#62;_71">
<g id="&#60;Group&#62;_72">
<path id="&#60;Path&#62;_43" d="M326.432 97.544L329.136 106.104L323.824 107.768L321.12 99.224L326.448 97.544H326.432Z" fill="#373737"/>
</g>
</g>
</g>
</g>
<g id="&#60;Group&#62;_73">
<g id="&#60;Group&#62;_74">
<g id="&#60;Group&#62;_75">
<g id="&#60;Group&#62;_76">
<path id="&#60;Path&#62;_44" d="M385.089 45.512L393.073 49.64L390.497 54.568L382.513 50.44L385.089 45.496V45.512Z" fill="#373737"/>
</g>
</g>
<g id="&#60;Group&#62;_77">
<g id="&#60;Group&#62;_78">
<path id="&#60;Path&#62;_45" d="M344.257 124.008L352.241 128.136L349.665 133.08L341.681 128.952L344.257 124.008Z" fill="#373737"/>
</g>
</g>
</g>
<g id="&#60;Group&#62;_79">
<g id="&#60;Group&#62;_80">
<g id="&#60;Group&#62;_81">
<path id="&#60;Path&#62;_46" d="M411.264 106.984L407.136 114.936L402.176 112.376L406.288 104.408L411.264 106.984V106.984Z" fill="#373737"/>
</g>
</g>
<g id="&#60;Group&#62;_82">
<g id="&#60;Group&#62;_83">
<path id="&#60;Path&#62;_47" d="M332.576 66.232L328.448 74.184L323.504 71.608L327.632 63.656L332.576 66.232Z" fill="#373737"/>
</g>
</g>
</g>
</g>
<g id="&#60;Group&#62;_84">
<g id="&#60;Group&#62;_85">
<g id="&#60;Group&#62;_86">
<g id="&#60;Group&#62;_87">
<path id="&#60;Path&#62;_48" d="M400.4 55.496L406.24 62.344L401.968 65.912L396.16 59.08L400.4 55.496V55.496Z" fill="#373737"/>
</g>
</g>
<g id="&#60;Group&#62;_88">
<g id="&#60;Group&#62;_89">
<path id="&#60;Path&#62;_49" d="M332.784 112.664L338.592 119.496L334.32 123.112L328.528 116.264L332.784 112.68V112.664Z" fill="#373737"/>
</g>
</g>
</g>
<g id="&#60;Group&#62;_90">
<g id="&#60;Group&#62;_91">
<g id="&#60;Group&#62;_92">
<path id="&#60;Path&#62;_50" d="M401.248 122.264L394.4 128.072L390.784 123.832L397.648 118.008L401.232 122.264H401.248Z" fill="#373737"/>
</g>
</g>
<g id="&#60;Group&#62;_93">
<g id="&#60;Group&#62;_94">
<path id="&#60;Path&#62;_51" d="M343.936 54.792L337.088 60.6L333.472 56.344L340.336 50.552L343.92 54.792H343.936Z" fill="#373737"/>
</g>
</g>
</g>
</g>
<g id="&#60;Group&#62;_95">
<g id="&#60;Group&#62;_96">
<g id="&#60;Group&#62;_97">
<g id="&#60;Group&#62;_98">
<path id="&#60;Path&#62;_52" d="M414.72 89.368L413.856 98.296L408.304 97.736L409.168 88.824L414.72 89.352V89.368Z" fill="#373737"/>
</g>
</g>
<g id="&#60;Group&#62;_99">
<g id="&#60;Group&#62;_100">
<path id="&#60;Path&#62;_53" d="M326.464 80.84L325.6 89.7679L320.048 89.2399L320.912 80.312L326.464 80.84Z" fill="#373737"/>
</g>
</g>
</g>
<g id="&#60;Group&#62;_101">
<g id="&#60;Group&#62;_102">
<g id="&#60;Group&#62;_103">
<path id="&#60;Path&#62;_54" d="M367.296 136.52L358.368 135.656L358.896 130.12L367.856 130.984L367.296 136.536V136.52Z" fill="#373737"/>
</g>
</g>
<g id="&#60;Group&#62;_104">
<g id="&#60;Group&#62;_105">
<path id="&#60;Path&#62;_55" d="M375.84 48.4879L366.896 47.6399L367.424 42.072L376.384 42.936L375.824 48.4879H375.84Z" fill="#373737"/>
</g>
</g>
</g>
</g>
</g>
<g id="&#60;Group&#62;_106">
<path id="&#60;Path&#62;_56" d="M411.184 89.336C411.184 113.768 391.584 133.592 367.456 133.592C343.312 133.592 323.712 113.768 323.712 89.336C323.712 64.872 343.312 45.064 367.456 45.064C391.6 45.064 411.184 64.872 411.184 89.336V89.336Z" fill="#373737"/>
</g>
<g id="&#60;Group&#62;_107">
<path id="&#60;Path&#62;_57" d="M409.056 89.416C409.056 112.84 390.416 131.832 367.456 131.832C344.464 131.832 325.856 112.824 325.856 89.416C325.856 65.992 344.464 47.016 367.456 47.016C390.416 47.016 409.056 66.008 409.056 89.416Z" fill="#373737"/>
</g>
<g id="&#60;Group&#62;_108">
<path id="&#60;Path&#62;_58" d="M401.936 90.088C401.936 109.752 386.272 125.72 366.976 125.72C347.68 125.72 332.032 109.768 332.032 90.088C332.032 70.424 347.68 54.456 366.976 54.456C386.272 54.456 401.936 70.424 401.936 90.088V90.088Z" fill="#474747"/>
</g>
<g id="&#60;Group&#62;_109">
<path id="&#60;Compound Path&#62;" fill-rule="evenodd" clip-rule="evenodd" d="M366.976 126.2C347.44 126.2 331.536 109.992 331.536 90.072C331.536 70.152 347.44 53.944 366.976 53.944C386.512 53.944 402.4 70.152 402.4 90.072C402.4 109.992 386.512 126.2 366.976 126.2ZM366.976 54.936C347.968 54.936 332.496 70.696 332.496 90.088C332.496 109.464 347.968 125.24 366.976 125.24C385.952 125.24 401.44 109.464 401.44 90.088C401.44 70.712 385.952 54.936 366.976 54.936V54.936Z" fill="#E5931C"/>
</g>
<g id="&#60;Group&#62;_110">
<path id="&#60;Path&#62;_59" d="M393.92 89.416C393.92 104.648 381.84 116.968 366.912 116.968C352 116.968 339.904 104.648 339.904 89.416C339.904 74.216 352 61.864 366.912 61.864C381.84 61.864 393.92 74.216 393.92 89.416V89.416Z" fill="#FDCA00"/>
</g>
<g id="&#60;Group&#62;_111">
<path id="&#60;Path&#62;_60" d="M381.968 89.176C381.968 97.784 375.136 104.76 366.688 104.76C358.256 104.76 351.408 97.784 351.408 89.176C351.408 80.584 358.256 73.608 366.688 73.608C375.136 73.608 381.968 80.568 381.968 89.176Z" fill="#EEEEEE"/>
</g>
<g id="&#60;Group&#62;_112">
<path id="&#60;Path&#62;_61" d="M373.152 88.952C373.152 92.712 370.16 95.752 366.48 95.752C362.816 95.752 359.808 92.712 359.808 88.952C359.808 85.208 362.816 82.152 366.48 82.152C370.16 82.152 373.152 85.208 373.152 88.952Z" fill="#474747"/>
</g>
<g id="&#60;Group&#62;_113">
<path id="&#60;Path&#62;_62" d="M410.944 70.84L418.288 68.808L421.408 77.224L413.664 79.384L410.96 70.84H410.944Z" fill="#333333"/>
</g>
<g id="&#60;Group&#62;_114">
<path id="&#60;Path&#62;_63" d="M414.72 89.368L422.944 87.16L422.48 96.12L413.84 98.312L414.704 89.384L414.72 89.368Z" fill="#333333"/>
</g>
<g id="&#60;Group&#62;_115">
<path id="&#60;Path&#62;_64" d="M411.264 106.984L420.304 104.904L416.56 113.032L407.136 114.936L411.264 106.984V106.984Z" fill="#333333"/>
</g>
<g id="&#60;Group&#62;_116">
<path id="&#60;Path&#62;_65" d="M401.248 122.264L411.041 120.632L404.464 126.744L394.4 128.072L401.248 122.264Z" fill="#333333"/>
</g>
<g id="&#60;Group&#62;_117">
<path id="&#60;Path&#62;_66" d="M385.888 132.76L396.177 131.832L387.745 134.936L377.312 135.448L385.888 132.76Z" fill="#333333"/>
</g>
<g id="&#60;Group&#62;_118">
<path id="&#60;Path&#62;_67" d="M367.264 135.912L368.816 136.024L377.792 136.472L367.296 136.536L367.264 135.928V135.912Z" fill="#212121"/>
</g>
<g id="&#60;Group&#62;_119">
<path id="&#60;Path&#62;_68" d="M400.4 55.496L407.056 53.96L413.2 60.536L406.24 62.344L400.4 55.496Z" fill="#333333"/>
</g>
<g id="&#60;Group&#62;_120">
<path id="&#60;Path&#62;_69" d="M385.088 45.512L391.296 44.728L399.456 48.488L393.072 49.64L385.088 45.512V45.512Z" fill="#333333"/>
</g>
<g id="&#60;Group&#62;_121">
<path id="&#60;Path&#62;_70" d="M367.44 42.072L373.488 42.136L382.496 42.584L376.416 42.952L367.456 42.088L367.44 42.072Z" fill="#333333"/>
</g>
<g id="&#60;Group&#62;_122">
<path id="&#60;Path&#62;_71" d="M357.456 43.128L363.536 43.656L358.224 45.64L357.456 43.144V43.128Z" fill="#333333"/>
</g>
<g id="&#60;Group&#62;_123">
<path id="&#60;Path&#62;_72" d="M385.728 74.264C385.728 76.264 384.112 77.848 382.128 77.848C380.128 77.848 378.512 76.248 378.512 74.264C378.512 72.264 380.128 70.648 382.128 70.648C384.128 70.648 385.728 72.264 385.728 74.264Z" fill="#474747"/>
</g>
<g id="&#60;Group&#62;_124">
<path id="&#60;Path&#62;_73" d="M355.024 73.128C355.024 75.112 353.408 76.712 351.424 76.712C349.424 76.712 347.808 75.112 347.808 73.128C347.808 71.128 349.424 69.512 351.424 69.512C353.408 69.512 355.024 71.128 355.024 73.128Z" fill="#474747"/>
</g>
<g id="&#60;Group&#62;_125">
<path id="&#60;Path&#62;_74" d="M384.576 104.968C384.576 106.968 382.976 108.584 380.976 108.584C379.008 108.584 377.36 106.968 377.36 104.968C377.36 102.984 379.008 101.368 380.976 101.368C382.976 101.368 384.576 102.984 384.576 104.968Z" fill="#474747"/>
</g>
<g id="&#60;Group&#62;_126">
<path id="&#60;Path&#62;_75" d="M370.928 110.648C370.928 112.632 369.312 114.248 367.345 114.248C365.345 114.248 363.729 112.632 363.729 110.648C363.729 108.664 365.345 107.032 367.345 107.032C369.328 107.032 370.928 108.648 370.928 110.648V110.648Z" fill="#474747"/>
</g>
<g id="&#60;Group&#62;_127">
<path id="&#60;Path&#62;_76" d="M369.808 67.048C369.808 69.032 368.192 70.632 366.208 70.632C364.208 70.632 362.592 69.016 362.592 67.048C362.592 65.064 364.208 63.432 366.208 63.432C368.192 63.432 369.808 65.048 369.808 67.048Z" fill="#474747"/>
</g>
<g id="&#60;Group&#62;_128">
<path id="&#60;Path&#62;_77" d="M392.176 88.6479C392.176 90.648 390.56 92.2639 388.576 92.2639C386.592 92.2639 384.992 90.648 384.992 88.6479C384.992 86.6639 386.592 85.0639 388.576 85.0639C390.56 85.0639 392.176 86.6639 392.176 88.6479Z" fill="#474747"/>
</g>
<g id="&#60;Group&#62;_129">
<path id="&#60;Path&#62;_78" d="M348.96 88.6479C348.96 90.648 347.328 92.2639 345.344 92.2639C343.36 92.2639 341.744 90.648 341.744 88.6479C341.744 86.6639 343.36 85.0639 345.344 85.0639C347.328 85.0639 348.96 86.6639 348.96 88.6479Z" fill="#474747"/>
</g>
<g id="&#60;Group&#62;_130">
<path id="&#60;Path&#62;_79" d="M355.024 104.968C355.024 106.968 353.408 108.584 351.424 108.584C349.424 108.584 347.808 106.968 347.808 104.968C347.808 102.984 349.424 101.368 351.424 101.368C353.408 101.368 355.024 102.984 355.024 104.968Z" fill="#474747"/>
</g>
</g>
<g className="wheel">
<g id="&#60;Group&#62;_132">
<g id="&#60;Group&#62;_133">
<g id="&#60;Group&#62;_134">
<g id="&#60;Group&#62;_135">
<g id="&#60;Group&#62;_136">
<g id="&#60;Group&#62;_137">
<path id="&#60;Path&#62;_80" d="M170.192 67.288L176.8 64.856L178.304 68.968L171.696 71.4L170.192 67.304V67.288Z" fill="#212121"/>
</g>
</g>
<g id="&#60;Group&#62;_138">
<g id="&#60;Group&#62;_139">
<path id="&#60;Path&#62;_81" d="M192.896 132.984L200.832 129.816L202.368 133.896L195.745 136.328L192.896 132.968V132.984Z" fill="#212121"/>
</g>
</g>
</g>
<g id="&#60;Group&#62;_140">
<g id="&#60;Group&#62;_141">
<g id="&#60;Group&#62;_142">
<path id="&#60;Path&#62;_82" d="M219.664 84.552L222.096 91.144L218 92.648L215.568 86.072L219.664 84.552Z" fill="#212121"/>
</g>
</g>
<g id="&#60;Group&#62;_143">
<g id="&#60;Group&#62;_144">
<path id="&#60;Path&#62;_83" d="M154.544 108.552L156.976 115.128L152.88 116.632L150.448 110.04L154.544 108.536V108.552Z" fill="#212121"/>
</g>
</g>
</g>
</g>
<g id="&#60;Group&#62;_145">
<g id="&#60;Group&#62;_146">
<g id="&#60;Group&#62;_147">
<g id="&#60;Group&#62;_148">
<path id="&#60;Path&#62;_84" d="M198.512 65.704L204.912 68.632L203.088 72.616L196.688 69.656L198.512 65.704V65.704Z" fill="#212121"/>
</g>
</g>
<g id="&#60;Group&#62;_149">
<g id="&#60;Group&#62;_150">
<path id="&#60;Path&#62;_85" d="M169.472 128.6L175.872 131.528L174.032 135.48L167.648 132.552L169.472 128.6Z" fill="#212121"/>
</g>
</g>
</g>
<g id="&#60;Group&#62;_151">
<g id="&#60;Group&#62;_152">
<g id="&#60;Group&#62;_153">
<path id="&#60;Path&#62;_86" d="M221.248 112.808L218.304 119.192L214.32 117.336L217.28 111L221.248 112.808Z" fill="#212121"/>
</g>
</g>
<g id="&#60;Group&#62;_154">
<g id="&#60;Group&#62;_155">
<path id="&#60;Path&#62;_87" d="M158.208 83.848L155.28 90.232L151.312 88.408L154.24 82.0399L158.208 83.848V83.848Z" fill="#212121"/>
</g>
</g>
</g>
</g>
<g id="&#60;Group&#62;_156">
<g id="&#60;Group&#62;_157">
<g id="&#60;Group&#62;_158">
<g id="&#60;Group&#62;_159">
<path id="&#60;Path&#62;_88" d="M210.864 72.936L215.664 78.072L212.464 81.048L207.648 75.928L210.848 72.936H210.864Z" fill="#212121"/>
</g>
</g>
<g id="&#60;Group&#62;_160">
<g id="&#60;Group&#62;_161">
<path id="&#60;Path&#62;_89" d="M160.08 120.152L164.864 125.272L161.68 128.264L156.864 123.112L160.064 120.152H160.08Z" fill="#212121"/>
</g>
</g>
</g>
<g id="&#60;Group&#62;_162">
<g id="&#60;Group&#62;_163">
<g id="&#60;Group&#62;_164">
<path id="&#60;Path&#62;_90" d="M213.984 125.128L208.832 129.912L205.872 126.712L211.024 121.928L214 125.112L213.984 125.128Z" fill="#212121"/>
</g>
</g>
<g id="&#60;Group&#62;_165">
<g id="&#60;Group&#62;_166">
<path id="&#60;Path&#62;_91" d="M166.688 74.472L161.537 79.256L158.561 76.056L163.713 71.272L166.688 74.456V74.472Z" fill="#212121"/>
</g>
</g>
</g>
</g>
<g id="&#60;Group&#62;_167">
<g id="&#60;Group&#62;_168">
<g id="&#60;Group&#62;_169">
<g id="&#60;Group&#62;_170">
<path id="&#60;Path&#62;_92" d="M223.296 98.92L222.944 105.928L218.592 105.72L218.944 98.712L223.312 98.92H223.296Z" fill="#212121"/>
</g>
</g>
<g id="&#60;Group&#62;_171">
<g id="&#60;Group&#62;_172">
<path id="&#60;Path&#62;_93" d="M153.968 95.496L153.616 102.504L149.248 102.28L149.6 95.288L153.968 95.496Z" fill="#212121"/>
</g>
</g>
</g>
<g id="&#60;Group&#62;_173">
<g id="&#60;Group&#62;_174">
<g id="&#60;Group&#62;_175">
<path id="&#60;Path&#62;_94" d="M187.952 137.528L179.376 137.224L178.752 132.712L188.16 133.16L187.952 137.512V137.528Z" fill="#212121"/>
</g>
</g>
<g id="&#60;Group&#62;_176">
<g id="&#60;Group&#62;_177">
<path id="&#60;Path&#62;_95" d="M191.408 68.376L184.384 68.024L184.592 63.688L191.616 64.04L191.408 68.376Z" fill="#212121"/>
</g>
</g>
</g>
</g>
</g>
<g id="&#60;Group&#62;_178">
<path id="&#60;Path&#62;_96" d="M220.528 99C221.44 118.104 206.848 134.344 187.952 135.24C169.056 136.136 153.024 121.336 152.128 102.216C151.216 83.112 165.808 66.872 184.704 66.008C203.584 65.096 219.632 79.896 220.512 99.016L220.528 99Z" fill="#212121"/>
</g>
<g id="&#60;Group&#62;_179">
<path id="&#60;Path&#62;_97" d="M218.848 99.176C219.712 117.464 205.856 133.016 187.888 133.848C169.936 134.696 154.656 120.52 153.808 102.232C152.928 83.912 166.816 68.392 184.784 67.528C202.736 66.68 218 80.84 218.848 99.176V99.176Z" fill="#212121"/>
</g>
<g id="&#60;Group&#62;_180">
<path id="&#60;Path&#62;_98" d="M213.312 99.944C214.048 115.336 202.4 128.392 187.312 129.112C172.224 129.816 159.392 117.896 158.672 102.52C157.952 87.144 169.584 74.072 184.688 73.384C199.776 72.664 212.592 84.568 213.312 99.96V99.944Z" fill="#212121"/>
</g>
<g id="&#60;Group&#62;_181">
<path id="&#60;Path&#62;_99" d="M207.04 99.736C207.6 111.64 198.576 121.704 186.928 122.264C175.248 122.824 165.344 113.608 164.784 101.72C164.208 89.8 173.232 79.72 184.896 79.176C196.544 78.616 206.464 87.816 207.024 99.72L207.04 99.736Z" fill="#212121"/>
</g>
<g id="&#60;Group&#62;_182">
<path id="&#60;Path&#62;_100" d="M197.696 99.96C198 106.696 192.912 112.408 186.304 112.728C179.712 113.032 174.112 107.816 173.792 101.08C173.456 94.36 178.56 88.664 185.168 88.344C191.776 88.024 197.36 93.224 197.696 99.944V99.96Z" fill="#212121"/>
</g>
<g id="&#60;Group&#62;_183">
<path id="&#60;Path&#62;_101" d="M190.768 100.12C190.928 103.064 188.704 105.544 185.824 105.704C182.944 105.848 180.496 103.544 180.352 100.616C180.208 97.688 182.432 95.208 185.328 95.064C188.192 94.936 190.656 97.208 190.768 100.136V100.12Z" fill="#212121"/>
</g>
</g>
<g id="&#60;Group&#62;_184">
<g id="&#60;Group&#62;_185">
<g id="&#60;Group&#62;_186">
<g id="&#60;Group&#62;_187">
<g id="&#60;Group&#62;_188">
<path id="&#60;Path&#62;_102" d="M165.312 66.584L172.032 64.456L173.344 68.632L166.624 70.744L165.328 66.584H165.312Z" fill="#373737"/>
</g>
</g>
<g id="&#60;Group&#62;_189">
<g id="&#60;Group&#62;_190">
<path id="&#60;Path&#62;_103" d="M186.256 132.584L192.976 130.472L194.304 134.616L187.584 136.744L186.256 132.584V132.584Z" fill="#373737"/>
</g>
</g>
</g>
<g id="&#60;Group&#62;_191">
<g id="&#60;Group&#62;_192">
<g id="&#60;Group&#62;_193">
<path id="&#60;Path&#62;_104" d="M213.903 86.152L216.031 92.8399L211.855 94.1679L209.728 87.48L213.903 86.168V86.152Z" fill="#373737"/>
</g>
</g>
<g id="&#60;Group&#62;_194">
<g id="&#60;Group&#62;_195">
<path id="&#60;Path&#62;_105" d="M147.728 107.064L149.856 113.736L145.68 115.032L143.552 108.344L147.728 107.048V107.064Z" fill="#373737"/>
</g>
</g>
</g>
</g>
<g id="&#60;Group&#62;_196">
<g id="&#60;Group&#62;_197">
<g id="&#60;Group&#62;_198">
<g id="&#60;Group&#62;_199">
<path id="&#60;Path&#62;_106" d="M193.664 66.328L199.904 69.56L197.888 73.432L191.648 70.2L193.648 66.328H193.664Z" fill="#373737"/>
</g>
</g>
<g id="&#60;Group&#62;_200">
<g id="&#60;Group&#62;_201">
<path id="&#60;Path&#62;_107" d="M161.697 127.768L167.952 131.016L165.92 134.872L159.665 131.64L161.681 127.768H161.697Z" fill="#373737"/>
</g>
</g>
</g>
<g id="&#60;Group&#62;_202">
<g id="&#60;Group&#62;_203">
<g id="&#60;Group&#62;_204">
<path id="&#60;Path&#62;_108" d="M214.16 114.424L210.912 120.648L207.056 118.664L210.288 112.424L214.16 114.424Z" fill="#373737"/>
</g>
</g>
<g id="&#60;Group&#62;_205">
<g id="&#60;Group&#62;_206">
<path id="&#60;Path&#62;_109" d="M152.544 82.536L149.312 88.776L145.44 86.776L148.672 80.536L152.544 82.536Z" fill="#373737"/>
</g>
</g>
</g>
</g>
<g id="&#60;Group&#62;_207">
<g id="&#60;Group&#62;_208">
<g id="&#60;Group&#62;_209">
<g id="&#60;Group&#62;_210">
<path id="&#60;Path&#62;_110" d="M205.664 74.12L210.224 79.496L206.88 82.312L202.336 76.952L205.68 74.12H205.664Z" fill="#373737"/>
</g>
</g>
<g id="&#60;Group&#62;_211">
<g id="&#60;Group&#62;_212">
<path id="&#60;Path&#62;_111" d="M152.72 118.888L157.264 124.248L153.92 127.064L149.376 121.704L152.72 118.888Z" fill="#373737"/>
</g>
</g>
</g>
<g id="&#60;Group&#62;_213">
<g id="&#60;Group&#62;_214">
<g id="&#60;Group&#62;_215">
<path id="&#60;Path&#62;_112" d="M206.32 126.392L200.944 130.952L198.128 127.624L203.488 123.08L206.304 126.392H206.32Z" fill="#373737"/>
</g>
</g>
<g id="&#60;Group&#62;_216">
<g id="&#60;Group&#62;_217">
<path id="&#60;Path&#62;_113" d="M161.472 73.592L156.112 78.136L153.264 74.824L158.64 70.28L161.472 73.592Z" fill="#373737"/>
</g>
</g>
</g>
</g>
<g id="&#60;Group&#62;_218">
<g id="&#60;Group&#62;_219">
<g id="&#60;Group&#62;_220">
<g id="&#60;Group&#62;_221">
<path id="&#60;Path&#62;_114" d="M216.848 100.648L216.16 107.64L211.824 107.224L212.496 100.248L216.848 100.648Z" fill="#373737"/>
</g>
</g>
<g id="&#60;Group&#62;_222">
<g id="&#60;Group&#62;_223">
<path id="&#60;Path&#62;_115" d="M147.776 93.992L147.088 100.984L142.752 100.568L143.424 93.576L147.776 93.992Z" fill="#373737"/>
</g>
</g>
</g>
<g id="&#60;Group&#62;_224">
<g id="&#60;Group&#62;_225">
<g id="&#60;Group&#62;_226">
<path id="&#60;Path&#62;_116" d="M179.744 137.592L172.736 136.888L173.184 132.568L180.192 133.24L179.76 137.592H179.744Z" fill="#373737"/>
</g>
</g>
<g id="&#60;Group&#62;_227">
<g id="&#60;Group&#62;_228">
<path id="&#60;Path&#62;_117" d="M186.432 68.648L179.424 67.976L179.84 63.64L186.864 64.328L186.432 68.664V68.648Z" fill="#373737"/>
</g>
</g>
</g>
</g>
</g>
<g id="&#60;Group&#62;_229">
<path id="&#60;Path&#62;_118" d="M214.112 100.616C214.112 119.752 198.784 135.272 179.872 135.272C160.96 135.272 145.616 119.752 145.616 100.616C145.616 81.464 160.96 65.96 179.872 65.96C198.784 65.96 214.112 81.464 214.112 100.616V100.616Z" fill="#373737"/>
</g>
<g id="&#60;Group&#62;_230">
<path id="&#60;Path&#62;_119" d="M212.432 100.696C212.432 119.032 197.84 133.896 179.856 133.896C161.872 133.896 147.296 119.032 147.296 100.696C147.296 82.3599 161.872 67.4959 179.856 67.4959C197.84 67.4959 212.432 82.3759 212.432 100.696Z" fill="#373737"/>
</g>
<g id="&#60;Group&#62;_231">
<path id="&#60;Path&#62;_120" d="M206.832 101.208C206.832 116.616 194.592 129.112 179.472 129.112C164.352 129.112 152.112 116.616 152.112 101.208C152.112 85.8 164.352 73.32 179.472 73.32C194.592 73.32 206.832 85.8 206.832 101.208Z" fill="#474747"/>
</g>
<g id="&#60;Group&#62;_232">
<path id="&#60;Compound Path&#62;_2" fill-rule="evenodd" clip-rule="evenodd" d="M179.472 129.608C164.112 129.608 151.632 116.872 151.632 101.208C151.632 85.56 164.112 72.824 179.472 72.824C194.864 72.824 207.312 85.56 207.312 101.208C207.312 116.872 194.848 129.608 179.472 129.608ZM179.472 73.8C164.672 73.8 152.608 86.088 152.608 101.192C152.608 116.312 164.656 128.616 179.472 128.616C194.288 128.616 206.352 116.312 206.352 101.192C206.352 86.088 194.304 73.8 179.472 73.8Z" fill="#E5931C"/>
</g>
<g id="&#60;Group&#62;_233">
<path id="&#60;Path&#62;_121" d="M200.592 100.696C200.592 112.616 191.12 122.264 179.456 122.264C167.776 122.264 158.32 112.616 158.32 100.696C158.32 88.792 167.776 79.128 179.456 79.128C191.12 79.128 200.592 88.776 200.592 100.696V100.696Z" fill="#FDCA00"/>
</g>
<g id="&#60;Group&#62;_234">
<path id="&#60;Path&#62;_122" d="M191.232 100.504C191.232 107.24 185.872 112.696 179.264 112.696C172.656 112.696 167.296 107.24 167.296 100.504C167.296 93.768 172.656 88.328 179.264 88.328C185.888 88.328 191.232 93.768 191.232 100.504Z" fill="#EEEEEE"/>
</g>
<g id="&#60;Group&#62;_235">
<path id="&#60;Path&#62;_123" d="M184.32 100.344C184.32 103.288 181.984 105.656 179.104 105.656C176.224 105.656 173.888 103.288 173.888 100.344C173.888 97.384 176.224 95.016 179.104 95.016C181.968 95.016 184.32 97.4 184.32 100.344Z" fill="#474747"/>
</g>
<g id="&#60;Group&#62;_236">
<path id="&#60;Path&#62;_124" d="M213.904 86.152L219.664 84.552L222.096 91.1439L216.032 92.8239L213.904 86.136V86.152Z" fill="#333333"/>
</g>
<g id="&#60;Group&#62;_237">
<path id="&#60;Path&#62;_125" d="M216.848 100.648L223.296 98.92L222.944 105.928L216.176 107.64L216.864 100.648H216.848Z" fill="#333333"/>
</g>
<g id="&#60;Group&#62;_238">
<path id="&#60;Path&#62;_126" d="M214.16 114.424L221.264 112.808L218.32 119.192L210.928 120.648L214.176 114.424H214.16Z" fill="#333333"/>
</g>
<g id="&#60;Group&#62;_239">
<path id="&#60;Path&#62;_127" d="M206.32 126.392L213.984 125.128L208.832 129.912L200.96 130.936L206.336 126.376L206.32 126.392Z" fill="#333333"/>
</g>
<g id="&#60;Group&#62;_240">
<path id="&#60;Path&#62;_128" d="M194.304 134.616L202.368 133.896L195.744 136.328L187.584 136.728L194.304 134.6V134.616Z" fill="#333333"/>
</g>
<g id="&#60;Group&#62;_241">
<path id="&#60;Path&#62;_129" d="M179.712 137.128L180.928 137.192L187.952 137.528L179.728 137.576L179.712 137.112V137.128Z" fill="#212121"/>
</g>
<g id="&#60;Group&#62;_242">
<path id="&#60;Path&#62;_130" d="M205.664 74.12L210.864 72.936L215.664 78.072L210.224 79.48L205.664 74.104V74.12Z" fill="#333333"/>
</g>
<g id="&#60;Group&#62;_243">
<path id="&#60;Path&#62;_131" d="M193.664 66.328L198.496 65.704L204.896 68.632L199.904 69.5439L193.664 66.312V66.328Z" fill="#333333"/>
</g>
<g id="&#60;Group&#62;_244">
<path id="&#60;Path&#62;_132" d="M179.84 63.64L184.592 63.688L191.616 64.04L186.864 64.328L179.84 63.64Z" fill="#333333"/>
</g>
<g id="&#60;Group&#62;_245">
<path id="&#60;Path&#62;_133" d="M172.016 64.456L176.8 64.856L172.64 66.424L172.016 64.456Z" fill="#333333"/>
</g>
<g id="&#60;Group&#62;_246">
<path id="&#60;Path&#62;_134" d="M194.176 88.808C194.176 90.392 192.896 91.64 191.344 91.64C189.792 91.64 188.528 90.392 188.528 88.808C188.528 87.256 189.808 86.008 191.344 86.008C192.896 86.008 194.176 87.256 194.176 88.808Z" fill="#474747"/>
</g>
<g id="&#60;Group&#62;_247">
<path id="&#60;Path&#62;_135" d="M170.112 87.944C170.112 89.512 168.848 90.76 167.296 90.76C165.744 90.76 164.464 89.512 164.464 87.944C164.464 86.392 165.744 85.096 167.296 85.096C168.848 85.096 170.112 86.376 170.112 87.944Z" fill="#474747"/>
</g>
<g id="&#60;Group&#62;_248">
<path id="&#60;Path&#62;_136" d="M193.28 112.872C193.28 114.424 192.032 115.688 190.448 115.688C188.896 115.688 187.632 114.424 187.632 112.872C187.632 111.32 188.896 110.024 190.448 110.024C192.016 110.024 193.28 111.304 193.28 112.872Z" fill="#474747"/>
</g>
<g id="&#60;Group&#62;_249">
<path id="&#60;Path&#62;_137" d="M182.592 117.32C182.592 118.872 181.344 120.152 179.776 120.152C178.224 120.152 176.96 118.872 176.96 117.32C176.96 115.768 178.24 114.504 179.776 114.504C181.344 114.504 182.592 115.784 182.592 117.32Z" fill="#474747"/>
</g>
<g id="&#60;Group&#62;_250">
<path id="&#60;Path&#62;_138" d="M181.712 83.1919C181.712 84.7439 180.432 86.008 178.896 86.008C177.328 86.008 176.064 84.7279 176.064 83.1919C176.064 81.6239 177.328 80.36 178.896 80.36C180.448 80.36 181.712 81.6239 181.712 83.1919Z" fill="#474747"/>
</g>
<g id="&#60;Group&#62;_251">
<path id="&#60;Path&#62;_139" d="M199.216 100.104C199.216 101.672 197.936 102.92 196.4 102.92C194.88 102.92 193.584 101.656 193.584 100.104C193.584 98.536 194.88 97.288 196.4 97.288C197.952 97.288 199.216 98.536 199.216 100.104Z" fill="#474747"/>
</g>
<g id="&#60;Group&#62;_252">
<path id="&#60;Path&#62;_140" d="M165.392 100.104C165.392 101.672 164.112 102.92 162.576 102.92C161.008 102.92 159.76 101.656 159.76 100.104C159.76 98.536 161.024 97.288 162.576 97.288C164.112 97.288 165.392 98.536 165.392 100.104Z" fill="#474747"/>
</g>
<g id="&#60;Group&#62;_253">
<path id="&#60;Path&#62;_141" d="M170.112 112.872C170.112 114.424 168.848 115.688 167.296 115.688C165.744 115.688 164.464 114.424 164.464 112.872C164.464 111.32 165.744 110.024 167.296 110.024C168.848 110.024 170.112 111.304 170.112 112.872Z" fill="#474747"/>
</g>
</g>
<path id="&#60;Path&#62;_142" d="M397.2 31.368V114.984H306.736H213.12H167.937C156.305 114.984 146.896 105.56 146.896 93.96V56.616C146.896 45 156.305 35.576 167.937 35.576H213.12H232.064H242.576H252.816C249.088 39.368 246.768 44.552 246.768 50.296V54.248C246.768 65.864 256.176 75.288 267.808 75.288H307.392L337.232 0.855988H392.992V31.368H397.2V31.368Z" fill="#F5AB00"/>
<path id="&#60;Path&#62;_143" d="M359.328 35.576V114.984H268.88H175.264H130.08C118.464 114.984 109.056 105.56 109.056 93.96V56.616C109.056 45 118.464 35.576 130.08 35.576H175.264H194.208H204.72H214.96C211.232 39.368 208.928 44.552 208.928 50.296V54.248C208.928 65.864 218.352 75.288 229.968 75.288H269.536L299.392 0.855988H355.136V35.576H359.328V35.576Z" fill="#FFBE17"/>
<path id="&#60;Path&#62;_144" d="M271.184 47.64C269.728 48.824 267.568 48.6 266.368 47.128L257.216 35.88L227.488 60.024C226.848 60.552 225.52 59.976 224.528 58.744C223.536 57.528 223.248 56.104 223.888 55.576L253.6 31.432L244.496 20.216C243.28 18.744 243.52 16.6 244.976 15.4C246.432 14.216 248.592 14.44 249.792 15.896L271.68 42.808C272.864 44.28 272.64 46.424 271.168 47.64H271.184Z" fill="#212121"/>
<path id="&#60;Path&#62;_145" d="M266.976 47.64C265.52 48.824 263.36 48.6 262.16 47.128L253.024 35.88L223.28 60.024C222.64 60.552 221.312 59.976 220.32 58.744C219.312 57.528 219.04 56.104 219.68 55.576L249.408 31.432L240.288 20.216C239.104 18.744 239.328 16.6 240.8 15.4C242.256 14.216 244.416 14.44 245.6 15.896L267.488 42.808C268.688 44.28 268.464 46.424 266.976 47.64V47.64Z" fill="#404041"/>
<path id="&#60;Path&#62;_146" d="M230.224 56.984C230.224 62.504 227.152 66.984 223.376 66.984C219.616 66.984 216.544 62.504 216.544 56.984C216.544 51.464 219.616 47.016 223.376 47.016C227.168 47.016 230.224 51.48 230.224 56.984Z" fill="#F5AB00"/>
<g id="&#60;Group&#62;_254">
<g id="&#60;Group&#62;_255">
<g id="&#60;Group&#62;_256">
<path id="&#60;Path&#62;_147" d="M142.576 47.336H136.368V15.448C136.368 9.28798 142.48 3.67199 149.696 0.855988L149.856 11.128C146.272 11.592 142.672 8.43998 142.672 12.856L142.592 47.336H142.576Z" fill="#373737"/>
</g>
</g>
</g>
<g id="&#60;Group&#62;_257">
<g id="&#60;Group&#62;_258">
<g id="&#60;Group&#62;_259">
<path id="&#60;Path&#62;_148" d="M138.368 47.336H132.145V15.448C132.145 9.28798 138.256 3.67199 145.473 0.855988L145.617 11.128C142.033 11.592 138.433 8.43998 138.433 12.856L138.368 47.336V47.336Z" fill="#404041"/>
</g>
</g>
</g>
<path id="&#60;Path&#62;_149" d="M145.488 2.90399V0.855988H149.696L145.488 2.90399Z" fill="#373737"/>
<path id="&#60;Path&#62;_150" d="M145.632 9.87997L149.84 11.112H145.632V9.87997Z" fill="#373737"/>
<g id="&#60;Group&#62;_260">
<g id="&#60;Group&#62;_261">
<path id="&#60;Path&#62;_151" d="M346.656 116.216H162.48V107.176H346.656V116.216Z" fill="#51535C"/>
</g>
</g>
<g id="&#60;Group&#62;_262">
<g id="&#60;Group&#62;_263">
<path id="&#60;Path&#62;_152" d="M346.656 106.248H162.48V97.208H346.656V106.248Z" fill="#51535C"/>
</g>
</g>
<g id="&#60;Group&#62;_264">
<g id="&#60;Group&#62;_265">
<path id="&#60;Path&#62;_153" d="M346.976 108.424H155.472V105.304H346.976V108.424V108.424Z" fill="#757373"/>
</g>
</g>
<g id="&#60;Group&#62;_266">
<g id="&#60;Group&#62;_267">
<path id="&#60;Path&#62;_154" d="M159.472 85.544C170.848 77.112 189.632 72.36 215.824 71.288L263.52 71.592C255.264 82.68 250.944 91.208 250.528 97.192L161.568 98.024L159.488 85.544H159.472Z" fill="#757373"/>
</g>
</g>
<g id="&#60;Group&#62;_268">
<g id="&#60;Group&#62;_269">
<path id="&#60;Compound Path&#62;_3" fill-rule="evenodd" clip-rule="evenodd" d="M160.816 98.504L158.592 85.368L158.832 85.224C158.992 85.112 176.56 72.392 215.584 70.856L264.4 71.1439L263.92 71.8479C263.776 71.9919 251.616 88.4719 251.04 97.24L250.976 97.688L160.832 98.52L160.816 98.504ZM160.048 85.72L162.048 97.528L249.648 96.728C250.512 88.632 259.824 75.272 262.144 72.0719L215.6 71.784C179.52 73.224 162.16 84.248 160.048 85.704V85.72Z" fill="#51535C"/>
</g>
</g>
<g id="&#60;Group&#62;_270">
<g id="&#60;Group&#62;_271">
<path id="&#60;Path&#62;_155" d="M267.088 100.616H155.456V95.944H267.088V100.616Z" fill="#43454C"/>
</g>
</g>
<g id="&#60;Group&#62;_272">
<g id="&#60;Group&#62;_273">
<path id="&#60;Path&#62;_156" d="M267.088 111.864H155.456V107.176H267.088V111.864Z" fill="#43454C"/>
</g>
</g>
<g id="&#60;Group&#62;_274">
<g id="&#60;Group&#62;_275">
<path id="&#60;Path&#62;_157" d="M183.152 40.2159L180.656 73.752L163.184 73.8159L160.688 40.68L183.168 40.2L183.152 40.2159Z" fill="#757373"/>
</g>
</g>
<g id="&#60;Group&#62;_276">
<g id="&#60;Group&#62;_277">
<path id="&#60;Path&#62;_158" d="M180.688 73.72L171.888 73.736V40.392L183.184 40.152L180.688 73.72V73.72Z" fill="#43454C"/>
</g>
</g>
<g id="&#60;Group&#62;_278">
<g id="&#60;Group&#62;_279" opacity="0.4">
<g id="&#60;Group&#62;_280" opacity="0.4">
<path id="&#60;Compound Path&#62;_4" opacity="0.4" fill-rule="evenodd" clip-rule="evenodd" d="M179.232 56.008H164.96C164.368 56.008 163.872 55.528 163.872 54.936V46.2C163.872 45.608 164.368 45.128 164.96 45.128H179.232C179.824 45.128 180.32 45.608 180.32 46.2V54.936C180.32 55.528 179.824 56.008 179.232 56.008ZM164.96 45.608C164.624 45.608 164.368 45.8799 164.368 46.2159V54.952C164.368 55.304 164.624 55.544 164.96 55.544H179.232C179.568 55.544 179.84 55.304 179.84 54.952V46.2159C179.84 45.8799 179.552 45.608 179.232 45.608H164.96Z" fill="#373737"/>
</g>
</g>
<g id="&#60;Group&#62;_281" opacity="0.8">
<g id="&#60;Group&#62;_282" opacity="0.8">
<g id="&#60;Group&#62;_283" opacity="0.8">
<path id="&#60;Path&#62;_159" opacity="0.8" d="M173.28 47.016H177.888C178.016 47.016 178.112 47.208 178.112 47.432C178.112 47.672 178.016 47.864 177.888 47.864H173.28C173.168 47.864 173.056 47.672 173.056 47.432C173.056 47.192 173.168 47.016 173.28 47.016Z" fill="#373737"/>
</g>
</g>
<g id="&#60;Group&#62;_284" opacity="0.8">
<g id="&#60;Group&#62;_285" opacity="0.8">
<path id="&#60;Path&#62;_160" opacity="0.8" d="M166.288 47.016H170.896C171.024 47.016 171.12 47.208 171.12 47.432C171.12 47.672 171.024 47.864 170.896 47.864H166.288C166.176 47.864 166.048 47.672 166.048 47.432C166.048 47.192 166.176 47.016 166.288 47.016Z" fill="#373737"/>
</g>
</g>
</g>
<g id="&#60;Group&#62;_286" opacity="0.8">
<g id="&#60;Group&#62;_287" opacity="0.8">
<g id="&#60;Group&#62;_288" opacity="0.8">
<path id="&#60;Path&#62;_161" opacity="0.8" d="M173.28 50.12H177.888C178.016 50.12 178.112 50.296 178.112 50.552C178.112 50.776 178.016 50.968 177.888 50.968H173.28C173.168 50.968 173.056 50.776 173.056 50.552C173.056 50.296 173.168 50.12 173.28 50.12Z" fill="#373737"/>
</g>
</g>
<g id="&#60;Group&#62;_289" opacity="0.8">
<g id="&#60;Group&#62;_290" opacity="0.8">
<path id="&#60;Path&#62;_162" opacity="0.8" d="M166.288 50.12H170.896C171.024 50.12 171.12 50.296 171.12 50.552C171.12 50.776 171.024 50.968 170.896 50.968H166.288C166.176 50.968 166.048 50.776 166.048 50.552C166.048 50.296 166.176 50.12 166.288 50.12Z" fill="#373737"/>
</g>
</g>
</g>
<g id="&#60;Group&#62;_291" opacity="0.8">
<g id="&#60;Group&#62;_292" opacity="0.8">
<g id="&#60;Group&#62;_293" opacity="0.8">
<path id="&#60;Path&#62;_163" opacity="0.8" d="M173.28 53.208H177.888C178.016 53.208 178.112 53.4 178.112 53.64C178.112 53.864 178.016 54.056 177.888 54.056H173.28C173.168 54.056 173.056 53.864 173.056 53.64C173.056 53.4 173.168 53.208 173.28 53.208Z" fill="#373737"/>
</g>
</g>
<g id="&#60;Group&#62;_294" opacity="0.8">
<g id="&#60;Group&#62;_295" opacity="0.8">
<path id="&#60;Path&#62;_164" opacity="0.8" d="M166.288 53.208H170.896C171.024 53.208 171.12 53.4 171.12 53.64C171.12 53.864 171.024 54.056 170.896 54.056H166.288C166.176 54.056 166.048 53.864 166.048 53.64C166.048 53.4 166.176 53.208 166.288 53.208Z" fill="#373737"/>
</g>
</g>
</g>
</g>
<g id="&#60;Group&#62;_296">
<g id="&#60;Group&#62;_297">
<path id="&#60;Path&#62;_165" d="M358.72 34.248L359.328 114.984L247.312 116.232C248.496 73.72 264.304 46.664 294.752 35.032C326.992 24.104 348.304 23.848 358.72 34.248V34.248Z" fill="#191919"/>
</g>
</g>
<g id="&#60;Group&#62;_298">
<g id="&#60;Group&#62;_299">
<path id="&#60;Path&#62;_166" d="M248.112 116.328L239.328 115.88C240.72 82.2159 251.088 57.064 270.096 41.096C302.896 13.544 356.784 23.816 358.72 24.248V34.248C358.272 34.152 305.008 23.8 275.44 48.648C258.576 62.824 249.36 85.5919 248.096 116.328H248.112Z" fill="#474747"/>
</g>
</g>
<g className="wheel">
<g id="&#60;Group&#62;_300">
<g id="&#60;Group&#62;_301">
<g id="&#60;Group&#62;_302">
<g id="&#60;Group&#62;_303">
<g id="&#60;Group&#62;_304">
<g id="&#60;Group&#62;_305">
<path id="&#60;Path&#62;_167" d="M292 46.776L300.432 43.656L302.368 48.8879L293.952 51.96L292 46.76V46.776Z" fill="#212121"/>
</g>
</g>
<g id="&#60;Group&#62;_306">
<g id="&#60;Group&#62;_307">
<path id="&#60;Path&#62;_168" d="M320.976 130.664L331.136 126.616L333.072 131.832L324.64 134.936L320.976 130.664V130.664Z" fill="#212121"/>
</g>
</g>
</g>
<g id="&#60;Group&#62;_308">
<g id="&#60;Group&#62;_309">
<g id="&#60;Group&#62;_310">
<path id="&#60;Path&#62;_169" d="M355.168 68.808L358.304 77.224L353.056 79.16L349.952 70.744L355.168 68.824V68.808Z" fill="#212121"/>
</g>
</g>
<g id="&#60;Group&#62;_311">
<g id="&#60;Group&#62;_312">
<path id="&#60;Path&#62;_170" d="M272 99.448L275.136 107.848L269.904 109.784L266.784 101.384L272 99.448Z" fill="#212121"/>
</g>
</g>
</g>
</g>
<g id="&#60;Group&#62;_313">
<g id="&#60;Group&#62;_314">
<g id="&#60;Group&#62;_315">
<g id="&#60;Group&#62;_316">
<path id="&#60;Path&#62;_171" d="M328.177 44.728L336.337 48.488L334.001 53.528L325.841 49.784L328.177 44.728Z" fill="#212121"/>
</g>
</g>
<g id="&#60;Group&#62;_317">
<g id="&#60;Group&#62;_318">
<path id="&#60;Path&#62;_172" d="M291.073 125.064L299.233 128.808L296.865 133.848L288.721 130.104L291.057 125.064H291.073Z" fill="#212121"/>
</g>
</g>
</g>
<g id="&#60;Group&#62;_319">
<g id="&#60;Group&#62;_320">
<g id="&#60;Group&#62;_321">
<path id="&#60;Path&#62;_173" d="M357.201 104.904L353.457 113.032L348.385 110.728L352.145 102.568L357.201 104.904Z" fill="#212121"/>
</g>
</g>
<g id="&#60;Group&#62;_322">
<g id="&#60;Group&#62;_323">
<path id="&#60;Path&#62;_174" d="M276.688 67.88L272.913 76.024L267.856 73.688L271.617 65.544L276.688 67.864V67.88Z" fill="#212121"/>
</g>
</g>
</g>
</g>
<g id="&#60;Group&#62;_324">
<g id="&#60;Group&#62;_325">
<g id="&#60;Group&#62;_326">
<g id="&#60;Group&#62;_327">
<path id="&#60;Path&#62;_175" d="M343.937 53.976L350.064 60.552L345.984 64.344L339.856 57.768L343.921 53.976H343.937Z" fill="#212121"/>
</g>
</g>
<g id="&#60;Group&#62;_328">
<g id="&#60;Group&#62;_329">
<path id="&#60;Path&#62;_176" d="M279.072 114.264L285.2 120.824L281.136 124.616L275.008 118.056L279.072 114.264Z" fill="#212121"/>
</g>
</g>
</g>
<g id="&#60;Group&#62;_330">
<g id="&#60;Group&#62;_331">
<g id="&#60;Group&#62;_332">
<path id="&#60;Path&#62;_177" d="M347.921 120.632L341.361 126.744L337.537 122.664L344.129 116.568L347.921 120.632Z" fill="#212121"/>
</g>
</g>
<g id="&#60;Group&#62;_333">
<g id="&#60;Group&#62;_334">
<path id="&#60;Path&#62;_178" d="M287.521 55.928L280.944 62.0399L277.152 57.976L283.728 51.864L287.521 55.928Z" fill="#212121"/>
</g>
</g>
</g>
</g>
<g id="&#60;Group&#62;_335">
<g id="&#60;Group&#62;_336">
<g id="&#60;Group&#62;_337">
<g id="&#60;Group&#62;_338">
<path id="&#60;Path&#62;_179" d="M359.824 87.144L359.36 96.104L353.808 95.816L354.256 86.856L359.824 87.144Z" fill="#212121"/>
</g>
</g>
<g id="&#60;Group&#62;_339">
<g id="&#60;Group&#62;_340">
<path id="&#60;Path&#62;_180" d="M271.28 82.776L270.816 91.736L265.264 91.4479L265.712 82.4879L271.296 82.776H271.28Z" fill="#212121"/>
</g>
</g>
</g>
<g id="&#60;Group&#62;_341">
<g id="&#60;Group&#62;_342">
<g id="&#60;Group&#62;_343">
<path id="&#60;Path&#62;_181" d="M314.688 136.456L303.744 136.088L302.96 130.344L314.976 130.904L314.688 136.456V136.456Z" fill="#212121"/>
</g>
</g>
<g id="&#60;Group&#62;_344">
<g id="&#60;Group&#62;_345">
<path id="&#60;Path&#62;_182" d="M319.104 48.136L310.128 47.688L310.384 42.136L319.392 42.584L319.104 48.136Z" fill="#212121"/>
</g>
</g>
</g>
</g>
</g>
<g id="&#60;Group&#62;_346">
<path id="&#60;Path&#62;_183" d="M356.304 87.256C357.472 111.672 338.832 132.408 314.688 133.528C290.576 134.664 270.081 115.784 268.913 91.384C267.777 66.952 286.433 46.232 310.528 45.096C334.672 43.976 355.152 62.84 356.304 87.272V87.256Z" fill="#212121"/>
</g>
<g id="&#60;Group&#62;_347">
<path id="&#60;Path&#62;_184" d="M354.176 87.464C355.28 110.872 337.568 130.712 314.624 131.8C291.68 132.856 272.176 114.76 271.072 91.368C269.968 67.96 287.696 48.152 310.624 47.048C333.568 45.976 353.072 64.056 354.16 87.448L354.176 87.464Z" fill="#212121"/>
</g>
<g id="&#60;Group&#62;_348">
<path id="&#60;Path&#62;_185" d="M347.088 88.456C348.016 108.12 333.136 124.776 313.856 125.688C294.576 126.6 278.192 111.4 277.28 91.736C276.352 72.072 291.232 55.416 310.496 54.488C329.776 53.592 346.16 68.808 347.104 88.456H347.088Z" fill="#212121"/>
</g>
<g id="&#60;Group&#62;_349">
<path id="&#60;Path&#62;_186" d="M339.072 88.184C339.792 103.368 328.288 116.264 313.392 116.968C298.481 117.656 285.841 105.912 285.121 90.712C284.417 75.512 295.889 62.648 310.8 61.928C325.696 61.24 338.352 72.984 339.072 88.184Z" fill="#212121"/>
</g>
<g id="&#60;Group&#62;_350">
<path id="&#60;Path&#62;_187" d="M327.12 88.488C327.52 97.096 321.008 104.376 312.608 104.76C304.144 105.176 297.008 98.52 296.592 89.944C296.192 81.336 302.688 74.056 311.12 73.656C319.552 73.256 326.704 79.912 327.12 88.488Z" fill="#212121"/>
</g>
<g id="&#60;Group&#62;_351">
<path id="&#60;Path&#62;_188" d="M318.288 88.68C318.48 92.44 315.632 95.624 311.952 95.784C308.272 95.96 305.152 93.064 304.992 89.32C304.8 85.576 307.632 82.392 311.328 82.2C314.976 82.024 318.128 84.92 318.288 88.68V88.68Z" fill="#212121"/>
</g>
</g>
<g id="&#60;Group&#62;_352">
<g id="&#60;Group&#62;_353">
<g id="&#60;Group&#62;_354">
<g id="&#60;Group&#62;_355">
<g id="&#60;Group&#62;_356">
<path id="&#60;Path&#62;_189" d="M285.76 45.848L294.336 43.144L296.016 48.456L287.44 51.144L285.776 45.848H285.76Z" fill="#373737"/>
</g>
</g>
<g id="&#60;Group&#62;_357">
<g id="&#60;Group&#62;_358">
<path id="&#60;Path&#62;_190" d="M312.512 130.168L321.088 127.432L322.768 132.76L314.208 135.448L312.512 130.168Z" fill="#373737"/>
</g>
</g>
</g>
<g id="&#60;Group&#62;_359">
<g id="&#60;Group&#62;_360">
<g id="&#60;Group&#62;_361">
<path id="&#60;Path&#62;_191" d="M347.824 70.8399L350.544 79.384L345.232 81.064L342.496 72.5199L347.824 70.8399Z" fill="#373737"/>
</g>
</g>
<g id="&#60;Group&#62;_362">
<g id="&#60;Group&#62;_363">
<path id="&#60;Path&#62;_192" d="M263.312 97.544L266.032 106.104L260.72 107.768L258 99.224L263.312 97.544V97.544Z" fill="#373737"/>
</g>
</g>
</g>
</g>
<g id="&#60;Group&#62;_364">
<g id="&#60;Group&#62;_365">
<g id="&#60;Group&#62;_366">
<g id="&#60;Group&#62;_367">
<path id="&#60;Path&#62;_193" d="M321.968 45.512L329.968 49.64L327.392 54.568L319.408 50.44L321.984 45.496L321.968 45.512Z" fill="#373737"/>
</g>
</g>
<g id="&#60;Group&#62;_368">
<g id="&#60;Group&#62;_369">
<path id="&#60;Path&#62;_194" d="M281.136 124.008L289.12 128.136L286.576 133.08L278.592 128.952L281.152 124.008H281.136Z" fill="#373737"/>
</g>
</g>
</g>
<g id="&#60;Group&#62;_370">
<g id="&#60;Group&#62;_371">
<g id="&#60;Group&#62;_372">
<path id="&#60;Path&#62;_195" d="M348.16 106.984L344.016 114.936L339.072 112.376L343.184 104.408L348.16 106.984V106.984Z" fill="#373737"/>
</g>
</g>
<g id="&#60;Group&#62;_373">
<g id="&#60;Group&#62;_374">
<path id="&#60;Path&#62;_196" d="M269.472 66.232L265.344 74.184L260.384 71.608L264.512 63.656L269.472 66.232Z" fill="#373737"/>
</g>
</g>
</g>
</g>
<g id="&#60;Group&#62;_375">
<g id="&#60;Group&#62;_376">
<g id="&#60;Group&#62;_377">
<g id="&#60;Group&#62;_378">
<path id="&#60;Path&#62;_197" d="M337.296 55.496L343.104 62.344L338.848 65.912L333.04 59.08L337.296 55.496V55.496Z" fill="#373737"/>
</g>
</g>
<g id="&#60;Group&#62;_379">
<g id="&#60;Group&#62;_380">
<path id="&#60;Path&#62;_198" d="M269.664 112.664L275.472 119.496L271.232 123.112L265.424 116.264L269.664 112.68V112.664Z" fill="#373737"/>
</g>
</g>
</g>
<g id="&#60;Group&#62;_381">
<g id="&#60;Group&#62;_382">
<g id="&#60;Group&#62;_383">
<path id="&#60;Path&#62;_199" d="M338.144 122.264L331.296 128.072L327.68 123.832L334.544 118.008L338.128 122.264H338.144Z" fill="#373737"/>
</g>
</g>
<g id="&#60;Group&#62;_384">
<g id="&#60;Group&#62;_385">
<path id="&#60;Path&#62;_200" d="M280.832 54.792L273.984 60.6L270.368 56.344L277.216 50.552L280.832 54.792Z" fill="#373737"/>
</g>
</g>
</g>
</g>
<g id="&#60;Group&#62;_386">
<g id="&#60;Group&#62;_387">
<g id="&#60;Group&#62;_388">
<g id="&#60;Group&#62;_389">
<path id="&#60;Path&#62;_201" d="M351.6 89.368L350.736 98.296L345.184 97.736L346.064 88.824L351.616 89.352L351.6 89.368Z" fill="#373737"/>
</g>
</g>
<g id="&#60;Group&#62;_390">
<g id="&#60;Group&#62;_391">
<path id="&#60;Path&#62;_202" d="M263.36 80.84L262.496 89.7679L256.944 89.2399L257.808 80.312L263.36 80.84Z" fill="#373737"/>
</g>
</g>
</g>
<g id="&#60;Group&#62;_392">
<g id="&#60;Group&#62;_393">
<g id="&#60;Group&#62;_394">
<path id="&#60;Path&#62;_203" d="M304.192 136.52L295.264 135.656L295.792 130.12L304.736 130.984L304.192 136.536V136.52Z" fill="#373737"/>
</g>
</g>
<g id="&#60;Group&#62;_395">
<g id="&#60;Group&#62;_396">
<path id="&#60;Path&#62;_204" d="M312.736 48.4879L303.776 47.6399L304.32 42.072L313.264 42.936L312.736 48.4879Z" fill="#373737"/>
</g>
</g>
</g>
</g>
</g>
<g id="&#60;Group&#62;_397">
<path id="&#60;Path&#62;_205" d="M348.08 89.336C348.08 113.768 328.48 133.592 304.352 133.592C280.208 133.592 260.608 113.768 260.608 89.336C260.608 64.872 280.208 45.064 304.352 45.064C328.496 45.064 348.08 64.872 348.08 89.336V89.336Z" fill="#373737"/>
</g>
<g id="&#60;Group&#62;_398">
<path id="&#60;Path&#62;_206" d="M345.936 89.416C345.936 112.84 327.312 131.832 304.352 131.832C281.36 131.832 262.752 112.824 262.752 89.416C262.752 65.992 281.376 47.016 304.352 47.016C327.312 47.016 345.936 66.008 345.936 89.416Z" fill="#373737"/>
</g>
<g id="&#60;Group&#62;_399">
<path id="&#60;Path&#62;_207" d="M338.832 90.088C338.832 109.752 323.168 125.72 303.856 125.72C284.56 125.72 268.912 109.768 268.912 90.088C268.912 70.424 284.576 54.456 303.856 54.456C323.152 54.456 338.832 70.424 338.832 90.088V90.088Z" fill="#474747"/>
</g>
<g id="&#60;Group&#62;_400">
<path id="&#60;Compound Path&#62;_5" fill-rule="evenodd" clip-rule="evenodd" d="M303.856 126.2C284.336 126.2 268.416 109.992 268.416 90.072C268.416 70.152 284.32 53.944 303.856 53.944C323.408 53.944 339.296 70.152 339.296 90.072C339.296 109.992 323.408 126.2 303.856 126.2ZM303.856 54.936C284.864 54.936 269.392 70.696 269.392 90.088C269.392 109.464 284.864 125.24 303.856 125.24C322.848 125.24 338.304 109.464 338.304 90.088C338.304 70.712 322.832 54.936 303.856 54.936V54.936Z" fill="#E5931C"/>
</g>
<g id="&#60;Group&#62;_401">
<path id="&#60;Path&#62;_208" d="M330.816 89.416C330.816 104.648 318.72 116.968 303.824 116.968C288.912 116.968 276.8 104.648 276.8 89.416C276.8 74.216 288.896 61.864 303.824 61.864C318.736 61.864 330.816 74.216 330.816 89.416V89.416Z" fill="#FDCA00"/>
</g>
<g id="&#60;Group&#62;_402">
<path id="&#60;Path&#62;_209" d="M318.864 89.176C318.864 97.784 312.032 104.76 303.6 104.76C295.168 104.76 288.304 97.784 288.304 89.176C288.304 80.584 295.152 73.608 303.6 73.608C312.032 73.608 318.864 80.568 318.864 89.176Z" fill="#EEEEEE"/>
</g>
<g id="&#60;Group&#62;_403">
<path id="&#60;Path&#62;_210" d="M310.032 88.952C310.032 92.712 307.056 95.752 303.376 95.752C299.696 95.752 296.704 92.712 296.704 88.952C296.704 85.208 299.696 82.152 303.376 82.152C307.056 82.152 310.032 85.208 310.032 88.952Z" fill="#474747"/>
</g>
<g id="&#60;Group&#62;_404">
<path id="&#60;Path&#62;_211" d="M347.824 70.84L355.152 68.808L358.288 77.224L350.544 79.384L347.824 70.84V70.84Z" fill="#333333"/>
</g>
<g id="&#60;Group&#62;_405">
<path id="&#60;Path&#62;_212" d="M351.6 89.368L359.824 87.16L359.36 96.12L350.72 98.312L351.584 89.384L351.6 89.368Z" fill="#333333"/>
</g>
<g id="&#60;Group&#62;_406">
<path id="&#60;Path&#62;_213" d="M348.16 106.984L357.2 104.904L353.456 113.032L344.032 114.936L348.176 106.984H348.16Z" fill="#333333"/>
</g>
<g id="&#60;Group&#62;_407">
<path id="&#60;Path&#62;_214" d="M338.144 122.264L347.92 120.632L341.36 126.744L331.296 128.072L338.144 122.264Z" fill="#333333"/>
</g>
<g id="&#60;Group&#62;_408">
<path id="&#60;Path&#62;_215" d="M322.784 132.76L333.072 131.832L324.64 134.936L314.208 135.448L322.768 132.76H322.784Z" fill="#333333"/>
</g>
<g id="&#60;Group&#62;_409">
<path id="&#60;Path&#62;_216" d="M304.16 135.912L305.696 136.024L314.672 136.472L304.176 136.536L304.145 135.928L304.16 135.912Z" fill="#212121"/>
</g>
<g id="&#60;Group&#62;_410">
<path id="&#60;Path&#62;_217" d="M337.296 55.496L343.936 53.96L350.064 60.536L343.104 62.344L337.296 55.496Z" fill="#333333"/>
</g>
<g id="&#60;Group&#62;_411">
<path id="&#60;Path&#62;_218" d="M321.968 45.512L328.176 44.728L336.336 48.488L329.968 49.64L321.968 45.512V45.512Z" fill="#333333"/>
</g>
<g id="&#60;Group&#62;_412">
<path id="&#60;Path&#62;_219" d="M304.336 42.072L310.368 42.136L319.376 42.584L313.28 42.952L304.336 42.088V42.072Z" fill="#333333"/>
</g>
<g id="&#60;Group&#62;_413">
<path id="&#60;Path&#62;_220" d="M294.336 43.128L300.432 43.656L295.104 45.64L294.32 43.144L294.336 43.128Z" fill="#333333"/>
</g>
<g id="&#60;Group&#62;_414">
<path id="&#60;Path&#62;_221" d="M322.608 74.264C322.608 76.264 321.008 77.848 319.008 77.848C317.008 77.848 315.392 76.248 315.392 74.264C315.392 72.264 317.008 70.648 319.008 70.648C321.008 70.648 322.608 72.264 322.608 74.264Z" fill="#474747"/>
</g>
<g id="&#60;Group&#62;_415">
<path id="&#60;Path&#62;_222" d="M291.904 73.128C291.904 75.112 290.304 76.712 288.304 76.712C286.32 76.712 284.704 75.112 284.704 73.128C284.704 71.128 286.32 69.512 288.304 69.512C290.304 69.512 291.904 71.128 291.904 73.128Z" fill="#474747"/>
</g>
<g id="&#60;Group&#62;_416">
<path id="&#60;Path&#62;_223" d="M321.489 104.968C321.489 106.968 319.872 108.584 317.872 108.584C315.904 108.584 314.272 106.968 314.272 104.968C314.272 102.984 315.904 101.368 317.872 101.368C319.856 101.368 321.489 102.984 321.489 104.968Z" fill="#474747"/>
</g>
<g id="&#60;Group&#62;_417">
<path id="&#60;Path&#62;_224" d="M307.824 110.648C307.824 112.632 306.208 114.248 304.24 114.248C302.24 114.248 300.624 112.632 300.624 110.648C300.624 108.664 302.24 107.032 304.24 107.032C306.208 107.032 307.824 108.648 307.824 110.648V110.648Z" fill="#474747"/>
</g>
<g id="&#60;Group&#62;_418">
<path id="&#60;Path&#62;_225" d="M306.688 67.048C306.688 69.032 305.088 70.632 303.104 70.632C301.104 70.632 299.488 69.016 299.488 67.048C299.488 65.064 301.104 63.432 303.104 63.432C305.088 63.432 306.688 65.048 306.688 67.048Z" fill="#474747"/>
</g>
<g id="&#60;Group&#62;_419">
<path id="&#60;Path&#62;_226" d="M329.056 88.6479C329.056 90.648 327.44 92.2639 325.456 92.2639C323.472 92.2639 321.872 90.648 321.872 88.6479C321.872 86.6639 323.488 85.0639 325.456 85.0639C327.44 85.0639 329.056 86.6639 329.056 88.6479Z" fill="#474747"/>
</g>
<g id="&#60;Group&#62;_420">
<path id="&#60;Path&#62;_227" d="M285.856 88.6479C285.856 90.648 284.224 92.2639 282.24 92.2639C280.24 92.2639 278.64 90.648 278.64 88.6479C278.64 86.6639 280.24 85.0639 282.24 85.0639C284.224 85.0639 285.856 86.6639 285.856 88.6479Z" fill="#474747"/>
</g>
<g id="&#60;Group&#62;_421">
<path id="&#60;Path&#62;_228" d="M291.904 104.968C291.904 106.968 290.304 108.584 288.304 108.584C286.32 108.584 284.704 106.968 284.704 104.968C284.704 102.984 286.32 101.368 288.304 101.368C290.304 101.368 291.904 102.984 291.904 104.968Z" fill="#474747"/>
</g>
</g>
<path id="&#60;Path&#62;_229" d="M401.536 34.248H358.72V24.248H401.536V34.248Z" fill="#373737"/>
<g id="&#60;Group&#62;_422">
<g id="&#60;Group&#62;_423">
<path id="&#60;Path&#62;_230" d="M165.472 117L126.512 116.088L109.904 114.984L108.672 83.816L108.848 55.256C154 52.984 172.88 73.56 165.472 117Z" fill="#191919"/>
</g>
</g>
<g id="&#60;Group&#62;_424">
<g id="&#60;Group&#62;_425">
<path id="&#60;Path&#62;_231" d="M108.672 49.9439C154.096 51.0479 174.672 73.352 170.384 116.872L165.472 117C165.872 72.888 146.944 52.6 108.672 56.136V49.9439Z" fill="#424141"/>
</g>
</g>
<g id="&#60;Group&#62;_426">
<g id="&#60;Group&#62;_427">
<path id="&#60;Path&#62;_232" d="M108.848 56.136L108.832 52.584C166.832 55.192 168.896 105.08 168.544 116.92L165.632 117C166.032 72.888 147.104 52.6 108.848 56.136Z" fill="#373737"/>
</g>
</g>
<g className="wheel">
<g id="&#60;Group&#62;_428">
<g id="&#60;Group&#62;_429">
<g id="&#60;Group&#62;_430">
<g id="&#60;Group&#62;_431">
<g id="&#60;Group&#62;_432">
<g id="&#60;Group&#62;_433">
<path id="&#60;Path&#62;_233" d="M107.088 67.288L113.696 64.856L115.184 68.968L108.592 71.4L107.088 67.304V67.288Z" fill="#212121"/>
</g>
</g>
<g id="&#60;Group&#62;_434">
<g id="&#60;Group&#62;_435">
<path id="&#60;Path&#62;_234" d="M129.776 132.984L137.728 129.816L139.249 133.896L132.624 136.328L129.776 132.968V132.984Z" fill="#212121"/>
</g>
</g>
</g>
<g id="&#60;Group&#62;_436">
<g id="&#60;Group&#62;_437">
<g id="&#60;Group&#62;_438">
<path id="&#60;Path&#62;_235" d="M156.544 84.552L158.976 91.144L154.88 92.648L152.448 86.072L156.528 84.552H156.544Z" fill="#212121"/>
</g>
</g>
<g id="&#60;Group&#62;_439">
<g id="&#60;Group&#62;_440">
<path id="&#60;Path&#62;_236" d="M91.4402 108.552L93.8722 115.128L89.7762 116.632L87.3442 110.04L91.4402 108.536V108.552Z" fill="#212121"/>
</g>
</g>
</g>
</g>
<g id="&#60;Group&#62;_441">
<g id="&#60;Group&#62;_442">
<g id="&#60;Group&#62;_443">
<g id="&#60;Group&#62;_444">
<path id="&#60;Path&#62;_237" d="M135.408 65.704L141.808 68.632L139.984 72.616L133.584 69.656L135.408 65.704V65.704Z" fill="#212121"/>
</g>
</g>
<g id="&#60;Group&#62;_445">
<g id="&#60;Group&#62;_446">
<path id="&#60;Path&#62;_238" d="M106.352 128.6L112.736 131.528L110.912 135.48L104.512 132.552L106.336 128.6H106.352Z" fill="#212121"/>
</g>
</g>
</g>
<g id="&#60;Group&#62;_447">
<g id="&#60;Group&#62;_448">
<g id="&#60;Group&#62;_449">
<path id="&#60;Path&#62;_239" d="M158.144 112.808L155.2 119.192L151.232 117.336L154.192 111L158.16 112.808H158.144Z" fill="#212121"/>
</g>
</g>
<g id="&#60;Group&#62;_450">
<g id="&#60;Group&#62;_451">
<path id="&#60;Path&#62;_240" d="M95.088 83.848L92.16 90.232L88.208 88.408L91.136 82.0399L95.104 83.848H95.088Z" fill="#212121"/>
</g>
</g>
</g>
</g>
<g id="&#60;Group&#62;_452">
<g id="&#60;Group&#62;_453">
<g id="&#60;Group&#62;_454">
<g id="&#60;Group&#62;_455">
<path id="&#60;Path&#62;_241" d="M147.761 72.936L152.561 78.072L149.361 81.048L144.561 75.928L147.761 72.936V72.936Z" fill="#212121"/>
</g>
</g>
<g id="&#60;Group&#62;_456">
<g id="&#60;Group&#62;_457">
<path id="&#60;Path&#62;_242" d="M96.9764 120.152L101.76 125.272L98.5764 128.264L93.7764 123.112L96.9764 120.152V120.152Z" fill="#212121"/>
</g>
</g>
</g>
<g id="&#60;Group&#62;_458">
<g id="&#60;Group&#62;_459">
<g id="&#60;Group&#62;_460">
<path id="&#60;Path&#62;_243" d="M150.896 125.128L145.729 129.912L142.752 126.712L147.904 121.928L150.896 125.112V125.128Z" fill="#212121"/>
</g>
</g>
<g id="&#60;Group&#62;_461">
<g id="&#60;Group&#62;_462">
<path id="&#60;Path&#62;_244" d="M103.568 74.472L98.4164 79.256L95.4404 76.056L100.592 71.272L103.568 74.456V74.472Z" fill="#212121"/>
</g>
</g>
</g>
</g>
<g id="&#60;Group&#62;_463">
<g id="&#60;Group&#62;_464">
<g id="&#60;Group&#62;_465">
<g id="&#60;Group&#62;_466">
<path id="&#60;Path&#62;_245" d="M160.176 98.92L159.824 105.928L155.472 105.72L155.824 98.712L160.176 98.92Z" fill="#212121"/>
</g>
</g>
<g id="&#60;Group&#62;_467">
<g id="&#60;Group&#62;_468">
<path id="&#60;Path&#62;_246" d="M90.8641 95.496L90.5122 102.504L86.1602 102.28L86.5122 95.288L90.8801 95.496H90.8641Z" fill="#212121"/>
</g>
</g>
</g>
<g id="&#60;Group&#62;_469">
<g id="&#60;Group&#62;_470">
<g id="&#60;Group&#62;_471">
<path id="&#60;Path&#62;_247" d="M124.848 137.528L116.288 137.224L115.664 132.712L125.072 133.16L124.864 137.512L124.848 137.528Z" fill="#212121"/>
</g>
</g>
<g id="&#60;Group&#62;_472">
<g id="&#60;Group&#62;_473">
<path id="&#60;Path&#62;_248" d="M128.304 68.376L121.264 68.024L121.488 63.688L128.512 64.04L128.304 68.376Z" fill="#212121"/>
</g>
</g>
</g>
</g>
</g>
<g id="&#60;Group&#62;_474">
<path id="&#60;Path&#62;_249" d="M157.408 99C158.32 118.104 143.728 134.344 124.848 135.24C105.952 136.136 89.9199 121.336 89.0239 102.216C88.1119 83.112 102.704 66.872 121.6 66.008C140.48 65.096 156.528 79.896 157.408 99.016V99Z" fill="#212121"/>
</g>
<g id="&#60;Group&#62;_475">
<path id="&#60;Path&#62;_250" d="M155.76 99.176C156.608 117.464 142.752 133.016 124.8 133.848C106.832 134.696 91.5683 120.52 90.7043 102.232C89.8403 83.912 103.712 68.392 121.664 67.528C139.632 66.68 154.896 80.84 155.744 99.176H155.76Z" fill="#212121"/>
</g>
<g id="&#60;Group&#62;_476">
<path id="&#60;Path&#62;_251" d="M150.208 99.944C150.928 115.336 139.28 128.392 124.192 129.112C109.104 129.816 96.2562 117.896 95.5682 102.52C94.8322 87.144 106.48 74.072 121.584 73.384C136.656 72.664 149.488 84.568 150.208 99.96V99.944Z" fill="#212121"/>
</g>
<g id="&#60;Group&#62;_477">
<path id="&#60;Path&#62;_252" d="M143.936 99.736C144.512 111.64 135.472 121.704 123.824 122.264C112.16 122.824 102.256 113.608 101.68 101.72C101.104 89.8 110.128 79.72 121.792 79.176C133.456 78.616 143.376 87.816 143.92 99.72L143.936 99.736Z" fill="#212121"/>
</g>
<g id="&#60;Group&#62;_478">
<path id="&#60;Path&#62;_253" d="M134.576 99.96C134.88 106.696 129.808 112.408 123.2 112.728C116.592 113.032 110.992 107.816 110.688 101.08C110.352 94.36 115.472 88.664 122.064 88.344C128.672 88.024 134.272 93.224 134.592 99.944L134.576 99.96Z" fill="#212121"/>
</g>
<g id="&#60;Group&#62;_479">
<path id="&#60;Path&#62;_254" d="M127.664 100.12C127.808 103.064 125.584 105.544 122.688 105.704C119.808 105.848 117.36 103.544 117.216 100.616C117.072 97.688 119.28 95.208 122.192 95.064C125.056 94.936 127.52 97.208 127.664 100.136V100.12Z" fill="#212121"/>
</g>
</g>
<g id="&#60;Group&#62;_480">
<g id="&#60;Group&#62;_481">
<g id="&#60;Group&#62;_482">
<g id="&#60;Group&#62;_483">
<g id="&#60;Group&#62;_484">
<path id="&#60;Path&#62;_255" d="M102.192 66.584L108.912 64.456L110.224 68.632L103.504 70.744L102.208 66.584H102.192Z" fill="#373737"/>
</g>
</g>
<g id="&#60;Group&#62;_485">
<g id="&#60;Group&#62;_486">
<path id="&#60;Path&#62;_256" d="M123.152 132.584L129.872 130.472L131.2 134.616L124.48 136.744L123.152 132.584V132.584Z" fill="#373737"/>
</g>
</g>
</g>
<g id="&#60;Group&#62;_487">
<g id="&#60;Group&#62;_488">
<g id="&#60;Group&#62;_489">
<path id="&#60;Path&#62;_257" d="M150.784 86.152L152.912 92.8399L148.752 94.1679L146.64 87.48L150.8 86.168L150.784 86.152Z" fill="#373737"/>
</g>
</g>
<g id="&#60;Group&#62;_490">
<g id="&#60;Group&#62;_491">
<path id="&#60;Path&#62;_258" d="M84.6243 107.064L86.7522 113.736L82.5922 115.032L80.4482 108.344L84.6243 107.048V107.064Z" fill="#373737"/>
</g>
</g>
</g>
</g>
<g id="&#60;Group&#62;_492">
<g id="&#60;Group&#62;_493">
<g id="&#60;Group&#62;_494">
<g id="&#60;Group&#62;_495">
<path id="&#60;Path&#62;_259" d="M130.56 66.328L136.816 69.56L134.784 73.432L128.544 70.2L130.56 66.328Z" fill="#373737"/>
</g>
</g>
<g id="&#60;Group&#62;_496">
<g id="&#60;Group&#62;_497">
<path id="&#60;Path&#62;_260" d="M98.5761 127.768L104.832 131.016L102.816 134.872L96.5601 131.64L98.5601 127.768H98.5761Z" fill="#373737"/>
</g>
</g>
</g>
<g id="&#60;Group&#62;_498">
<g id="&#60;Group&#62;_499">
<g id="&#60;Group&#62;_500">
<path id="&#60;Path&#62;_261" d="M151.057 114.424L147.809 120.648L143.937 118.664L147.185 112.424L151.057 114.424Z" fill="#373737"/>
</g>
</g>
<g id="&#60;Group&#62;_501">
<g id="&#60;Group&#62;_502">
<path id="&#60;Path&#62;_262" d="M89.4403 82.536L86.1923 88.776L82.3203 86.776L85.5522 80.536L89.4403 82.536Z" fill="#373737"/>
</g>
</g>
</g>
</g>
<g id="&#60;Group&#62;_503">
<g id="&#60;Group&#62;_504">
<g id="&#60;Group&#62;_505">
<g id="&#60;Group&#62;_506">
<path id="&#60;Path&#62;_263" d="M142.56 74.12L147.12 79.496L143.776 82.312L139.232 76.952L142.576 74.12H142.56Z" fill="#373737"/>
</g>
</g>
<g id="&#60;Group&#62;_507">
<g id="&#60;Group&#62;_508">
<path id="&#60;Path&#62;_264" d="M89.6005 118.888L94.1604 124.248L90.8165 127.064L86.2725 121.704L89.6165 118.888H89.6005Z" fill="#373737"/>
</g>
</g>
</g>
<g id="&#60;Group&#62;_509">
<g id="&#60;Group&#62;_510">
<g id="&#60;Group&#62;_511">
<path id="&#60;Path&#62;_265" d="M143.216 126.392L137.84 130.952L135.024 127.624L140.384 123.08L143.2 126.392H143.216Z" fill="#373737"/>
</g>
</g>
<g id="&#60;Group&#62;_512">
<g id="&#60;Group&#62;_513">
<path id="&#60;Path&#62;_266" d="M98.3684 73.592L92.9925 78.136L90.1445 74.824L95.5205 70.28L98.3684 73.592Z" fill="#373737"/>
</g>
</g>
</g>
</g>
<g id="&#60;Group&#62;_514">
<g id="&#60;Group&#62;_515">
<g id="&#60;Group&#62;_516">
<g id="&#60;Group&#62;_517">
<path id="&#60;Path&#62;_267" d="M153.744 100.648L153.072 107.64L148.72 107.224L149.392 100.248L153.744 100.648Z" fill="#373737"/>
</g>
</g>
<g id="&#60;Group&#62;_518">
<g id="&#60;Group&#62;_519">
<path id="&#60;Path&#62;_268" d="M84.6722 93.992L83.9682 100.984L79.6323 100.568L80.3203 93.576L84.6722 93.992V93.992Z" fill="#373737"/>
</g>
</g>
</g>
<g id="&#60;Group&#62;_520">
<g id="&#60;Group&#62;_521">
<g id="&#60;Group&#62;_522">
<path id="&#60;Path&#62;_269" d="M116.64 137.592L109.616 136.888L110.064 132.568L117.072 133.24L116.656 137.592H116.64Z" fill="#373737"/>
</g>
</g>
<g id="&#60;Group&#62;_523">
<g id="&#60;Group&#62;_524">
<path id="&#60;Path&#62;_270" d="M123.312 68.648L116.32 67.976L116.736 63.64L123.76 64.328L123.312 68.664V68.648Z" fill="#373737"/>
</g>
</g>
</g>
</g>
</g>
<g id="&#60;Group&#62;_525">
<path id="&#60;Path&#62;_271" d="M150.992 100.616C150.992 119.752 135.664 135.272 116.752 135.272C97.84 135.272 82.4961 119.752 82.4961 100.616C82.4961 81.464 97.84 65.96 116.752 65.96C135.664 65.96 150.992 81.464 150.992 100.616V100.616Z" fill="#373737"/>
</g>
<g id="&#60;Group&#62;_526">
<path id="&#60;Path&#62;_272" d="M149.312 100.696C149.312 119.032 134.72 133.896 116.752 133.896C98.7682 133.896 84.1763 119.032 84.1763 100.696C84.1763 82.3599 98.7682 67.4959 116.752 67.4959C134.72 67.4959 149.312 82.3759 149.312 100.696Z" fill="#373737"/>
</g>
<g id="&#60;Group&#62;_527">
<path id="&#60;Path&#62;_273" d="M143.729 101.208C143.729 116.616 131.488 129.112 116.368 129.112C101.248 129.112 89.0244 116.616 89.0244 101.208C89.0244 85.8 101.264 73.32 116.368 73.32C131.488 73.32 143.729 85.8 143.729 101.208Z" fill="#474747"/>
</g>
<g id="&#60;Group&#62;_528">
<path id="&#60;Compound Path&#62;_6" fill-rule="evenodd" clip-rule="evenodd" d="M116.368 129.608C101.008 129.608 88.5283 116.872 88.5283 101.208C88.5283 85.56 101.008 72.824 116.368 72.824C131.744 72.824 144.224 85.56 144.224 101.208C144.224 116.872 131.744 129.608 116.368 129.608ZM116.368 73.8C101.568 73.8 89.5043 86.088 89.5043 101.192C89.5043 116.312 101.568 128.616 116.368 128.616C131.184 128.616 143.248 116.312 143.248 101.192C143.248 86.088 131.184 73.8 116.368 73.8Z" fill="#E5931C"/>
</g>
<g id="&#60;Group&#62;_529">
<path id="&#60;Path&#62;_274" d="M137.488 100.696C137.488 112.616 128.016 122.264 116.336 122.264C104.656 122.264 95.2002 112.616 95.2002 100.696C95.2002 88.792 104.656 79.128 116.336 79.128C128.016 79.128 137.488 88.776 137.488 100.696V100.696Z" fill="#FDCA00"/>
</g>
<g id="&#60;Group&#62;_530">
<path id="&#60;Path&#62;_275" d="M128.112 100.504C128.112 107.24 122.752 112.696 116.144 112.696C109.536 112.696 104.192 107.24 104.192 100.504C104.192 93.768 109.552 88.328 116.144 88.328C122.768 88.328 128.112 93.768 128.112 100.504Z" fill="#EEEEEE"/>
</g>
<g id="&#60;Group&#62;_531">
<path id="&#60;Path&#62;_276" d="M121.216 100.344C121.216 103.288 118.848 105.656 115.984 105.656C113.104 105.656 110.768 103.288 110.768 100.344C110.768 97.384 113.104 95.016 115.984 95.016C118.848 95.016 121.216 97.4 121.216 100.344Z" fill="#474747"/>
</g>
<g id="&#60;Group&#62;_532">
<path id="&#60;Path&#62;_277" d="M150.784 86.152L156.544 84.552L158.976 91.1439L152.912 92.8239L150.784 86.136V86.152Z" fill="#333333"/>
</g>
<g id="&#60;Group&#62;_533">
<path id="&#60;Path&#62;_278" d="M153.744 100.648L160.176 98.92L159.824 105.928L153.072 107.64L153.744 100.648V100.648Z" fill="#333333"/>
</g>
<g id="&#60;Group&#62;_534">
<path id="&#60;Path&#62;_279" d="M151.057 114.424L158.145 112.808L155.201 119.192L147.809 120.648L151.057 114.424V114.424Z" fill="#333333"/>
</g>
<g id="&#60;Group&#62;_535">
<path id="&#60;Path&#62;_280" d="M143.216 126.392L150.896 125.128L145.728 129.912L137.84 130.936L143.216 126.376V126.392Z" fill="#333333"/>
</g>
<g id="&#60;Group&#62;_536">
<path id="&#60;Path&#62;_281" d="M131.184 134.616L139.232 133.896L132.608 136.328L124.464 136.728L131.184 134.6V134.616Z" fill="#333333"/>
</g>
<g id="&#60;Group&#62;_537">
<path id="&#60;Path&#62;_282" d="M116.608 137.128L117.824 137.192L124.849 137.528L116.64 137.576L116.608 137.112V137.128Z" fill="#212121"/>
</g>
<g id="&#60;Group&#62;_538">
<path id="&#60;Path&#62;_283" d="M142.561 74.12L147.76 72.936L152.56 78.072L147.121 79.48L142.561 74.104V74.12Z" fill="#333333"/>
</g>
<g id="&#60;Group&#62;_539">
<path id="&#60;Path&#62;_284" d="M130.56 66.328L135.408 65.704L141.808 68.632L136.816 69.5439L130.56 66.312V66.328Z" fill="#333333"/>
</g>
<g id="&#60;Group&#62;_540">
<path id="&#60;Path&#62;_285" d="M116.736 63.64L121.488 63.688L128.512 64.04L123.76 64.328L116.736 63.64Z" fill="#333333"/>
</g>
<g id="&#60;Group&#62;_541">
<path id="&#60;Path&#62;_286" d="M108.912 64.456L113.696 64.856L109.536 66.424L108.912 64.456Z" fill="#333333"/>
</g>
<g id="&#60;Group&#62;_542">
<path id="&#60;Path&#62;_287" d="M131.072 88.808C131.072 90.392 129.792 91.64 128.24 91.64C126.688 91.64 125.424 90.392 125.424 88.808C125.424 87.256 126.688 86.008 128.24 86.008C129.808 86.008 131.072 87.256 131.072 88.808Z" fill="#474747"/>
</g>
<g id="&#60;Group&#62;_543">
<path id="&#60;Path&#62;_288" d="M107.008 87.944C107.008 89.512 105.744 90.76 104.176 90.76C102.624 90.76 101.344 89.512 101.344 87.944C101.344 86.392 102.624 85.096 104.176 85.096C105.744 85.096 107.008 86.376 107.008 87.944Z" fill="#474747"/>
</g>
<g id="&#60;Group&#62;_544">
<path id="&#60;Path&#62;_289" d="M130.16 112.872C130.16 114.424 128.896 115.688 127.328 115.688C125.776 115.688 124.512 114.424 124.512 112.872C124.512 111.32 125.776 110.024 127.328 110.024C128.896 110.024 130.16 111.304 130.16 112.872Z" fill="#474747"/>
</g>
<g id="&#60;Group&#62;_545">
<path id="&#60;Path&#62;_290" d="M119.488 117.32C119.488 118.872 118.224 120.152 116.656 120.152C115.12 120.152 113.84 118.872 113.84 117.32C113.84 115.768 115.12 114.504 116.656 114.504C118.224 114.504 119.488 115.784 119.488 117.32Z" fill="#474747"/>
</g>
<g id="&#60;Group&#62;_546">
<path id="&#60;Path&#62;_291" d="M118.592 83.1919C118.592 84.7439 117.312 86.008 115.76 86.008C114.208 86.008 112.944 84.7279 112.944 83.1919C112.944 81.6239 114.224 80.36 115.76 80.36C117.312 80.36 118.592 81.6239 118.592 83.1919Z" fill="#474747"/>
</g>
<g id="&#60;Group&#62;_547">
<path id="&#60;Path&#62;_292" d="M136.113 100.104C136.113 101.672 134.849 102.92 133.297 102.92C131.744 102.92 130.48 101.656 130.48 100.104C130.48 98.536 131.76 97.288 133.297 97.288C134.849 97.288 136.113 98.536 136.113 100.104Z" fill="#474747"/>
</g>
<g id="&#60;Group&#62;_548">
<path id="&#60;Path&#62;_293" d="M102.272 100.104C102.272 101.672 100.992 102.92 99.4561 102.92C97.8881 102.92 96.6401 101.656 96.6401 100.104C96.6401 98.536 97.9041 97.288 99.4561 97.288C100.992 97.288 102.272 98.536 102.272 100.104Z" fill="#474747"/>
</g>
<g id="&#60;Group&#62;_549">
<path id="&#60;Path&#62;_294" d="M107.008 112.872C107.008 114.424 105.744 115.688 104.176 115.688C102.624 115.688 101.344 114.424 101.344 112.872C101.344 111.32 102.624 110.024 104.176 110.024C105.744 110.024 107.008 111.304 107.008 112.872Z" fill="#474747"/>
</g>
</g>
</g>
</g>
</svg>
