<svg viewBox="0 0 591 560" fill="none" xmlns="http://www.w3.org/2000/svg">
<path d="M421.782 83.6103C456.224 181.555 495.106 180.479 552.959 243.04C610.811 305.601 591.303 395.743 505.197 446.868C459.454 474.028 484.343 535.847 421.782 552.482C315.496 580.743 351.149 509.429 175.574 508.084C-0.000732422 506.739 61.2147 393.052 30.2704 266.585C1.30133 148.189 111.668 140.79 137.23 88.9917C195.755 -17.9676 378.729 -38.8211 421.782 83.6103Z" fill="#A4F6FA"/>
<circle r="21.5264" transform="matrix(0.380916 0.924609 0.924609 -0.380916 534.573 158.289)" fill="white"/>
<circle r="8.0724" transform="matrix(0.380916 0.924609 0.924609 -0.380916 580.091 162.819)" fill="white"/>
<circle r="21.5264" transform="matrix(-0.763856 -0.645386 -0.645386 0.763856 110.93 70.7216)" fill="white"/>
<circle r="8.0724" transform="matrix(-0.763856 -0.645386 -0.645386 0.763856 68.438 87.6595)" fill="white"/>
<circle r="16.1448" transform="matrix(-1 0 0 1 16.1447 321.746)" fill="white"/>
<path d="M413.991 395.969H396.153V458.566H413.991V395.969Z" fill="#AD6B3D"/>
<path d="M176.121 395.969H158.283V458.566H176.121V395.969Z" fill="#AD6B3D"/>
<path d="M318.765 382.97C317.031 386.844 313.415 389.677 310.122 392.172C306.387 395.009 302.861 398.054 299.29 401.113C295.667 404.222 292.15 407.437 288.396 410.375C286.774 411.641 285.102 413.04 284.146 414.903C283.129 416.885 283.52 418.945 283.653 421.076C283.686 421.619 283.692 422.188 283.469 422.687C282.553 424.762 276.691 423.884 274.945 423.822C272.173 423.735 269.406 423.515 266.632 423.539C264.4 423.561 262.158 423.703 260.552 421.828C258.222 419.104 258.973 414.075 258.266 410.737C257.041 404.956 254.371 399.552 250.835 394.841C249.221 392.695 247.409 390.782 245.519 388.887C243.688 387.048 242.23 384.885 242.816 382.156C244.331 375.08 253.28 376.997 257.362 380.187C258.421 381.012 259.542 381.946 260.885 381.987C263.236 382.057 265.194 379.774 267.548 379.399C271.122 378.825 274.665 379.559 278.224 379.894C279.956 380.057 281.891 379.932 283.355 381.043C287.721 384.359 285.249 379.466 285.862 383.952C285.906 384.265 287.998 383.934 288.307 383.679C292.403 380.256 295.305 388.279 299.419 384.88C303.262 381.704 307.705 377.833 312.649 376.575C314.376 376.136 317.264 375.961 318.672 377.348C320.148 378.79 319.485 381.353 318.765 382.97Z" fill="black"/>
<path d="M261.104 418.491L260.752 418.452C260.775 418.452 260.94 418.398 261.093 417.324C261.095 417.784 261.097 418.179 261.104 418.491Z" fill="#7F3C33"/>
<path d="M316.599 381.79C316.459 382.28 316.217 382.802 315.861 383.332C314.542 385.28 312.236 386.868 310.466 388.4C308.305 390.273 306.121 392.124 304.027 394.076C299.472 398.331 294.871 402.545 290.184 406.652C286.962 409.479 283.129 411.815 280.86 415.566C281.277 414.875 280.718 412.52 280.641 411.716C280.52 410.526 280.358 409.34 280.168 408.163C279.051 401.483 277.546 389.336 273.478 387.588C269.409 385.84 266.509 395.176 266.509 395.176C266.509 395.176 263.16 394.892 262.002 397.562C260.774 400.388 261.543 404.108 261.112 407.03C261.337 405.521 260.129 403.01 259.561 401.638C258.825 399.866 257.845 398.211 256.755 396.638C254.438 393.298 251.546 390.373 248.423 387.795C247.392 386.943 246.256 386.049 245.893 384.761C244.987 381.568 248.634 379.043 251.461 379.943C254.137 380.801 256.023 383.274 258.116 384.996C260.414 386.894 262.759 388.741 265.135 390.543C264.856 390.532 264.496 383.655 266.448 383.043C268.491 382.399 271.727 383.168 273.844 383.301C275.823 383.429 278.663 382.965 280.483 383.744C283.682 385.11 282.254 389.876 282.055 392.433C281.766 396.174 281.942 400.101 281.91 403.853C281.912 403.444 284.204 402.031 284.503 401.789C289.644 397.708 294.771 393.608 299.899 389.508C302.502 387.421 305.109 385.339 307.712 383.253C309.444 381.868 311.095 380.303 313.09 379.301C315.716 377.995 317.228 379.566 316.599 381.79Z" fill="#73332D"/>
<path d="M281.143 420.18L271.536 419.374L261.109 419.216C261.109 419.216 261.101 418.945 261.099 418.49C261.092 418.178 261.09 417.783 261.093 417.323L261.098 417.199C261.252 416.084 261.373 413.555 261.223 408.35C261.216 408.02 261.19 407.703 261.146 407.367C261.271 402.945 261.49 398.717 262.001 397.558C263.164 394.888 266.508 395.172 266.508 395.172C266.508 395.172 269.414 385.831 273.478 387.579C277.546 389.327 279.051 401.475 280.169 408.155C280.65 411.13 280.844 413.698 280.878 415.627C280.95 418.062 280.799 419.489 280.799 419.489L280.634 419.483C280.883 419.958 281.143 420.18 281.143 420.18Z" fill="#8F554C"/>
<path d="M261.103 417.2C261.085 414.936 261.078 411.087 261.147 407.372C261.195 407.708 261.221 408.02 261.223 408.351C261.379 413.555 261.257 416.085 261.103 417.2Z" fill="#8C5249"/>
<path d="M395.97 308.023C394.539 305.391 395.094 300.931 396.168 297.801C420.905 225.142 371.197 140.51 282.86 134.088C210.458 128.796 146.417 195.338 152.182 266.944C152.468 270.344 152.011 274.488 150.247 277.246C143.326 288.058 141.405 299.825 140.881 312.336C138.857 361.646 186.71 398.771 234.154 384.398C240.372 382.51 243.683 381.626 245.973 382.651L245.996 382.651C247.247 382.609 248.576 382.691 249.835 382.951C254.591 383.914 288.564 390.562 313.855 380.717C313.855 380.717 313.878 380.718 313.891 380.741C319.065 383.148 323.027 385.015 326.125 386.583C326.139 386.606 326.18 386.606 326.221 386.629C331.946 388.838 338.874 390.729 345.165 390.384C347.973 389.832 349.91 389.362 351.883 389.077C392.963 383.122 413.063 339.288 395.97 308.023ZM356.518 381.01C348.686 382.884 342.448 382.109 335.898 375.614C329.247 369.05 320.088 364.776 311.558 360.409C309.114 359.153 305.054 361.06 301.742 361.508C303.766 364.046 305.739 366.626 307.8 369.101C308.409 369.831 309.295 370.337 311.238 371.888C286.899 376.953 263.949 381.237 241.621 368.433C240.757 367.926 239.905 367.149 238.98 367.065C235.347 366.734 231.699 366.642 228.056 366.449C228.781 370.008 229.52 373.567 230.386 377.894C204.419 384.543 177.499 375.888 161.408 355.1C144.254 332.946 142.8 305.396 156.297 280.279C159.19 274.924 159.53 267.652 159.322 261.313C157.603 211.823 180.905 176.367 223.268 153.751C297.902 113.885 391.728 167.191 395.717 251.415C396.405 266.028 391.535 280.858 389.897 295.662C389.27 301.279 389.258 307.548 391.114 312.763C401.861 342.908 386.462 373.785 356.518 381.01Z" stroke="black" stroke-width="15.6765" stroke-miterlimit="10"/>
<path d="M242.308 377.97C231.551 383.596 219.217 386.529 206.221 385.917C167.066 384.072 136.831 350.794 138.664 311.564C139.098 302.271 141.294 293.505 144.924 285.528C144.56 288.024 144.315 290.548 144.193 293.119C142.064 338.63 177.174 377.272 222.598 379.41C229.366 379.733 235.961 379.234 242.308 377.97Z" fill="#6EA72E"/>
<path d="M400.737 337.129C399.355 366.631 374.378 389.419 344.95 388.031C338.288 387.717 331.972 386.193 326.217 383.7C361.763 382.899 391.866 357.843 399.703 323.8C400.579 328.081 400.95 332.547 400.737 337.129Z" fill="#6EA72E"/>
<path d="M398.171 241.058C385.189 187.356 338.163 146.391 280.3 143.668C233.012 141.44 190.542 165.331 166.811 202.637C187.94 160.621 232.324 132.724 282.279 135.075C342.31 137.899 390.265 183.463 398.171 241.058Z" fill="#EFF0BD"/>
<path d="M399.707 323.799C392.606 354.633 367.239 378.107 336.113 382.835C332.874 383.324 329.563 383.624 326.221 383.699C322.724 382.161 319.454 380.303 316.406 378.107C315.261 377.282 314.161 376.421 313.081 375.518C308.24 377.035 303.287 378.234 298.207 379.138C289.337 380.734 280.138 381.364 270.763 380.923C265.484 380.673 260.308 380.098 255.226 379.193C255.143 379.188 255.079 379.187 255.02 379.164C251.934 378.602 248.895 377.94 245.906 377.177C245.417 377.049 244.922 376.922 244.433 376.8C243.729 377.199 243.025 377.585 242.303 377.966C235.961 379.225 229.362 379.729 222.594 379.41C214.937 379.049 207.575 377.665 200.654 375.361C166.403 364.064 142.419 330.959 144.188 293.115C144.31 290.544 144.55 288.02 144.919 285.524C145.635 283.917 146.415 282.351 147.254 280.809C148.07 279.331 148.905 277.894 149.821 276.504C150.895 274.789 152.074 273.12 153.331 271.516C153.641 271.096 153.974 270.675 154.302 270.255C153.905 266.307 153.701 262.288 153.722 258.26C153.689 256.262 153.742 254.251 153.838 252.24C154.674 234.386 159.254 217.625 166.796 202.647C190.527 165.344 233.003 141.451 280.287 143.674C338.152 146.397 385.179 187.365 398.161 241.07C399.205 248.475 399.552 256.055 399.191 263.791C398.927 269.452 398.296 275.014 397.29 280.449C395.819 288.403 393.612 296.068 390.701 303.369C392.473 305.824 394.033 308.428 395.355 311.151C397.337 315.127 398.796 319.352 399.707 323.799Z" fill="#97C451"/>
<path d="M359.673 358.907C346.633 367.667 332.016 374.228 316.403 378.109C303.81 381.233 290.537 382.604 276.919 381.965C269.509 381.615 262.273 380.691 255.228 379.195C255.146 379.19 255.082 379.189 255.022 379.166C202.775 368.19 161.943 327.658 149.821 276.51C150.895 274.79 152.074 273.122 153.331 271.518C173.759 327.817 226.369 369.191 289.819 372.18C314.695 373.354 338.441 368.506 359.673 358.907Z" fill="#6EA72E"/>
<path d="M316.956 236.729C316.892 236.788 316.827 236.87 316.781 236.948C316.845 236.866 316.892 236.788 316.938 236.706L316.956 236.729Z" fill="black"/>
<path d="M231.629 253.724C231.287 253.46 231.009 253.256 230.826 253.104C231.086 253.367 231.346 253.566 231.629 253.724Z" fill="black"/>
<path d="M325.957 172.699C325.998 172.723 326.057 172.746 326.139 172.792C326.08 172.769 326.016 172.746 325.933 172.741L325.957 172.699Z" fill="black"/>
<path d="M364.397 209.691L364.333 209.727C364.297 209.58 364.266 209.433 364.207 209.304C364.284 209.437 364.338 209.562 364.397 209.691Z" fill="black"/>
<path d="M365.68 226.191C365.68 226.191 370.843 240.558 369.979 254.84" stroke="#EFF0BD" stroke-width="12.5412" stroke-miterlimit="10"/>
<path d="M369.84 226.581C369.734 228.89 367.779 230.673 365.475 230.566C363.17 230.46 361.394 228.497 361.501 226.192C361.607 223.883 363.561 222.099 365.866 222.206C368.171 222.313 369.951 224.276 369.84 226.581Z" fill="#EFF0BD"/>
<path d="M374.264 253.935C374.158 256.244 372.203 258.028 369.898 257.921C367.593 257.814 365.818 255.851 365.924 253.546C366.031 251.237 367.985 249.454 370.29 249.561C372.59 249.667 374.37 251.626 374.264 253.935Z" fill="#EFF0BD"/>
<g opacity="0.61">
<g opacity="0.61">
<g opacity="0.61">
<path opacity="0.61" d="M303.037 185.45C302.936 187.599 301.115 189.254 298.975 189.153C296.835 189.052 295.178 187.232 295.279 185.083C295.38 182.939 297.201 181.279 299.341 181.38C301.481 181.481 303.138 183.301 303.037 185.45Z" fill="#EFF0BD"/>
</g>
</g>
</g>
<g opacity="0.61">
<g opacity="0.61">
<g opacity="0.61">
<path opacity="0.61" d="M258.81 194.28C258.71 196.429 256.893 198.084 254.749 197.983C252.604 197.882 250.952 196.062 251.053 193.913C251.153 191.769 252.97 190.109 255.114 190.21C257.254 190.311 258.911 192.131 258.81 194.28Z" fill="#EFF0BD"/>
</g>
</g>
</g>
<g opacity="0.61">
<g opacity="0.61">
<g opacity="0.61">
<path opacity="0.61" d="M278.005 218.95C277.905 221.099 276.088 222.754 273.944 222.653C271.799 222.552 270.147 220.732 270.247 218.583C270.348 216.439 272.164 214.779 274.309 214.88C276.453 214.981 278.106 216.806 278.005 218.95Z" fill="#EFF0BD"/>
</g>
</g>
</g>
<g opacity="0.61">
<g opacity="0.61">
<g opacity="0.61">
<path opacity="0.61" d="M248.826 221.993C248.725 224.142 246.909 225.797 244.764 225.696C242.62 225.595 240.968 223.775 241.068 221.626C241.169 219.482 242.985 217.822 245.13 217.923C247.274 218.024 248.927 219.849 248.826 221.993Z" fill="#EFF0BD"/>
</g>
</g>
</g>
<g opacity="0.61">
<g opacity="0.61">
<g opacity="0.61">
<path opacity="0.61" d="M300.283 235.975C300.182 238.123 298.361 239.779 296.221 239.678C294.081 239.577 292.424 237.757 292.525 235.608C292.625 233.464 294.446 231.804 296.586 231.905C298.726 232.006 300.383 233.826 300.283 235.975Z" fill="#EFF0BD"/>
</g>
</g>
</g>
<g opacity="0.61">
<g opacity="0.61">
<g opacity="0.61">
<path opacity="0.61" d="M334.25 246.879C335.78 248.386 335.801 250.847 334.297 252.381C332.794 253.914 330.332 253.935 328.806 252.428C327.275 250.921 327.254 248.455 328.758 246.926C330.262 245.393 332.719 245.372 334.25 246.879Z" fill="#EFF0BD"/>
</g>
</g>
</g>
<g opacity="0.61">
<g opacity="0.61">
<g opacity="0.61">
<path opacity="0.61" d="M353.683 282.371C355.214 283.878 355.235 286.344 353.731 287.873C352.227 289.406 349.765 289.427 348.239 287.92C346.708 286.413 346.687 283.947 348.191 282.413C349.695 280.885 352.152 280.868 353.683 282.371Z" fill="#EFF0BD"/>
</g>
</g>
</g>
<g opacity="0.61">
<g opacity="0.61">
<g opacity="0.61">
<path opacity="0.61" d="M271.192 250.973C271.092 253.121 269.275 254.777 267.131 254.676C264.986 254.575 263.334 252.755 263.434 250.606C263.535 248.462 265.351 246.802 267.496 246.903C269.636 247 271.293 248.824 271.192 250.973Z" fill="#EFF0BD"/>
</g>
</g>
</g>
<g opacity="0.61">
<g opacity="0.61">
<g opacity="0.61">
<path opacity="0.61" d="M231.628 199.039C231.527 201.188 229.711 202.843 227.566 202.742C225.422 202.641 223.769 200.821 223.87 198.673C223.97 196.529 225.787 194.869 227.931 194.97C230.071 195.071 231.728 196.895 231.628 199.039Z" fill="#EFF0BD"/>
</g>
</g>
</g>
<g opacity="0.61">
<g opacity="0.61">
<g opacity="0.61">
<path opacity="0.61" d="M213.327 228.573C213.226 230.722 211.41 232.377 209.265 232.276C207.12 232.175 205.468 230.355 205.569 228.206C205.669 226.062 207.486 224.402 209.63 224.503C211.775 224.604 213.427 226.424 213.327 228.573Z" fill="#EFF0BD"/>
</g>
</g>
</g>
<g opacity="0.61">
<g opacity="0.61">
<g opacity="0.61">
<path opacity="0.61" d="M220.212 272.537C220.111 274.681 218.295 276.341 216.15 276.24C214.006 276.139 212.353 274.314 212.454 272.17C212.555 270.022 214.371 268.366 216.515 268.467C218.655 268.568 220.312 270.388 220.212 272.537Z" fill="#EFF0BD"/>
</g>
</g>
</g>
<g opacity="0.61">
<g opacity="0.61">
<g opacity="0.61">
<path opacity="0.61" d="M184.796 273.211C184.695 275.355 182.879 277.015 180.734 276.914C178.59 276.813 176.937 274.988 177.038 272.844C177.138 270.696 178.955 269.041 181.099 269.142C183.239 269.243 184.896 271.063 184.796 273.211Z" fill="#EFF0BD"/>
</g>
</g>
</g>
<g opacity="0.61">
<g opacity="0.61">
<g opacity="0.61">
<path opacity="0.61" d="M230.555 303.112C229.667 305.067 227.361 305.929 225.409 305.04C223.457 304.15 222.596 301.839 223.484 299.884C224.372 297.929 226.674 297.066 228.63 297.956C230.582 298.846 231.447 301.152 230.555 303.112Z" fill="#EFF0BD"/>
</g>
</g>
</g>
<g opacity="0.61">
<g opacity="0.61">
<g opacity="0.61">
<path opacity="0.61" d="M255.503 289.41C254.615 291.365 252.308 292.228 250.357 291.338C248.405 290.448 247.544 288.137 248.432 286.182C249.32 284.227 251.622 283.365 253.578 284.254C255.53 285.149 256.39 287.455 255.503 289.41Z" fill="#EFF0BD"/>
</g>
</g>
</g>
<g opacity="0.61">
<g opacity="0.61">
<g opacity="0.61">
<path opacity="0.61" d="M281.946 310.14C281.058 312.095 278.751 312.958 276.8 312.068C274.848 311.178 273.987 308.867 274.875 306.912C275.763 304.957 278.065 304.095 280.021 304.984C281.972 305.874 282.833 308.18 281.946 310.14Z" fill="#EFF0BD"/>
</g>
</g>
</g>
<g opacity="0.61">
<g opacity="0.61">
<g opacity="0.61">
<path opacity="0.61" d="M320.822 297.937C319.934 299.892 317.627 300.755 315.676 299.865C313.724 298.975 312.863 296.664 313.751 294.709C314.639 292.754 316.941 291.891 318.897 292.781C320.848 293.675 321.709 295.982 320.822 297.937Z" fill="#EFF0BD"/>
</g>
</g>
</g>
<g opacity="0.61">
<g opacity="0.61">
<g opacity="0.61">
<path opacity="0.61" d="M346.33 317.844C345.443 319.799 343.136 320.661 341.184 319.772C339.233 318.882 338.372 316.571 339.26 314.616C340.147 312.661 342.449 311.798 344.406 312.688C346.362 313.578 347.218 315.884 346.33 317.844Z" fill="#EFF0BD"/>
</g>
</g>
</g>
<g opacity="0.61">
<g opacity="0.61">
<g opacity="0.61">
<path opacity="0.61" d="M226.351 330.641C225.464 332.596 223.157 333.459 221.205 332.569C219.254 331.679 218.393 329.368 219.281 327.413C220.168 325.458 222.47 324.596 224.427 325.485C226.378 326.38 227.239 328.686 226.351 330.641Z" fill="#EFF0BD"/>
</g>
</g>
</g>
<g opacity="0.61">
<g opacity="0.61">
<g opacity="0.61">
<path opacity="0.61" d="M180.398 348.613C179.51 350.569 177.204 351.431 175.252 350.541C173.301 349.651 172.44 347.341 173.328 345.385C174.215 343.43 176.517 342.568 178.473 343.457C180.425 344.347 181.291 346.658 180.398 348.613Z" fill="#EFF0BD"/>
</g>
</g>
</g>
<path d="M354.337 209.874C351.444 204.106 342.169 188.45 323.839 181.224C321.054 180.126 320.009 176.483 322.09 174.328C322.925 173.466 324.184 172.913 326.072 173.086C332.366 173.678 356.104 191.938 362.073 207.802C362.073 207.802 362.557 211.815 359.019 212.416C357.092 212.748 355.215 211.625 354.337 209.874Z" fill="#EFF0BD"/>
<path d="M339.846 450.805C337.944 450.747 336.465 449.125 336.545 447.197L336.546 447.16C338.687 398.259 310.347 380.649 301.093 376.222C299.512 375.468 298.749 373.64 299.323 371.958C299.996 369.983 302.211 369.033 304.048 369.949C314.21 375.025 342.948 393.524 343.55 440.546C343.57 442.415 345.004 443.949 346.847 444.002L369.509 444.681C371.397 444.734 372.872 446.337 372.809 448.252L372.809 448.321C372.747 450.235 371.16 451.741 369.277 451.687L339.846 450.805Z" fill="black"/>
<path d="M339.846 450.805C337.944 450.747 336.465 449.125 336.545 447.197L336.546 447.16C338.687 398.259 310.347 380.649 301.093 376.222C299.512 375.468 298.749 373.64 299.323 371.958C299.996 369.983 302.211 369.033 304.048 369.949C314.21 375.025 342.948 393.524 343.55 440.546C343.57 442.415 345.004 443.949 346.847 444.002L369.509 444.681C371.397 444.734 372.872 446.337 372.809 448.252L372.809 448.321C372.747 450.235 371.16 451.741 369.277 451.687L339.846 450.805Z" stroke="black" stroke-width="2.3515" stroke-miterlimit="10"/>
<path d="M261.72 451.795C259.698 451.873 257.989 450.347 257.91 448.395L257.91 448.363C255.952 398.922 224.392 383.224 214.204 379.434C212.466 378.785 211.501 376.996 211.961 375.264C212.505 373.228 214.768 372.104 216.798 372.897C228.005 377.272 260.064 393.837 264.766 441.183C264.956 443.067 266.602 444.51 268.56 444.431L292.634 443.47C294.638 443.391 296.343 444.894 296.44 446.828L296.445 446.897C296.542 448.836 294.997 450.465 292.988 450.544L261.72 451.795Z" fill="black"/>
<path d="M261.72 451.795C259.698 451.873 257.989 450.347 257.91 448.395L257.91 448.363C255.952 398.922 224.392 383.224 214.204 379.434C212.466 378.785 211.501 376.996 211.961 375.264C212.505 373.228 214.768 372.104 216.798 372.897C228.005 377.272 260.064 393.837 264.766 441.183C264.956 443.067 266.602 444.51 268.56 444.431L292.634 443.47C294.638 443.391 296.343 444.894 296.44 446.828L296.445 446.897C296.542 448.836 294.997 450.465 292.988 450.544L261.72 451.795Z" stroke="black" stroke-width="2.3515" stroke-miterlimit="10"/>
<path d="M176.121 358.007V397.801C176.121 402.738 172.129 406.739 167.202 406.739C162.275 406.739 158.283 402.738 158.283 397.801V358.007C158.283 353.069 162.275 349.069 167.202 349.069C172.124 349.069 176.121 353.069 176.121 358.007Z" fill="#8F5730"/>
<path d="M413.991 358.007V397.801C413.991 402.738 409.999 406.739 405.072 406.739C400.145 406.739 396.153 402.738 396.153 397.801V358.007C396.153 353.069 400.145 349.069 405.072 349.069C409.999 349.069 413.991 353.069 413.991 358.007Z" fill="#8F5730"/>
<path d="M455.617 347.2V350.759C455.617 359.1 448.865 365.86 440.547 365.86H131.254C122.931 365.86 116.184 359.095 116.184 350.759V347.2C116.184 345.68 116.409 344.201 116.835 342.819C118.709 349.019 124.452 353.538 131.259 353.538H440.556C447.357 353.538 453.105 349.019 454.979 342.819C455.392 344.206 455.617 345.68 455.617 347.2Z" fill="#8F5730"/>
<path d="M454.971 342.819C453.096 349.019 447.353 353.538 440.547 353.538H131.254C124.453 353.538 118.705 349.019 116.831 342.819C118.705 336.615 124.448 332.1 131.254 332.1H440.551C447.349 332.1 453.096 336.615 454.971 342.819Z" fill="#CC7F46"/>
<path d="M341.391 330.86H214.818V340.66H341.391V330.86Z" fill="white"/>
<path d="M92.351 297.554C92.0485 301.408 94.6931 305.683 107.375 311.024C122.037 317.197 150.133 324.788 202.654 334.796C203.167 335.416 203.831 335.921 204.62 336.256C207.241 337.358 210.248 336.128 211.348 333.501C212.448 330.874 211.22 327.861 208.598 326.759C206.522 325.886 204.189 326.483 202.773 328.077C166.702 321.183 139.518 314.832 121.891 309.197C111.395 305.839 105.693 303.185 102.599 301.297C100.299 299.897 100.592 296.443 103.085 295.419C107.586 293.573 116.918 291.093 136.232 289.026C150.083 287.543 163.814 286.854 169.901 286.592C171.707 286.518 173.114 284.998 173.064 283.189C173.027 281.843 172.193 280.718 171.033 280.231C170.602 280.047 170.126 279.956 169.621 279.974C163.264 280.245 148.767 280.98 134.348 282.573C98.0573 286.569 92.7544 292.388 92.351 297.554Z" fill="#010202"/>
<path d="M336.309 294.069L333.041 292.328C332.381 291.975 332.125 291.148 332.478 290.487L333.041 289.421C333.394 288.76 334.219 288.503 334.879 288.856L338.147 290.597C338.807 290.95 339.064 291.777 338.711 292.438L338.147 293.504C337.799 294.165 336.969 294.418 336.309 294.069Z" fill="#EFEFEF"/>
<path d="M317.875 331.714L313.283 335.591L311.669 334.732L312.297 328.748L317.875 331.714Z" fill="#FFF0C7"/>
<path d="M337.564 294.533L331.99 291.568L312.295 328.751L317.87 331.716L337.564 294.533Z" fill="#E6312F"/>
<path d="M313.283 335.59L311.413 337.166L311.669 334.731L313.283 335.59Z" fill="#010202"/>
<path d="M337.799 292.297L336.183 295.348L336.956 295.759L338.572 292.708L337.799 292.297Z" fill="#D3D3D3"/>
<path d="M332.961 289.722L331.345 292.773L336.183 295.346L337.799 292.295L332.961 289.722Z" fill="#B7B7B7"/>
<path d="M332.946 289.716L331.33 292.767L331.346 292.776L332.962 289.725L332.946 289.716Z" fill="#B7B7B7"/>
<path d="M441.487 330.511C440.277 334.18 436.189 337.097 422.43 337.097C406.525 337.097 377.692 333.198 325.396 322.042C324.681 322.414 323.874 322.625 323.017 322.625C320.175 322.625 317.875 320.32 317.875 317.473C317.875 314.625 320.175 312.32 323.017 312.32C325.272 312.32 327.188 313.776 327.88 315.796C363.8 323.438 391.318 328.132 409.747 329.772C420.725 330.75 427.008 330.511 430.588 329.978C433.251 329.583 434.314 326.286 432.412 324.371C428.975 320.922 421.33 315.016 404.325 305.614C392.129 298.873 379.731 292.907 374.222 290.307C372.581 289.54 371.875 287.593 372.622 285.944C373.177 284.718 374.378 284.006 375.634 284.006C376.101 284.006 376.578 284.107 377.036 284.319C382.793 287.033 395.874 293.338 408.556 300.402C440.47 318.171 443.11 325.592 441.487 330.511Z" fill="#010202"/>
<path d="M301.421 266.397C301.421 266.397 315.482 281.872 323.382 271.921C331.282 261.966 314.344 253.181 314.344 253.181L301.421 266.397Z" fill="#D61116"/>
<path d="M281.235 273.374C276.056 274.454 271.711 274.876 268.837 275.037C266.829 275.147 265.285 273.788 265.505 272.107V272.098C265.697 270.637 267.164 269.457 268.901 269.356C272.265 269.167 278.118 268.561 284.924 266.692C297.987 263.105 308.694 256.648 316.788 247.49C317.892 246.241 319.918 245.878 321.38 246.65C322.971 247.49 323.278 249.337 322.068 250.696C310.77 263.427 296.534 269.388 286.295 272.166C284.544 272.64 282.848 273.039 281.235 273.374Z" fill="black"/>
<path d="M327.733 220.142C327.691 221.171 327.536 222.172 327.283 223.132C325.757 217.345 320.606 212.968 314.326 212.716C307.635 212.445 301.86 216.927 300.237 223.159C299.889 221.837 299.728 220.445 299.788 219.007C300.1 211.274 306.608 205.262 314.326 205.574C322.04 205.886 328.044 212.408 327.733 220.142Z" fill="black"/>
<path d="M243.679 224.004C243.368 231.738 236.859 237.75 229.141 237.437C221.423 237.125 215.423 230.604 215.735 222.87C216.046 215.136 222.555 209.124 230.273 209.436C237.991 209.749 243.996 216.27 243.679 224.004Z" fill="black"/>
</svg>
